<?xml version="1.0" encoding="UTF-8"?>
<svg version="1.1" xmlns="http://www.w3.org/2000/svg" width="454" height="461">
<path d="M0 0 C2.25518548 -0.00407194 4.51036896 -0.00941729 6.76554871 -0.01593018 C12.8543588 -0.02953552 18.94301536 -0.02433321 25.03182793 -0.01479292 C31.42474638 -0.00716106 37.81765228 -0.01425169 44.21057129 -0.01895142 C55.62941462 -0.02474695 67.04817343 -0.01546435 78.46700245 -0.0001734 C88.79362843 0.01322749 99.12015319 0.01089869 109.44677734 -0.00292969 C121.47562793 -0.01903026 133.50440222 -0.02493587 145.5332675 -0.0160929 C151.88725938 -0.01143244 158.24118174 -0.01074658 164.59516907 -0.02070236 C170.57071635 -0.02941235 176.54607379 -0.02327672 182.52160072 -0.00601959 C184.70558165 -0.00207622 186.88957874 -0.0031516 189.07355309 -0.00980759 C213.19019467 -0.07649155 233.67776349 4.22291174 251.80273438 21.26318359 C265.10464609 35.45934147 270.75622443 53.37518858 270.69515991 72.47392273 C270.69969103 73.53375596 270.70422214 74.5935892 270.70889056 75.68553859 C270.72146588 79.2071525 270.71991863 82.72861039 270.71826172 86.25024414 C270.72425126 88.78745216 270.73105779 91.32465836 270.73861694 93.86186218 C270.75441325 100.021305 270.76072345 106.18069148 270.7618417 112.34015264 C270.76279537 117.35215349 270.76692149 122.36414181 270.77324295 127.37613869 C270.79083724 141.61786219 270.80008468 155.85955568 270.798582 170.10129013 C270.79850209 170.86748597 270.79842218 171.63368181 270.79833984 172.4230957 C270.79825808 173.19023806 270.79817632 173.95738042 270.79809208 174.74776951 C270.79727972 187.17144368 270.81640945 199.59499646 270.84461658 212.01863553 C270.87341873 224.80628998 270.88715285 237.59388536 270.88542902 250.38157302 C270.88476764 257.54836111 270.89014873 264.71502194 270.91178513 271.88178062 C270.93201821 278.62638558 270.93124877 285.37067858 270.91675186 292.11531258 C270.91467048 294.58065561 270.91932427 297.04601568 270.93147278 299.51132965 C271.03187359 321.30991902 268.7724376 339.9266993 254.42773438 357.38818359 C253.81800781 358.19642578 253.20828125 359.00466797 252.58007812 359.83740234 C242.61061577 371.6523913 225.33893172 379.76142984 210.14916968 381.18731749 C205.95456245 381.49691677 201.7786687 381.52948841 197.57424927 381.52189636 C196.63495477 381.52416192 195.69566026 381.52642748 194.72790229 381.52876168 C191.60846501 381.53504676 188.48907179 381.53427589 185.36962891 381.53344727 C183.1216425 381.53644214 180.87365661 381.53984543 178.62567139 381.54362488 C172.53887233 381.55243451 166.45208735 381.55480168 160.36528254 381.55544066 C156.55830776 381.55615276 152.75133653 381.55829009 148.94436264 381.56093788 C136.33659788 381.56970414 123.72884334 381.57435885 111.12107636 381.57360741 C110.10377296 381.57354747 110.10377296 381.57354747 109.06591797 381.57348633 C108.38687931 381.57344545 107.70784065 381.57340457 107.00822507 381.57336245 C96.00445834 381.57295602 85.00072583 381.58252756 73.996969 381.59662469 C62.67386668 381.61101551 51.35078622 381.61771061 40.02767265 381.61703092 C33.68040105 381.61677644 27.33316824 381.6196004 20.98590469 381.63020897 C15.01538707 381.63991622 9.0449451 381.63995111 3.07442474 381.63269234 C0.8896028 381.63164984 -1.29522391 381.63398937 -3.48003769 381.6400528 C-28.26134428 381.70434642 -46.70189896 378.18998899 -65.07226562 360.13818359 C-72.57226562 352.4920797 -72.57226562 352.4920797 -72.57226562 349.38818359 C-73.23226562 349.38818359 -73.89226562 349.38818359 -74.57226562 349.38818359 C-84.27372195 332.84799576 -84.15505678 315.85728365 -84.08984375 297.25244141 C-84.09527269 294.63903922 -84.10239965 292.0256401 -84.11108398 289.4122467 C-84.12875278 283.08700699 -84.12508243 276.76195846 -84.11343342 270.43671164 C-84.10435627 265.29273001 -84.10319346 260.14880151 -84.10752869 255.00481415 C-84.10814162 254.26942521 -84.10875455 253.53403627 -84.10938606 252.77636282 C-84.1106651 251.28193713 -84.11196195 249.78751145 -84.11327642 248.29308578 C-84.12464725 234.32298379 -84.11162202 220.35298728 -84.09007496 206.38290259 C-84.07219216 194.41830167 -84.07532456 182.45385597 -84.09375 170.48925781 C-84.11519295 156.558919 -84.12356462 142.62867221 -84.11130095 128.6983192 C-84.11002688 127.21097614 -84.10876939 125.72363306 -84.10752869 124.23628998 C-84.10691158 123.50468089 -84.10629448 122.77307179 -84.10565868 122.01929273 C-84.10221715 116.88457634 -84.10800786 111.74991876 -84.1174469 106.61521149 C-84.12988582 99.6973548 -84.12093453 92.77979514 -84.09786987 85.86196709 C-84.09259673 83.32883374 -84.09407253 80.79567564 -84.10292053 78.26255226 C-84.11391382 74.79468132 -84.10006577 71.32773685 -84.0802002 67.85992432 C-84.08912308 66.86690913 -84.09804597 65.87389395 -84.10723925 64.8507874 C-84.00042 55.18274931 -80.94731032 46.52244235 -76.57226562 37.95068359 C-76.09789062 37.00322266 -75.62351562 36.05576172 -75.13476562 35.07958984 C-73.50835246 32.27809316 -71.5945015 29.91176544 -69.57226562 27.38818359 C-69.24226563 26.39818359 -68.91226563 25.40818359 -68.57226562 24.38818359 C-66.09927179 21.83948586 -63.30664489 19.65047344 -60.57226562 17.38818359 C-59.91097656 16.80552734 -59.2496875 16.22287109 -58.56835938 15.62255859 C-41.38695501 1.14714391 -21.43240883 -0.06531843 0 0 Z " fill="#58AC58" transform="translate(138.572265625,34.61181640625)"/>
<path d="M0 0 C1.15886719 -0.02449219 2.31773437 -0.04898438 3.51171875 -0.07421875 C10.25832405 -0.09734997 14.78315239 0.08727699 20.125 4.375 C24.96922908 9.69851676 26.0540239 16.69444858 27.75 23.5 C28.44412755 26.20835088 29.14642509 28.91457475 29.84765625 31.62109375 C30.02963058 32.32810928 30.21160492 33.03512482 30.39909363 33.76356506 C32.34434722 41.29559667 34.44184515 48.78355494 36.54486084 56.27276611 C40.69615352 71.06389015 44.69752167 85.88499347 48.46484375 100.77929688 C48.88565898 102.43392244 49.31450858 104.08653999 49.75390625 105.73632812 C50.64167504 109.11047033 51.125 111.8531771 51.125 115.375 C51.785 115.375 52.445 115.375 53.125 115.375 C53.30994522 113.62196312 53.30994522 113.62196312 53.49862671 111.83351135 C54.01033964 107.76462288 54.96904347 103.97321674 56.14697266 100.03881836 C56.45219345 99.00983681 56.45219345 99.00983681 56.76358032 97.96006775 C57.43270852 95.70980975 58.11079065 93.46236088 58.7890625 91.21484375 C59.2646465 89.62243919 59.73968272 88.02987094 60.21420288 86.43714905 C61.465154 82.24396922 62.72379559 78.05313593 63.98400879 73.86273193 C65.24030243 69.68012498 66.48891457 65.49522705 67.73828125 61.31054688 C69.88168886 54.13393723 72.03804398 46.96130778 74.20042801 39.79039574 C75.57390481 35.2284898 76.92355062 30.66028404 78.25683594 26.08642578 C78.57131683 25.01953018 78.88579773 23.95263458 79.20980835 22.85340881 C79.76923576 20.95412458 80.32128746 19.0526418 80.86367798 17.14842224 C82.6879866 11.00453002 84.87082933 6.56351521 89.5390625 2.03125 C95.09516531 -0.53496742 100.45689139 -0.20280827 106.5 -0.125 C107.69367188 -0.14046875 108.88734375 -0.1559375 110.1171875 -0.171875 C116.80842083 -0.14226777 122.79864226 -0.05236384 128.125 4.375 C133.59948353 10.11504384 135.19782645 18.41401104 137.26077271 25.84951782 C138.10386453 28.88706957 138.97479317 31.91642789 139.84425354 34.94651794 C140.2899498 36.50030581 140.73431229 38.05447687 141.17735291 39.60902405 C143.24067465 46.83596862 145.44195619 54.01493685 147.6875 61.1875 C148.04948486 62.34822021 148.41146973 63.50894043 148.78442383 64.70483398 C150.30399609 69.57158585 151.82990191 74.4363378 153.35839844 79.30029297 C154.39707315 82.60590467 155.43230107 85.91258165 156.46578979 89.21981812 C157.04335914 91.06388688 157.6252439 92.90660231 158.20727539 94.74926758 C160.13735143 100.92260457 161.83687399 107.03553168 163.125 113.375 C163.785 113.375 164.445 113.375 165.125 113.375 C165.20411621 112.81659424 165.28323242 112.25818848 165.36474609 111.68286133 C166.83449935 102.55441171 169.419697 93.75857044 171.94772339 84.88058472 C173.31301602 80.08484438 174.66172639 75.28444049 176.01171875 70.484375 C176.28019119 69.53118881 176.54866364 68.57800262 176.82527161 67.59593201 C179.14239768 59.35328514 181.37299783 51.08983354 183.5625 42.8125 C183.88138184 41.61254395 184.20026367 40.41258789 184.52880859 39.17626953 C185.65160186 34.94896778 186.77387497 30.72162488 187.87744141 26.48925781 C188.53489811 23.96969054 189.20358901 21.45337703 189.875 18.9375 C190.1368811 17.90870728 190.1368811 17.90870728 190.40405273 16.85913086 C191.86386163 11.45281362 193.98088804 6.38510496 198.125 2.5 C202.81808389 -0.13985969 207.82291124 0.15866804 213.0625 0.125 C213.86107422 0.104375 214.65964844 0.08375 215.48242188 0.0625 C221.59440501 0.02198976 224.76911629 1.33747895 229.4375 5.375 C233.11079186 11.90529664 231.29919484 19.46215454 229.40234375 26.38671875 C228.63683862 28.95101096 227.85712436 31.50744016 227.0625 34.0625 C226.64704818 35.43922985 226.23317061 36.81643566 225.82080078 38.1940918 C224.99075263 40.96073694 224.15346491 43.72500122 223.30908203 46.48730469 C221.66402852 51.87504894 220.07741344 57.27961612 218.5 62.6875 C218.07605957 64.13455322 218.07605957 64.13455322 217.64355469 65.61083984 C215.29323517 73.6804501 213.11538179 81.79196891 210.95385742 89.91381836 C208.11347523 100.53238219 205.0855179 111.09416326 202.04345703 121.65625 C199.77030048 129.55896921 197.53670653 137.47048814 195.3671875 145.40234375 C195.14148575 146.22522888 194.915784 147.04811401 194.6832428 147.89593506 C193.59338044 151.87052752 192.50964431 155.84660446 191.4362793 159.82568359 C191.0424308 161.26537497 190.64832012 162.70499466 190.25390625 164.14453125 C189.91431885 165.39854736 189.57473145 166.65256348 189.22485352 167.94458008 C187.59013818 173.04322274 185.82696429 177.2687966 181.625 180.6875 C181.0371875 181.17863281 180.449375 181.66976562 179.84375 182.17578125 C174.93618694 185.59992184 168.53129869 184.63900821 162.8125 184.6875 C161.68392578 184.71650391 160.55535156 184.74550781 159.39257812 184.77539062 C152.96687545 184.82455727 148.96810545 184.75986709 144.125 180.375 C143.61334793 179.9210083 143.10169586 179.4670166 142.57453918 178.99926758 C140.8960625 177.11846622 140.30547519 175.61321304 139.5378418 173.21875 C139.1247023 171.95340927 139.1247023 171.95340927 138.70321655 170.6625061 C138.26811264 169.28269058 138.26811264 169.28269058 137.82421875 167.875 C137.51110748 166.90766937 137.19799622 165.94033875 136.87539673 164.94369507 C135.84594702 161.75679405 134.8292974 158.56595795 133.8125 155.375 C133.10077596 153.16457908 132.38811961 150.95445814 131.67456055 148.74462891 C130.20817141 144.19991558 128.74635492 139.65377047 127.28808594 135.10644531 C124.33018089 125.89014889 121.33022307 116.6876159 118.32901001 107.48535156 C117.46162958 104.82403494 116.59608558 102.16212872 115.73120117 99.5 C113.26911075 91.92398487 110.79907622 84.35064814 108.29296875 76.7890625 C107.69971802 74.99782959 107.69971802 74.99782959 107.09448242 73.17041016 C106.22341846 70.46396093 106.22341846 70.46396093 105.125 68.375 C104.83367187 69.3043335 104.54234375 70.23366699 104.2421875 71.19116211 C98.57059042 89.27928723 92.87627213 107.35916275 87.07666016 125.40673828 C86.09235332 128.47682616 85.11384006 131.54871182 84.13671875 134.62109375 C82.48282693 139.82121868 80.81307563 145.01607881 79.13818359 150.20947266 C78.083832 153.50362273 77.05160063 156.80427684 76.01953125 160.10546875 C75.32619842 162.27886211 74.63220997 164.45204645 73.9375 166.625 C73.62876953 167.63119385 73.32003906 168.6373877 73.00195312 169.67407227 C71.0166521 175.80648166 69.03778706 179.97920969 63.33032227 183.47387695 C58.66453565 185.38037738 53.34437309 184.78787205 48.375 184.8125 C47.22 184.84537109 46.065 184.87824219 44.875 184.91210938 C38.70831601 184.95082714 34.05398105 184.58199058 28.79980469 181.23461914 C23.3372341 175.16925469 21.49326366 166.64293836 19.26171875 159.00390625 C18.72911186 157.21206154 18.72911186 157.21206154 18.18574524 155.38401794 C17.4352077 152.85421285 16.68742417 150.32380205 15.94458008 147.79174805 C14.83405844 144.00645505 13.71146104 140.22480104 12.58789062 136.44335938 C9.14021749 124.80866657 5.76284381 113.15818842 2.51953125 101.46484375 C-1.0231963 88.70049711 -4.88017667 76.04202489 -8.79998779 63.38922119 C-10.67499103 57.33637149 -12.53872175 51.28033022 -14.38452148 45.21850586 C-15.00976335 43.17631228 -15.64107744 41.13596911 -16.27807617 39.09741211 C-23.48044091 16.01365951 -23.48044091 16.01365951 -21.875 7.375 C-17.28684385 -1.12158546 -8.4965601 0.00938846 0 0 Z " fill="#FEFEFE" transform="translate(126.875,124.625)"/>
<path d="M0 0 C0.33 0 0.66 0 1 0 C1.13535156 0.77601563 1.27070312 1.55203125 1.41015625 2.3515625 C4.61273735 18.42199942 12.47135594 33.0427924 25.875 42.875 C37.65193375 50.44324896 49.21270791 55.48526975 63.30905151 55.38095093 C64.29734864 55.3856309 65.28564577 55.39031087 66.3038913 55.39513266 C69.58928994 55.40702271 72.87426682 55.39764874 76.15966797 55.38818359 C78.52588137 55.392252 80.89209286 55.39759539 83.25830078 55.40411377 C89.66744844 55.41776254 96.07645083 55.41249829 102.48560095 55.40297651 C106.4935886 55.39763126 110.50156639 55.39865348 114.50955582 55.4014473 C115.17637366 55.401907 115.84319151 55.40236669 116.53021596 55.40284032 C117.88516585 55.40379957 119.24011573 55.40477221 120.59506561 55.4057581 C133.28180638 55.41429974 145.96848198 55.40449784 158.65521206 55.388357 C169.52033678 55.3749611 180.3853653 55.37727826 191.25048828 55.39111328 C203.89089703 55.40720149 216.5312487 55.4134694 229.17166626 55.40427649 C230.52204839 55.40332093 231.87243051 55.40237781 233.22281265 55.4014473 C233.88708891 55.40098447 234.55136518 55.40052164 235.23577102 55.40004479 C239.89702809 55.39746414 244.55822876 55.40195408 249.21947861 55.40888596 C255.50521659 55.417581 261.79077376 55.41148722 268.07649231 55.39420319 C270.3774142 55.39025157 272.67835142 55.39134955 274.97926712 55.39799118 C295.94052129 55.45289643 313.02784201 52.8122296 329.46484375 38.578125 C339.76049 28.10797627 345.63371882 15.14932823 349 1 C351.55271452 3.55271452 351.2578625 5.2290063 351.27856445 8.71240234 C351.26913818 9.48793457 351.25971191 10.2634668 351.25 11.0625 C351.24250732 11.86381348 351.23501465 12.66512695 351.22729492 13.49072266 C350.91423792 31.32622725 348.13642343 45.5252576 337 60 C336.278125 61.010625 335.55625 62.02125 334.8125 63.0625 C323.60186969 75.90574638 305.69219191 83.76796794 289 85 C285.71437697 85.12559052 282.4342813 85.13964959 279.14651489 85.13371277 C277.73757314 85.1371111 277.73757314 85.1371111 276.30016792 85.14057809 C273.18073063 85.14686316 270.06133741 85.14609229 266.94189453 85.14526367 C264.69390813 85.14825855 262.44592223 85.15166184 260.19793701 85.15544128 C254.11113796 85.16425091 248.02435297 85.16661809 241.93754816 85.16725707 C238.13057338 85.16796917 234.32360216 85.17010649 230.51662827 85.17275429 C217.90886351 85.18152055 205.30110897 85.18617525 192.69334199 85.18542381 C191.67603858 85.18536388 191.67603858 85.18536388 190.63818359 85.18530273 C189.95914494 85.18526185 189.28010628 85.18522097 188.58049069 85.18517885 C177.57672396 85.18477243 166.57299146 85.19434397 155.56923462 85.2084411 C144.24613231 85.22283191 132.92305185 85.22952702 121.59993827 85.22884732 C115.25266668 85.22859284 108.90543386 85.23141681 102.55817032 85.24202538 C96.58765269 85.25173263 90.61721072 85.25176751 84.64669037 85.24450874 C82.46186843 85.24346625 80.27704171 85.24580578 78.09222794 85.2518692 C53.31092134 85.31616283 34.87036666 81.80180539 16.5 63.75 C9 56.1038961 9 56.1038961 9 53 C8.34 53 7.68 53 7 53 C-1.17199507 39.06741824 -5.05132051 20.86992584 -1.52832031 4.85595703 C-1.06538576 3.22339578 -0.53985379 1.60876428 0 0 Z " fill="#2C832B" transform="translate(57,331)"/>
<path d="M0 0 C0.33 0 0.66 0 1 0 C4.26659168 17.46681665 4.26659168 17.46681665 0 26 C0 17.42 0 8.84 0 0 Z " fill="#A6D0A7" transform="translate(55,312)"/>
<path d="M0 0 C4.56048012 3.61251516 8.01665146 6.98797445 11 12 C7.54798361 10.52278578 5.35038064 8.56205999 2.75 5.875 C2.04359375 5.15054687 1.3371875 4.42609375 0.609375 3.6796875 C0.07828125 3.12539063 -0.4528125 2.57109375 -1 2 C-0.67 1.34 -0.34 0.68 0 0 Z " fill="#A2C8A1" transform="translate(72,390)"/>
<path d="M0 0 C0.33 0.99 0.66 1.98 1 3 C0.401875 3.556875 -0.19625 4.11375 -0.8125 4.6875 C-3.08939299 6.91774529 -3.08939299 6.91774529 -4.5625 9.6875 C-6 12 -6 12 -9 13 C-6.9690712 7.53211476 -4.98193544 3.26402667 0 0 Z " fill="#B8D3B8" transform="translate(74,56)"/>
</svg>
