<?xml version="1.0" encoding="UTF-8"?>
<svg version="1.1" xmlns="http://www.w3.org/2000/svg" width="1600" height="900">
<path d="M0 0 C30.15833656 -0.06838295 60.31667047 -0.12150065 90.4750674 -0.15319599 C94.03253204 -0.15694828 97.58999653 -0.16083123 101.14746094 -0.16479492 C101.85571202 -0.16558185 102.5639631 -0.16636878 103.29367633 -0.16717956 C114.77366678 -0.18024675 126.25361233 -0.20390777 137.7335761 -0.23145839 C149.50605215 -0.25947615 161.27850462 -0.27616855 173.05101264 -0.28226548 C179.66642199 -0.28618665 186.2817294 -0.29544308 192.89710617 -0.31719017 C199.11698981 -0.33747249 205.33672897 -0.34385058 211.55664253 -0.33932304 C213.8456418 -0.34015196 216.13464563 -0.34616645 218.42361641 -0.35761642 C221.53660972 -0.37243137 224.64904968 -0.36899397 227.76205444 -0.36076355 C229.13654804 -0.37387134 229.13654804 -0.37387134 230.53880918 -0.38724393 C233.05258751 -0.36914349 233.05258751 -0.36914349 237 0 C239.0362766 3.0544149 239.24992759 3.63546671 239.24888897 7.0648737 C239.25348777 7.89517819 239.25808656 8.72548269 239.26282471 9.58094794 C239.25510937 10.94902591 239.25510937 10.94902591 239.24723816 12.34474182 C239.24965257 13.31369587 239.25206699 14.28264993 239.25455457 15.28096622 C239.26021043 18.54227754 239.25151418 21.80339462 239.24291992 25.06469727 C239.24399233 27.39684096 239.24593039 29.72898438 239.24867249 32.06112671 C239.25353032 38.40594851 239.24585363 44.75070025 239.23571944 51.09551358 C239.22784255 57.05249673 239.22855665 63.00947413 239.22899476 68.96646153 C239.22949556 80.76891307 239.22032883 92.57133753 239.20581055 104.3737793 C239.19171958 115.83472182 239.1846399 127.2956405 239.18530273 138.7565918 C239.18534269 139.46259077 239.18538265 140.16858975 239.18542381 140.89598263 C239.18546417 141.60074346 239.18550452 142.30550429 239.1855461 143.03162152 C239.18620048 155.40772708 239.18105762 167.78382281 239.17275429 180.15992546 C239.16921558 185.4362184 239.1673902 190.71250789 239.16686058 195.98880196 C239.16585901 202.19638671 239.15977769 208.40394624 239.14969444 214.61152267 C239.14676364 216.89567727 239.14554524 219.17983476 239.14612198 221.46399117 C239.14660964 224.57010189 239.140987 227.67614103 239.13371277 230.78224182 C239.13526137 231.69652453 239.13680997 232.61080723 239.1384055 233.55279547 C239.11417883 239.77164234 239.11417883 239.77164234 238 242 C159.46 242 80.92 242 0 242 C0 241.34 0 240.68 0 240 C-0.66 240 -1.32 240 -2 240 C-2.85586944 234.08669041 -3.14242485 228.36572941 -3.12698364 222.3956604 C-3.12854363 221.4591862 -3.13010362 220.52271199 -3.13171089 219.55785978 C-3.13568275 216.43650615 -3.13254612 213.3152016 -3.12939453 210.19384766 C-3.13075021 207.94963554 -3.13253108 205.70542364 -3.13470459 203.46121216 C-3.13925754 197.37909539 -3.13749856 191.29699562 -3.1343255 185.21487856 C-3.13179275 178.85234818 -3.13414183 172.48981925 -3.13571167 166.12728882 C-3.1376463 154.76595384 -3.13454187 143.40462749 -3.12945233 132.04329424 C-3.12497841 121.73670406 -3.12576643 111.43012513 -3.13037109 101.12353516 C-3.13571809 89.14979772 -3.13771752 77.17606713 -3.13475883 65.20232809 C-3.13319709 58.86541878 -3.13299965 52.52851724 -3.13629532 46.19160843 C-3.1391742 40.24086353 -3.13719802 34.29014001 -3.13140106 28.33939743 C-3.13007392 26.15037827 -3.13046681 23.96135733 -3.13266373 21.77233887 C-3.13537678 18.79568051 -3.13199225 15.81909162 -3.12698364 12.84243774 C-3.12921436 11.96658417 -3.13144509 11.0907306 -3.13374341 10.18833601 C-3.11415057 4.22830114 -3.11415057 4.22830114 -2 2 C-1.34 2 -0.68 2 0 2 C0 1.34 0 0.68 0 0 Z " fill="#6BA965" transform="translate(35,329)"/>
<path d="M0 0 C3.14186221 -0.29624512 6.08676891 -0.39515939 9.23121643 -0.36749268 C10.20002162 -0.37076152 11.16882682 -0.37403036 12.16698974 -0.37739825 C15.43382972 -0.38471791 18.70022799 -0.37048461 21.96704102 -0.35644531 C24.30065996 -0.35723563 26.63427878 -0.35933117 28.96789551 -0.36264038 C35.32100973 -0.36778943 41.67396292 -0.35420937 48.02705121 -0.33711338 C53.98944351 -0.32363734 59.9518248 -0.32332831 65.9142301 -0.32273683 C77.727273 -0.32104759 89.54025455 -0.30521774 101.35327148 -0.28125 C112.82788604 -0.2579856 124.30246166 -0.24382471 135.77709961 -0.24023438 C136.83734026 -0.23990022 136.83734026 -0.23990022 137.91899992 -0.23955932 C139.34282202 -0.23911674 140.76664412 -0.23867471 142.19046622 -0.23823325 C142.89275184 -0.23801369 143.59503747 -0.23779412 144.31860447 -0.2375679 C145.36929678 -0.23724392 145.36929678 -0.23724392 146.44121519 -0.2369134 C158.01981925 -0.23299285 169.59841547 -0.22029222 181.17701221 -0.20722103 C185.13933014 -0.2031142 189.10164768 -0.20019257 193.06396675 -0.19742584 C199.27810525 -0.19254667 205.49221342 -0.18236676 211.70633698 -0.16798782 C213.99413466 -0.16344998 216.28193644 -0.16062267 218.56973839 -0.15958023 C221.67844553 -0.15784527 224.78707573 -0.14999098 227.89576721 -0.14044189 C229.27258371 -0.14174162 229.27258371 -0.14174162 230.67721468 -0.1430676 C236.88579287 -0.11420713 236.88579287 -0.11420713 238 1 C238.09803662 4.07189424 238.12990812 7.12131989 238.12025452 10.19361877 C238.12153615 11.65885393 238.12153615 11.65885393 238.12284368 13.1536898 C238.12450145 16.45347089 238.11897228 19.75320205 238.11352539 23.05297852 C238.11324356 25.40777587 238.11340118 27.76257331 238.1139679 30.11737061 C238.11425602 36.53240369 238.10835691 42.94741826 238.10139394 49.36244702 C238.09531949 55.38063146 238.09477212 61.39881809 238.09374207 67.41700505 C238.09155123 79.3404255 238.0848903 91.26383912 238.07543945 103.18725586 C238.06626615 114.77254197 238.05918492 126.35782623 238.05493164 137.94311523 C238.05466892 138.65674445 238.05440619 139.37037367 238.05413551 140.10562802 C238.05283051 143.6855504 238.05156679 147.2654728 238.05032361 150.84539521 C238.03995002 180.56360133 238.02225673 210.28180034 238 240 C237.34 240 236.68 240 236 240 C236 240.66 236 241.32 236 242 C157.79 242 79.58 242 -1 242 C-1.90368605 239.28894186 -2.1258902 237.73566594 -2.12863445 234.95353699 C-2.1318589 234.12733258 -2.13508335 233.30112818 -2.1384055 232.44988728 C-2.1368569 231.54240836 -2.1353083 230.63492945 -2.13371277 229.69995117 C-2.13597833 228.73578624 -2.13824388 227.7716213 -2.14057809 226.77823925 C-2.14693072 223.53313706 -2.14608792 220.28807649 -2.14526367 217.04296875 C-2.14825433 214.72229966 -2.15165665 212.40163107 -2.15544128 210.08096313 C-2.16429393 203.76708847 -2.1666199 197.45322735 -2.16725707 191.13934708 C-2.16820502 185.87555262 -2.17188191 180.61176134 -2.17542917 175.3479681 C-2.18311238 163.64431878 -2.18609735 151.94067607 -2.18542381 140.23702443 C-2.18538386 139.53457785 -2.1853439 138.83213127 -2.18530273 138.10839844 C-2.18526185 137.40509679 -2.18522097 136.70179514 -2.18517885 135.97718132 C-2.18477217 124.57243189 -2.19434713 113.16771545 -2.2084411 101.76297557 C-2.22279066 90.0593248 -2.22952877 78.35569165 -2.22884732 66.6520319 C-2.22859176 60.07858365 -2.23147498 53.50517274 -2.24202538 46.93173218 C-2.25167147 40.75285905 -2.25180963 34.5740592 -2.24450874 28.39518356 C-2.24345861 26.12273426 -2.24585098 23.85028047 -2.2518692 21.5778389 C-2.25953162 18.48515464 -2.2549827 15.39272715 -2.24723816 12.30004883 C-2.25238172 11.39256991 -2.25752529 10.485091 -2.26282471 9.55011272 C-2.25822592 8.72390832 -2.25362712 7.89770391 -2.24888897 7.04646301 C-2.24910634 6.33231641 -2.24932371 5.6181698 -2.24954766 4.88238239 C-2 3 -2 3 0 0 Z " fill="#6BA965" transform="translate(811,329)"/>
<path d="M0 0 C78.21 0 156.42 0 237 0 C237.98298652 2.94895957 238.15172334 4.95015485 238.20333862 8.02935791 C238.22287975 9.07223213 238.24242088 10.11510635 238.26255417 11.18958282 C238.27887516 12.33648338 238.29519615 13.48338394 238.31201172 14.66503906 C238.33250202 15.87667473 238.35299232 17.08831039 238.37410355 18.33666229 C238.42870474 21.68931314 238.47841444 25.04195734 238.52496576 28.39472485 C238.55484214 30.52666008 238.58630648 32.65856694 238.61812973 34.79047394 C239.10979622 68.06183411 239.15390571 101.33258734 239.12856936 134.60694265 C239.12419227 141.03078852 239.12736098 147.45461502 239.1321975 153.87845969 C239.13734016 161.00868015 239.13672611 168.1388903 239.13381577 175.26911163 C239.13273016 178.22685411 239.1335898 181.18458499 239.13629532 184.14232635 C239.14779147 198.73070036 239.04513145 213.3066933 238.55419922 227.88769531 C238.51547762 229.08268017 238.47675602 230.27766502 238.43686104 231.50886154 C238.39557013 232.59884068 238.35427921 233.68881981 238.31173706 234.81182861 C238.27592466 235.76943714 238.24011227 236.72704567 238.20321465 237.71367264 C238 240 238 240 237 242 C158.79 242 80.58 242 0 242 C-1.72880015 238.5423997 -1.13622249 234.54311969 -1.12698364 230.73754883 C-1.12854363 229.76536565 -1.13010362 228.79318247 -1.13171089 227.79153919 C-1.13571961 224.51335474 -1.13253172 221.23521609 -1.12939453 217.95703125 C-1.13074863 215.61518323 -1.13252861 213.27333543 -1.13470459 210.93148804 C-1.13927792 204.55563717 -1.13748977 198.17980242 -1.1343255 191.80395126 C-1.13205693 185.81922611 -1.1337848 179.83450245 -1.1352527 173.84977734 C-1.1381067 161.27403656 -1.13482171 148.69830307 -1.12945233 136.12256348 C-1.12498437 125.32356732 -1.12576032 114.52458191 -1.13037109 103.72558594 C-1.13571825 91.19594871 -1.13783202 78.66631786 -1.13475883 66.13667965 C-1.13317538 59.50010407 -1.13300166 52.86353449 -1.13629532 46.22695923 C-1.13917464 39.98902267 -1.13719719 33.7511065 -1.13140106 27.51317215 C-1.1300738 25.21772928 -1.13046701 22.9222847 -1.13266373 20.6268425 C-1.13537653 17.50535521 -1.13199246 14.38393418 -1.12698364 11.26245117 C-1.12921436 10.3435954 -1.13144509 9.42473963 -1.13374341 8.47803974 C-1.11414999 2.22829998 -1.11414999 2.22829998 0 0 Z " fill="#C8B457" transform="translate(1069,329)"/>
<path d="M0 0 C78.21 0 156.42 0 237 0 C238.72350975 3.44701949 238.13623943 7.42418642 238.12698364 11.21775818 C238.12854363 12.18515224 238.13010362 13.1525463 238.13171089 14.14925534 C238.13571959 17.41128634 238.13253172 20.67327133 238.12939453 23.93530273 C238.13074864 26.26567614 238.13252862 28.59604933 238.13470459 30.92642212 C238.13927805 37.2713494 238.13748965 43.6162605 238.1343255 49.96118808 C238.13205673 55.91786232 238.1337849 61.87453454 238.1352527 67.83120883 C238.1381068 80.34927587 238.13482168 92.8673356 238.12945233 105.38540144 C238.1249854 116.13234486 238.12575945 126.87927748 238.13037109 137.6262207 C238.13571989 150.09690388 238.13783101 162.56758064 238.13475883 175.03826481 C238.13319691 181.64301473 238.13299996 188.2477572 238.13629532 194.85250664 C238.13917666 201.06171919 238.13719345 207.27091128 238.13140106 213.48012161 C238.13007483 215.76385654 238.13046528 218.04759318 238.13266373 220.33132744 C238.13538057 223.43932788 238.13198744 226.547262 238.12698364 229.65525818 C238.12921436 230.56731016 238.13144509 231.47936214 238.13374341 232.41905206 C238.13113566 233.24935656 238.12852791 234.07966106 238.12584114 234.9351263 C238.12567879 235.65285274 238.12551644 236.37057918 238.12534916 237.11005491 C238 239 238 239 237 242 C158.79 242 80.58 242 0 242 C-1.78708696 238.42582607 -2.24995211 237.48808284 -2.2332716 233.82769585 C-2.234387 232.99888369 -2.2355024 232.17007154 -2.2366516 231.31614387 C-2.22761709 230.41089568 -2.21858258 229.50564749 -2.20927429 228.57296753 C-2.20760516 227.6072426 -2.20593602 226.64151768 -2.2042163 225.64652836 C-2.19612436 222.4021001 -2.173583 219.15793252 -2.15112305 215.91357422 C-2.14233618 213.59113873 -2.13442262 211.26869979 -2.12731934 208.94625854 C-2.10538888 202.63244684 -2.07083254 196.31876041 -2.03379035 190.00502157 C-2.00066219 184.07580459 -1.97621614 178.14655662 -1.95149157 172.2172996 C-1.90214057 160.47082778 -1.84305734 148.72442491 -1.77856445 136.97802734 C-1.71595036 125.57245424 -1.6603649 114.16687536 -1.61254883 102.76123047 C-1.60960179 102.05848121 -1.60665475 101.35573196 -1.60361841 100.63168727 C-1.60067708 99.9301678 -1.59773575 99.22864833 -1.59470528 98.5058707 C-1.53749077 84.87360097 -1.47263319 71.24137699 -1.40554833 57.60915232 C-1.38667832 53.67125116 -1.36921675 49.73334581 -1.3520565 45.79543686 C-1.32475711 39.61818771 -1.29241383 33.44098501 -1.25609589 27.2637825 C-1.24350484 24.99092229 -1.23261128 22.71805198 -1.22349739 20.44517517 C-1.21080909 17.35442545 -1.19206219 14.26377229 -1.17167664 11.17306519 C-1.16933429 10.26335555 -1.16699194 9.35364591 -1.16457862 8.41636932 C-1.11417993 2.22835986 -1.11417993 2.22835986 0 0 Z " fill="#C8B357" transform="translate(294,329)"/>
<path d="M0 0 C0.99 0.33 1.98 0.66 3 1 C6.046621 1.09654342 9.07023611 1.13463115 12.11695862 1.12698364 C13.06141136 1.12854363 14.00586409 1.13010362 14.97893661 1.13171089 C18.15727875 1.13571327 21.33557349 1.13253417 24.51391602 1.12939453 C26.7869469 1.1307489 29.05997757 1.13252903 31.33300781 1.13470459 C37.51665699 1.13927443 43.70028954 1.13749126 49.88393903 1.1343255 C56.34392674 1.1317999 62.80391299 1.13413997 69.26390076 1.13571167 C80.80827126 1.1376494 92.35263323 1.13453525 103.89700239 1.12945233 C114.37136147 1.12498339 124.84570948 1.12576133 135.32006836 1.13037109 C147.47578846 1.1357183 159.63149987 1.137717 171.78722137 1.13475883 C178.22480945 1.13319646 184.6623899 1.13300124 191.09997749 1.13629532 C197.14996987 1.13917466 203.19994124 1.13719716 209.24993134 1.13140106 C211.47603508 1.13007386 213.70214058 1.1304669 215.92824364 1.13266373 C218.95552834 1.13537675 221.98274473 1.1319922 225.01002502 1.12698364 C226.34643055 1.13032973 226.34643055 1.13032973 227.70983416 1.13374341 C231.99021862 1.24637618 231.99021862 1.24637618 236 0 C237.72880015 3.4576003 237.13622249 7.45688031 237.12698364 11.26245117 C237.12854363 12.23463435 237.13010362 13.20681753 237.13171089 14.20846081 C237.13571961 17.48664526 237.13253172 20.76478391 237.12939453 24.04296875 C237.13074863 26.38481677 237.13252861 28.72666457 237.13470459 31.06851196 C237.13927792 37.44436283 237.13748977 43.82019758 237.1343255 50.19604874 C237.13205693 56.18077389 237.1337848 62.16549755 237.1352527 68.15022266 C237.1381067 80.72596344 237.13482171 93.30169693 237.12945233 105.87743652 C237.12498437 116.67643268 237.12576032 127.47541809 237.13037109 138.27441406 C237.13571825 150.80405129 237.13783202 163.33368214 237.13475883 175.86332035 C237.13317538 182.49989593 237.13300166 189.13646551 237.13629532 195.77304077 C237.13917464 202.01097733 237.13719719 208.2488935 237.13140106 214.48682785 C237.1300738 216.78227072 237.13046701 219.0777153 237.13266373 221.3731575 C237.13537653 224.49464479 237.13199246 227.61606582 237.12698364 230.73754883 C237.12921436 231.6564046 237.13144509 232.57526037 237.13374341 233.52196026 C237.11414999 239.77170002 237.11414999 239.77170002 236 242 C234.35 241.34 232.7 240.68 231 240 C231 240.66 231 241.32 231 242 C154 242 77 242 0 242 C0 241.34 0 240.68 0 240 C-0.99 239.67 -1.98 239.34 -3 239 C-3.06843682 209.41932727 -3.12152853 179.83865828 -3.15319599 150.257923 C-3.15694811 146.76569854 -3.16083108 143.27347423 -3.16479492 139.78125 C-3.16558185 139.08601062 -3.16636878 138.39077124 -3.16717956 137.674464 C-3.18023371 126.41703717 -3.2038876 115.15965629 -3.23145839 103.90225671 C-3.25951235 92.35124134 -3.27595168 80.8002583 -3.28226548 69.24920952 C-3.28618039 62.76110393 -3.29539744 56.27310258 -3.31719017 49.78503036 C-3.33753031 43.68004216 -3.34383875 37.57520129 -3.33932304 31.47018242 C-3.34014935 29.22801475 -3.34612959 26.98584224 -3.35761642 24.74370384 C-3.37252158 21.68465692 -3.36896056 18.62616774 -3.36076355 15.56710815 C-3.36950207 14.67799425 -3.3782406 13.78888035 -3.38724393 12.8728236 C-3.35055362 7.81396303 -2.72494996 4.43024914 0 0 Z " fill="#777B7E" transform="translate(553,329)"/>
<path d="M0 0 C0.57587888 0.16240453 1.15175775 0.32480905 1.7450875 0.49213493 C3.94578717 0.98778986 5.82853421 1.12531634 8.07859993 1.12584114 C9.2904676 1.12975276 9.2904676 1.12975276 10.52681744 1.13374341 C11.40871994 1.13151268 12.29062245 1.12928196 13.19924927 1.12698364 C14.61108468 1.12932363 14.61108468 1.12932363 16.05144203 1.13171089 C19.21285867 1.13570717 22.37422751 1.13253654 25.53564453 1.12939453 C27.79897083 1.13074916 30.0622969 1.13252944 32.32562256 1.13470459 C38.47822181 1.13927106 44.63080432 1.13749271 50.78340387 1.1343255 C57.21268923 1.13179848 63.64197313 1.13414034 70.07125854 1.13571167 C81.55898253 1.13764878 93.04669723 1.13453656 104.53441964 1.12945233 C114.95703224 1.12498241 125.3796337 1.12576234 135.80224609 1.13037109 C147.90047455 1.13571826 159.99869459 1.1377171 172.09692466 1.13475883 C178.50319872 1.13319659 184.90946511 1.13300092 191.31573868 1.13629532 C197.33537564 1.13917458 203.35499149 1.13719732 209.37462616 1.13140106 C211.58944285 1.13007388 213.8042613 1.13046688 216.0190773 1.13266373 C219.0309819 1.13537677 222.04281785 1.13199219 225.05471802 1.12698364 C226.38426394 1.13032973 226.38426394 1.13032973 227.74066937 1.13374341 C232.0053422 1.24430768 232.0053422 1.24430768 236 0 C237.72880015 3.4576003 237.13622249 7.45688031 237.12698364 11.26245117 C237.12854363 12.23463435 237.13010362 13.20681753 237.13171089 14.20846081 C237.13571961 17.48664526 237.13253172 20.76478391 237.12939453 24.04296875 C237.13074863 26.38481677 237.13252861 28.72666457 237.13470459 31.06851196 C237.13927792 37.44436283 237.13748977 43.82019758 237.1343255 50.19604874 C237.13205693 56.18077389 237.1337848 62.16549755 237.1352527 68.15022266 C237.1381067 80.72596344 237.13482171 93.30169693 237.12945233 105.87743652 C237.12498437 116.67643268 237.12576032 127.47541809 237.13037109 138.27441406 C237.13571825 150.80405129 237.13783202 163.33368214 237.13475883 175.86332035 C237.13317538 182.49989593 237.13300166 189.13646551 237.13629532 195.77304077 C237.13917464 202.01097733 237.13719719 208.2488935 237.13140106 214.48682785 C237.1300738 216.78227072 237.13046701 219.0777153 237.13266373 221.3731575 C237.13537653 224.49464479 237.13199246 227.61606582 237.12698364 230.73754883 C237.12921436 231.6564046 237.13144509 232.57526037 237.13374341 233.52196026 C237.11414999 239.77170002 237.11414999 239.77170002 236 242 C158.12 242 80.24 242 0 242 C0 241.34 0 240.68 0 240 C-0.66 240 -1.32 240 -2 240 C-2 161.46 -2 82.92 -2 2 C-1.34 2 -0.68 2 0 2 C0 1.34 0 0.68 0 0 Z " fill="#787C7F" transform="translate(1328,329)"/>
<path d="M0 0 C9.22740351 7.41923424 13.90696302 17.52118276 15.51171875 29.01953125 C15.80478084 33.50265458 15.83675803 37.96546096 15.82421875 42.45703125 C15.84033203 43.60751953 15.85644531 44.75800781 15.87304688 45.94335938 C15.87958533 57.48372525 13.62087919 70.17317441 5.51171875 79.01953125 C4.85171875 79.01953125 4.19171875 79.01953125 3.51171875 79.01953125 C3.27066406 79.61636719 3.02960938 80.21320313 2.78125 80.828125 C-0.16648145 85.91636298 -6.36416027 88.33686871 -11.7578125 90.0703125 C-23.26087405 92.8958608 -34.06452666 93.03820316 -45.04296875 87.80078125 C-53.18722326 82.72823519 -61.33628228 74.41192154 -64.07348633 65.00927734 C-65.73821293 57.37362227 -65.82013467 49.87371771 -65.80078125 42.08203125 C-65.81689453 40.78845703 -65.83300781 39.49488281 -65.84960938 38.16210938 C-65.8563437 24.86182474 -63.44178144 13.42053392 -54.12109375 3.5 C-38.82159043 -10.89269385 -17.19842511 -11.65371174 0 0 Z " fill="#FEFEFC" transform="translate(437.48828125,407.98046875)"/>
<path d="M0 0 C0.85418015 -0.00807175 1.70836029 -0.01614349 2.58842468 -0.02445984 C4.40503914 -0.03831403 6.22167977 -0.04903019 8.03833008 -0.05688477 C9.87597404 -0.06831871 11.71358711 -0.08863147 13.55102539 -0.1184082 C26.2395779 -0.32400709 37.02062339 0.22300145 48.51171875 6.23828125 C48.51171875 6.89828125 48.51171875 7.55828125 48.51171875 8.23828125 C49.13046875 8.27953125 49.74921875 8.32078125 50.38671875 8.36328125 C51.08796875 8.65203125 51.78921875 8.94078125 52.51171875 9.23828125 C53.19197512 11.23369993 53.85662372 13.23446116 54.51171875 15.23828125 C56.59333669 17.53339847 58.69041953 19.5748999 61.09887695 21.52026367 C66.55112223 28.15020146 64.84642438 42.28519707 64.82421875 50.42578125 C64.84033203 51.61880859 64.85644531 52.81183594 64.87304688 54.04101562 C64.87824995 63.50541728 63.86698025 71.84659434 58.07421875 79.61328125 C57.49800781 80.40476562 56.92179688 81.19625 56.328125 82.01171875 C51.52376694 87.90093185 51.52376694 87.90093185 47.51171875 89.23828125 C47.18171875 89.89828125 46.85171875 90.55828125 46.51171875 91.23828125 C44.65625 92.2734375 44.65625 92.2734375 42.32421875 93.30078125 C41.56753906 93.64238281 40.81085937 93.98398437 40.03125 94.3359375 C34.12169593 96.45238245 28.18539134 96.38562508 21.9921875 96.37109375 C21.09301102 96.37205048 20.19383453 96.3730072 19.26741028 96.37399292 C17.37724741 96.37467072 15.48708217 96.37284445 13.59692383 96.36865234 C10.69151669 96.36326697 7.78626194 96.36862689 4.88085938 96.375 C3.04296841 96.37433976 1.20507753 96.37305973 -0.6328125 96.37109375 C-1.94207451 96.3741301 -1.94207451 96.3741301 -3.27778625 96.37722778 C-9.37331007 96.35325243 -9.37331007 96.35325243 -10.48828125 95.23828125 C-10.58353492 92.3163346 -10.61380861 89.41807796 -10.60180664 86.49584961 C-10.60195267 85.57886795 -10.60209869 84.66188629 -10.60224915 83.71711731 C-10.60154965 80.67076289 -10.59375553 77.6244688 -10.5859375 74.578125 C-10.58407345 72.47205132 -10.58264949 70.36597722 -10.58164978 68.25990295 C-10.57782356 62.70485242 -10.56799239 57.14982784 -10.5569458 51.5947876 C-10.54673392 45.93103385 -10.54215264 40.26727592 -10.53710938 34.60351562 C-10.52637021 23.4817594 -10.50929255 12.36002248 -10.48828125 1.23828125 C-7.21684871 -0.39743502 -3.59729176 0.03225472 0 0 Z " fill="#F8FAF7" transform="translate(901.48828125,401.76171875)"/>
<path d="M0 0 C6.6 0 13.2 0 20 0 C21.52731899 3.81829748 22.38815468 6.49874578 23 10.4375 C23.2475 12.00951172 23.2475 12.00951172 23.5 13.61328125 C24.17700073 18.19890341 24.82054875 22.78872905 25.4375 27.3828125 C26.73488491 35.72571825 28.64338264 43.92202583 30.625 52.125 C30.85445312 53.08148438 31.08390625 54.03796875 31.3203125 55.0234375 C31.87853538 57.34936615 32.43845244 59.67487222 33 62 C34.15328035 57.981265 35.296283 53.95967577 36.4375 49.9375 C36.76298828 48.80376953 37.08847656 47.67003906 37.42382812 46.50195312 C39.35821537 39.82782529 39.35821537 39.82782529 40.59765625 33.00390625 C40.99897653 30.00764123 41.82328446 27.76662891 43 25 C43.48859042 23.17449734 43.94527167 21.34024838 44.375 19.5 C45.97447293 12.90525007 47.96013538 6.47129465 50 0 C55.28 0 60.56 0 66 0 C66.50660156 1.82724609 66.50660156 1.82724609 67.0234375 3.69140625 C67.47394436 5.31510804 67.92446597 6.93880574 68.375 8.5625 C68.59671875 9.36236328 68.8184375 10.16222656 69.046875 10.98632812 C70.34498149 15.66332943 71.66374734 20.33372087 73 25 C75.72890662 34.61790627 78.37363558 44.24737541 80.74365234 53.96069336 C81.40946835 56.68374639 82.11285469 59.33856407 83 62 C86.91242329 44.83258684 86.91242329 44.83258684 89.640625 27.44921875 C90 25 90 25 91 23 C91.22467831 21.46331135 91.40796805 19.92031946 91.5625 18.375 C91.68818359 17.14910156 91.68818359 17.14910156 91.81640625 15.8984375 C91.87699219 15.27195312 91.93757813 14.64546875 92 14 C92.66 14 93.32 14 94 14 C93.97679687 13.40832031 93.95359375 12.81664062 93.9296875 12.20703125 C93.91164063 11.41683594 93.89359375 10.62664062 93.875 9.8125 C93.85179687 9.03519531 93.82859375 8.25789063 93.8046875 7.45703125 C94 5 94 5 96 0 C102.6 0 109.2 0 116 0 C115.03978026 7.76177621 113.80334107 14.92080931 111.73808289 22.45785522 C109.06801079 32.29842774 106.85893498 42.254689 104.5625 52.1875 C101.17371628 66.82765563 97.68404297 81.43098069 94 96 C88.06 96 82.12 96 76 96 C72.96658225 89.09635961 71.10769481 82.51259249 69.7109375 75.1015625 C69.08691841 72.37919348 68.28634407 70.43924996 67 68 C66.7834375 66.4221875 66.7834375 66.4221875 66.5625 64.8125 C66.00889353 61.06027834 65.00804503 57.89242421 63.7578125 54.3359375 C62.76239299 51.26758253 62.1268194 48.16318771 61.47265625 45.0078125 C60.89637049 42.55978869 59.95593204 40.32154923 59 38 C59 37.01 59 36.02 59 35 C58.01 35 57.02 35 56 35 C55.89042969 35.7734375 55.78085938 36.546875 55.66796875 37.34375 C54.21502052 46.88832046 54.21502052 46.88832046 52.5625 50.75 C51.05085417 54.42113986 50.41080748 58.02535753 49.75 61.9375 C47.78674495 73.51785947 44.27312949 84.73684757 41 96 C34.73 96 28.46 96 22 96 C20.5925098 91.07378429 19.24097514 86.15561134 18 81.1875 C17.7361853 80.13429565 17.7361853 80.13429565 17.46704102 79.05981445 C16.3412357 74.51423822 15.36495891 69.96219207 14.5 65.359375 C13.93176203 62.67800209 13.19426884 60.07163769 12.4375 57.4375 C11.28304984 53.33342968 10.62188834 49.43277389 10.2421875 45.1953125 C9.74074192 40.64995096 8.89305552 36.04550477 7.05859375 31.84375 C5.53202271 27.74285069 4.81260666 23.54157895 4 19.25 C3.66763466 17.52585478 3.33430687 15.80189481 3 14.078125 C2.855625 13.31918945 2.71125 12.56025391 2.5625 11.77832031 C1.76520082 7.84027142 0.87161554 3.92226993 0 0 Z " fill="#FAFCF8" transform="translate(96,402)"/>
<path d="M0 0 C48 0 48 0 58 6 C58 6.66 58 7.32 58 8 C58.598125 8.268125 59.19625 8.53625 59.8125 8.8125 C64.43913198 11.32410022 65.92509061 14.44750337 67.421875 19.3359375 C69.03963604 26.79075525 68.87382563 33.68970893 65.265625 40.4765625 C63.72938791 42.32573678 62.15349176 42.98222398 60 44 C58.90833725 45.93330603 58.90833725 45.93330603 58 48 C56.375 49.75 56.375 49.75 55 51 C55.53625 51.061875 56.0725 51.12375 56.625 51.1875 C61.35939307 52.80716079 64.2944334 55.83216563 66.8125 60 C69.29877474 66.28111513 69.27485624 72.56166512 69.4296875 79.23046875 C69.64381304 84.53899772 70.74993499 88.19905916 73 93 C73 93.99 73 94.98 73 96 C69.72963272 96.14510162 66.46008993 96.23399373 63.1875 96.3125 C62.25873047 96.35439453 61.32996094 96.39628906 60.37304688 96.43945312 C57.8291767 96.48537136 55.50294339 96.45974784 53 96 C47.65740832 90.47630351 48.74790391 80.88063572 48.65820312 73.6328125 C48.46679152 68.3445104 47.57461464 65.15034904 44 61 C41.04022967 59.1755217 38.68510516 58.71865789 35.234375 58.5859375 C34.43225586 58.55032715 33.63013672 58.5147168 32.80371094 58.47802734 C31.29212402 58.42702881 31.29212402 58.42702881 29.75 58.375 C26.5325 58.25125 23.315 58.1275 20 58 C20 70.54 20 83.08 20 96 C13.4 96 6.8 96 0 96 C0 64.32 0 32.64 0 0 Z " fill="#F9FBF8" transform="translate(634,402)"/>
<path d="M0 0 C15.0665625 -0.0309375 15.0665625 -0.0309375 30.4375 -0.0625 C33.6130249 -0.071604 36.7885498 -0.08070801 40.06030273 -0.09008789 C42.55973264 -0.09300677 45.05916302 -0.09555539 47.55859375 -0.09765625 C48.87057739 -0.10277222 50.18256104 -0.10788818 51.53430176 -0.11315918 C53.39182068 -0.11334045 53.39182068 -0.11334045 55.28686523 -0.11352539 C56.36830307 -0.115746 57.44974091 -0.11796661 58.56394958 -0.12025452 C61 0 61 0 62 1 C62.0989294 3.16480797 62.129711 5.33293785 62.125 7.5 C62.12886719 9.27890625 62.12886719 9.27890625 62.1328125 11.09375 C62 14 62 14 61 15 C57.97022196 15.08871273 54.96332978 15.1151935 51.93359375 15.09765625 C51.02497086 15.0962413 50.11634796 15.09482635 49.18019104 15.09336853 C46.26592779 15.08775193 43.35174019 15.07519665 40.4375 15.0625 C38.46679798 15.05748714 36.49609476 15.05292386 34.52539062 15.04882812 C29.68356441 15.03777711 24.84179505 15.02050138 20 15 C20.00785522 15.87736816 20.00785522 15.87736816 20.01586914 16.77246094 C20.03670158 19.43162963 20.04968007 22.09078111 20.0625 24.75 C20.07087891 25.67039062 20.07925781 26.59078125 20.08789062 27.5390625 C20.09272461 28.87324219 20.09272461 28.87324219 20.09765625 30.234375 C20.10551147 31.45979004 20.10551147 31.45979004 20.11352539 32.70996094 C20 35 20 35 19 39 C30.88 39 42.76 39 55 39 C55 43.95 55 48.9 55 54 C43.45 54 31.9 54 20 54 C20 62.91 20 71.82 20 81 C33.86 81 47.72 81 62 81 C62 85.95 62 90.9 62 96 C41.54 96 21.08 96 0 96 C0 64.32 0 32.64 0 0 Z " fill="#F8FAF7" transform="translate(1415,402)"/>
<path d="M0 0 C6.6 0 13.2 0 20 0 C20 26.73 20 53.46 20 81 C33.86 81 47.72 81 62 81 C62.84046417 84.36185666 63.13504864 86.78603588 63.125 90.1875 C63.12886719 91.50814453 63.12886719 91.50814453 63.1328125 92.85546875 C63 95 63 95 62 96 C60.10301151 96.09915795 58.20231213 96.12799314 56.30273438 96.12939453 C55.08477173 96.13254669 53.86680908 96.13569885 52.61193848 96.13894653 C51.27254195 96.13715675 49.93314576 96.1351058 48.59375 96.1328125 C47.2299396 96.1334856 45.86612932 96.13445567 44.50231934 96.13571167 C41.64069479 96.13718838 38.7791014 96.13503497 35.91748047 96.13037109 C32.24181386 96.12467381 28.56622026 96.12795296 24.89055634 96.13394356 C22.07337896 96.13754991 19.25621902 96.13641025 16.43904114 96.13381577 C15.08339937 96.1331467 13.72775604 96.13397421 12.37211609 96.13629532 C10.48049956 96.13882301 8.58887751 96.13429014 6.69726562 96.12939453 C5.07963318 96.12820114 5.07963318 96.12820114 3.42932129 96.12698364 C1 96 1 96 0 95 C-0.09526806 92.04753646 -0.12552452 89.11851579 -0.11352539 86.16577148 C-0.11367142 85.23903625 -0.11381744 84.31230103 -0.1139679 83.35748291 C-0.11326838 80.27866313 -0.10547421 77.19990303 -0.09765625 74.12109375 C-0.09579221 71.99259982 -0.09436824 69.86410547 -0.09336853 67.73561096 C-0.08954228 62.1213768 -0.07971108 56.50716832 -0.06866455 50.89294434 C-0.05845273 45.16886747 -0.0538714 39.44478647 -0.04882812 33.72070312 C-0.0380889 22.48045562 -0.02049124 11.24023396 0 0 Z " fill="#FEFEFB" transform="translate(1156,402)"/>
<path d="M0 0 C30.15833656 -0.06838295 60.31667047 -0.12150065 90.4750674 -0.15319599 C94.03253204 -0.15694828 97.58999653 -0.16083123 101.14746094 -0.16479492 C101.85571202 -0.16558185 102.5639631 -0.16636878 103.29367633 -0.16717956 C114.77366678 -0.18024675 126.25361233 -0.20390777 137.7335761 -0.23145839 C149.50605215 -0.25947615 161.27850462 -0.27616855 173.05101264 -0.28226548 C179.66642199 -0.28618665 186.2817294 -0.29544308 192.89710617 -0.31719017 C199.11698981 -0.33747249 205.33672897 -0.34385058 211.55664253 -0.33932304 C213.8456418 -0.34015196 216.13464563 -0.34616645 218.42361641 -0.35761642 C221.53660972 -0.37243137 224.64904968 -0.36899397 227.76205444 -0.36076355 C229.13654804 -0.37387134 229.13654804 -0.37387134 230.53880918 -0.38724393 C233.05258751 -0.36914349 233.05258751 -0.36914349 237 0 C239.0362766 3.0544149 239.24992759 3.63546671 239.24888897 7.0648737 C239.25348777 7.89517819 239.25808656 8.72548269 239.26282471 9.58094794 C239.25510937 10.94902591 239.25510937 10.94902591 239.24723816 12.34474182 C239.24965257 13.31369587 239.25206699 14.28264993 239.25455457 15.28096622 C239.26021043 18.54227754 239.25151418 21.80339462 239.24291992 25.06469727 C239.24399233 27.39684096 239.24593039 29.72898438 239.24867249 32.06112671 C239.25353032 38.40594851 239.24585363 44.75070025 239.23571944 51.09551358 C239.22784255 57.05249673 239.22855665 63.00947413 239.22899476 68.96646153 C239.22949556 80.76891307 239.22032883 92.57133753 239.20581055 104.3737793 C239.19171958 115.83472182 239.1846399 127.2956405 239.18530273 138.7565918 C239.18534269 139.46259077 239.18538265 140.16858975 239.18542381 140.89598263 C239.18546417 141.60074346 239.18550452 142.30550429 239.1855461 143.03162152 C239.18620048 155.40772708 239.18105762 167.78382281 239.17275429 180.15992546 C239.16921558 185.4362184 239.1673902 190.71250789 239.16686058 195.98880196 C239.16585901 202.19638671 239.15977769 208.40394624 239.14969444 214.61152267 C239.14676364 216.89567727 239.14554524 219.17983476 239.14612198 221.46399117 C239.14660964 224.57010189 239.140987 227.67614103 239.13371277 230.78224182 C239.13526137 231.69652453 239.13680997 232.61080723 239.1384055 233.55279547 C239.11417883 239.77164234 239.11417883 239.77164234 238 242 C159.46 242 80.92 242 0 242 C0 241.34 0 240.68 0 240 C-0.66 240 -1.32 240 -2 240 C-2.85586944 234.08669041 -3.14242485 228.36572941 -3.12698364 222.3956604 C-3.12854363 221.4591862 -3.13010362 220.52271199 -3.13171089 219.55785978 C-3.13568275 216.43650615 -3.13254612 213.3152016 -3.12939453 210.19384766 C-3.13075021 207.94963554 -3.13253108 205.70542364 -3.13470459 203.46121216 C-3.13925754 197.37909539 -3.13749856 191.29699562 -3.1343255 185.21487856 C-3.13179275 178.85234818 -3.13414183 172.48981925 -3.13571167 166.12728882 C-3.1376463 154.76595384 -3.13454187 143.40462749 -3.12945233 132.04329424 C-3.12497841 121.73670406 -3.12576643 111.43012513 -3.13037109 101.12353516 C-3.13571809 89.14979772 -3.13771752 77.17606713 -3.13475883 65.20232809 C-3.13319709 58.86541878 -3.13299965 52.52851724 -3.13629532 46.19160843 C-3.1391742 40.24086353 -3.13719802 34.29014001 -3.13140106 28.33939743 C-3.13007392 26.15037827 -3.13046681 23.96135733 -3.13266373 21.77233887 C-3.13537678 18.79568051 -3.13199225 15.81909162 -3.12698364 12.84243774 C-3.12921436 11.96658417 -3.13144509 11.0907306 -3.13374341 10.18833601 C-3.11415057 4.22830114 -3.11415057 4.22830114 -2 2 C-1.34 2 -0.68 2 0 2 C0 1.34 0 0.68 0 0 Z M1 2 C1 80.21 1 158.42 1 239 C78.88 239 156.76 239 237 239 C237.020625 200.080625 237.04125 161.16125 237.0625 121.0625 C237.071604 108.75074463 237.08070801 96.43898926 237.09008789 83.75415039 C237.09343128 72.76634993 237.09343128 72.76634993 237.09544373 61.77854919 C237.09637947 56.86525526 237.10014312 51.95197201 237.10557556 47.03868103 C237.11239983 40.7843844 237.11449766 34.53010346 237.11307228 28.27580345 C237.11337063 25.97241245 237.11537403 23.66902094 237.11921513 21.36563313 C237.12413979 18.27031084 237.12300816 15.17505069 237.12025452 12.07972717 C237.12462351 10.7070904 237.12462351 10.7070904 237.12908077 9.30672359 C237.51851585 5.33680642 237.51851585 5.33680642 236 2 C232.97860437 1.90198697 229.98004102 1.87008625 226.95823669 1.87974548 C226.00007553 1.87888947 225.04191437 1.87803345 224.05471802 1.87715149 C220.80786323 1.87548565 217.56105912 1.88103712 214.31420898 1.88647461 C211.96119469 1.88678069 209.60818031 1.88664789 207.25516605 1.88610935 C200.92979993 1.88588275 194.60445256 1.89169628 188.27909088 1.89871979 C182.35276731 1.90439697 176.42644841 1.90468194 170.50012207 1.90539551 C153.14591221 1.91065165 135.79170587 1.92461268 118.4375 1.9375 C60.3059375 1.9684375 60.3059375 1.9684375 1 2 Z " fill="#C8D6C6" transform="translate(35,329)"/>
<path d="M0 0 C5.0970541 1.9749036 9.18609032 5.31015053 12 10 C15.3397489 18.06222854 15.45445874 25.94122701 15.375 34.5625 C15.38660156 35.82513672 15.39820313 37.08777344 15.41015625 38.38867188 C15.38221697 47.30595952 14.91869571 55.5884782 8.625 62.4375 C8.06039062 63.07558594 7.49578125 63.71367187 6.9140625 64.37109375 C2.15915301 68.41761877 -2.98784894 68.48961533 -8.98828125 68.37890625 C-15.02617683 67.61927477 -18.58556952 64.71220532 -22.375 60.125 C-26.37346498 52.43564427 -26.37252459 44.79446471 -26.37060547 36.34936523 C-26.3749689 34.20279963 -26.41132868 32.05831116 -26.44921875 29.91210938 C-26.52517057 20.86000338 -25.97056688 12.74220535 -19.9296875 5.52734375 C-19.25164062 5.00269531 -18.57359375 4.47804688 -17.875 3.9375 C-16.85019531 3.11572266 -16.85019531 3.11572266 -15.8046875 2.27734375 C-11.02577545 -1.10513296 -5.65460736 -0.6306517 0 0 Z " fill="#C9B356" transform="translate(418,416)"/>
<path d="M0 0 C78.21 0 156.42 0 237 0 C237.98298652 2.94895957 238.15172334 4.95015485 238.20333862 8.02935791 C238.22287975 9.07223213 238.24242088 10.11510635 238.26255417 11.18958282 C238.27887516 12.33648338 238.29519615 13.48338394 238.31201172 14.66503906 C238.33250202 15.87667473 238.35299232 17.08831039 238.37410355 18.33666229 C238.42870474 21.68931314 238.47841444 25.04195734 238.52496576 28.39472485 C238.55484214 30.52666008 238.58630648 32.65856694 238.61812973 34.79047394 C239.10979622 68.06183411 239.15390571 101.33258734 239.12856936 134.60694265 C239.12419227 141.03078852 239.12736098 147.45461502 239.1321975 153.87845969 C239.13734016 161.00868015 239.13672611 168.1388903 239.13381577 175.26911163 C239.13273016 178.22685411 239.1335898 181.18458499 239.13629532 184.14232635 C239.14779147 198.73070036 239.04513145 213.3066933 238.55419922 227.88769531 C238.51547762 229.08268017 238.47675602 230.27766502 238.43686104 231.50886154 C238.39557013 232.59884068 238.35427921 233.68881981 238.31173706 234.81182861 C238.27592466 235.76943714 238.24011227 236.72704567 238.20321465 237.71367264 C238 240 238 240 237 242 C158.79 242 80.58 242 0 242 C-1.72880015 238.5423997 -1.13622249 234.54311969 -1.12698364 230.73754883 C-1.12854363 229.76536565 -1.13010362 228.79318247 -1.13171089 227.79153919 C-1.13571961 224.51335474 -1.13253172 221.23521609 -1.12939453 217.95703125 C-1.13074863 215.61518323 -1.13252861 213.27333543 -1.13470459 210.93148804 C-1.13927792 204.55563717 -1.13748977 198.17980242 -1.1343255 191.80395126 C-1.13205693 185.81922611 -1.1337848 179.83450245 -1.1352527 173.84977734 C-1.1381067 161.27403656 -1.13482171 148.69830307 -1.12945233 136.12256348 C-1.12498437 125.32356732 -1.12576032 114.52458191 -1.13037109 103.72558594 C-1.13571825 91.19594871 -1.13783202 78.66631786 -1.13475883 66.13667965 C-1.13317538 59.50010407 -1.13300166 52.86353449 -1.13629532 46.22695923 C-1.13917464 39.98902267 -1.13719719 33.7511065 -1.13140106 27.51317215 C-1.1300738 25.21772928 -1.13046701 22.9222847 -1.13266373 20.6268425 C-1.13537653 17.50535521 -1.13199246 14.38393418 -1.12698364 11.26245117 C-1.12921436 10.3435954 -1.13144509 9.42473963 -1.13374341 8.47803974 C-1.11414999 2.22829998 -1.11414999 2.22829998 0 0 Z M1 3 C1 80.88 1 158.76 1 239 C78.55 239 156.1 239 236 239 C236 161.12 236 83.24 236 3 C158.45 3 80.9 3 1 3 Z " fill="#E6E0C2" transform="translate(1069,329)"/>
<path d="M0 0 C78.21 0 156.42 0 237 0 C238.72350975 3.44701949 238.13623943 7.42418642 238.12698364 11.21775818 C238.12854363 12.18515224 238.13010362 13.1525463 238.13171089 14.14925534 C238.13571959 17.41128634 238.13253172 20.67327133 238.12939453 23.93530273 C238.13074864 26.26567614 238.13252862 28.59604933 238.13470459 30.92642212 C238.13927805 37.2713494 238.13748965 43.6162605 238.1343255 49.96118808 C238.13205673 55.91786232 238.1337849 61.87453454 238.1352527 67.83120883 C238.1381068 80.34927587 238.13482168 92.8673356 238.12945233 105.38540144 C238.1249854 116.13234486 238.12575945 126.87927748 238.13037109 137.6262207 C238.13571989 150.09690388 238.13783101 162.56758064 238.13475883 175.03826481 C238.13319691 181.64301473 238.13299996 188.2477572 238.13629532 194.85250664 C238.13917666 201.06171919 238.13719345 207.27091128 238.13140106 213.48012161 C238.13007483 215.76385654 238.13046528 218.04759318 238.13266373 220.33132744 C238.13538057 223.43932788 238.13198744 226.547262 238.12698364 229.65525818 C238.12921436 230.56731016 238.13144509 231.47936214 238.13374341 232.41905206 C238.13113566 233.24935656 238.12852791 234.07966106 238.12584114 234.9351263 C238.12567879 235.65285274 238.12551644 236.37057918 238.12534916 237.11005491 C238 239 238 239 237 242 C158.79 242 80.58 242 0 242 C-1.78708696 238.42582607 -2.24995211 237.48808284 -2.2332716 233.82769585 C-2.234387 232.99888369 -2.2355024 232.17007154 -2.2366516 231.31614387 C-2.22761709 230.41089568 -2.21858258 229.50564749 -2.20927429 228.57296753 C-2.20760516 227.6072426 -2.20593602 226.64151768 -2.2042163 225.64652836 C-2.19612436 222.4021001 -2.173583 219.15793252 -2.15112305 215.91357422 C-2.14233618 213.59113873 -2.13442262 211.26869979 -2.12731934 208.94625854 C-2.10538888 202.63244684 -2.07083254 196.31876041 -2.03379035 190.00502157 C-2.00066219 184.07580459 -1.97621614 178.14655662 -1.95149157 172.2172996 C-1.90214057 160.47082778 -1.84305734 148.72442491 -1.77856445 136.97802734 C-1.71595036 125.57245424 -1.6603649 114.16687536 -1.61254883 102.76123047 C-1.60960179 102.05848121 -1.60665475 101.35573196 -1.60361841 100.63168727 C-1.60067708 99.9301678 -1.59773575 99.22864833 -1.59470528 98.5058707 C-1.53749077 84.87360097 -1.47263319 71.24137699 -1.40554833 57.60915232 C-1.38667832 53.67125116 -1.36921675 49.73334581 -1.3520565 45.79543686 C-1.32475711 39.61818771 -1.29241383 33.44098501 -1.25609589 27.2637825 C-1.24350484 24.99092229 -1.23261128 22.71805198 -1.22349739 20.44517517 C-1.21080909 17.35442545 -1.19206219 14.26377229 -1.17167664 11.17306519 C-1.16933429 10.26335555 -1.16699194 9.35364591 -1.16457862 8.41636932 C-1.11417993 2.22835986 -1.11417993 2.22835986 0 0 Z M1 3 C1 80.88 1 158.76 1 239 C78.55 239 156.1 239 236 239 C236 161.12 236 83.24 236 3 C158.45 3 80.9 3 1 3 Z " fill="#E2DBB7" transform="translate(294,329)"/>
<path d="M0 0 C3.14186221 -0.29624512 6.08676891 -0.39515939 9.23121643 -0.36749268 C10.20002162 -0.37076152 11.16882682 -0.37403036 12.16698974 -0.37739825 C15.43382972 -0.38471791 18.70022799 -0.37048461 21.96704102 -0.35644531 C24.30065996 -0.35723563 26.63427878 -0.35933117 28.96789551 -0.36264038 C35.32100973 -0.36778943 41.67396292 -0.35420937 48.02705121 -0.33711338 C53.98944351 -0.32363734 59.9518248 -0.32332831 65.9142301 -0.32273683 C77.727273 -0.32104759 89.54025455 -0.30521774 101.35327148 -0.28125 C112.82788604 -0.2579856 124.30246166 -0.24382471 135.77709961 -0.24023438 C136.83734026 -0.23990022 136.83734026 -0.23990022 137.91899992 -0.23955932 C139.34282202 -0.23911674 140.76664412 -0.23867471 142.19046622 -0.23823325 C142.89275184 -0.23801369 143.59503747 -0.23779412 144.31860447 -0.2375679 C145.36929678 -0.23724392 145.36929678 -0.23724392 146.44121519 -0.2369134 C158.01981925 -0.23299285 169.59841547 -0.22029222 181.17701221 -0.20722103 C185.13933014 -0.2031142 189.10164768 -0.20019257 193.06396675 -0.19742584 C199.27810525 -0.19254667 205.49221342 -0.18236676 211.70633698 -0.16798782 C213.99413466 -0.16344998 216.28193644 -0.16062267 218.56973839 -0.15958023 C221.67844553 -0.15784527 224.78707573 -0.14999098 227.89576721 -0.14044189 C229.27258371 -0.14174162 229.27258371 -0.14174162 230.67721468 -0.1430676 C236.88579287 -0.11420713 236.88579287 -0.11420713 238 1 C238.09803662 4.07189424 238.12990812 7.12131989 238.12025452 10.19361877 C238.12153615 11.65885393 238.12153615 11.65885393 238.12284368 13.1536898 C238.12450145 16.45347089 238.11897228 19.75320205 238.11352539 23.05297852 C238.11324356 25.40777587 238.11340118 27.76257331 238.1139679 30.11737061 C238.11425602 36.53240369 238.10835691 42.94741826 238.10139394 49.36244702 C238.09531949 55.38063146 238.09477212 61.39881809 238.09374207 67.41700505 C238.09155123 79.3404255 238.0848903 91.26383912 238.07543945 103.18725586 C238.06626615 114.77254197 238.05918492 126.35782623 238.05493164 137.94311523 C238.05466892 138.65674445 238.05440619 139.37037367 238.05413551 140.10562802 C238.05283051 143.6855504 238.05156679 147.2654728 238.05032361 150.84539521 C238.03995002 180.56360133 238.02225673 210.28180034 238 240 C237.34 240 236.68 240 236 240 C236 240.66 236 241.32 236 242 C157.79 242 79.58 242 -1 242 C-1.90368605 239.28894186 -2.1258902 237.73566594 -2.12863445 234.95353699 C-2.1318589 234.12733258 -2.13508335 233.30112818 -2.1384055 232.44988728 C-2.1368569 231.54240836 -2.1353083 230.63492945 -2.13371277 229.69995117 C-2.13597833 228.73578624 -2.13824388 227.7716213 -2.14057809 226.77823925 C-2.14693072 223.53313706 -2.14608792 220.28807649 -2.14526367 217.04296875 C-2.14825433 214.72229966 -2.15165665 212.40163107 -2.15544128 210.08096313 C-2.16429393 203.76708847 -2.1666199 197.45322735 -2.16725707 191.13934708 C-2.16820502 185.87555262 -2.17188191 180.61176134 -2.17542917 175.3479681 C-2.18311238 163.64431878 -2.18609735 151.94067607 -2.18542381 140.23702443 C-2.18538386 139.53457785 -2.1853439 138.83213127 -2.18530273 138.10839844 C-2.18526185 137.40509679 -2.18522097 136.70179514 -2.18517885 135.97718132 C-2.18477217 124.57243189 -2.19434713 113.16771545 -2.2084411 101.76297557 C-2.22279066 90.0593248 -2.22952877 78.35569165 -2.22884732 66.6520319 C-2.22859176 60.07858365 -2.23147498 53.50517274 -2.24202538 46.93173218 C-2.25167147 40.75285905 -2.25180963 34.5740592 -2.24450874 28.39518356 C-2.24345861 26.12273426 -2.24585098 23.85028047 -2.2518692 21.5778389 C-2.25953162 18.48515464 -2.2549827 15.39272715 -2.24723816 12.30004883 C-2.25238172 11.39256991 -2.25752529 10.485091 -2.26282471 9.55011272 C-2.25822592 8.72390832 -2.25362712 7.89770391 -2.24888897 7.04646301 C-2.24910634 6.33231641 -2.24932371 5.6181698 -2.24954766 4.88238239 C-2 3 -2 3 0 0 Z M0 2 C0 80.21 0 158.42 0 239 C77.88 239 155.76 239 236 239 C236 160.79 236 82.58 236 2 C158.12 2 80.24 2 0 2 Z " fill="#DBE4DA" transform="translate(811,329)"/>
<path d="M0 0 C3.08464583 2.97406419 4.27134691 5.84612684 5.0703125 9.99609375 C5.24820313 10.85074219 5.42609375 11.70539063 5.609375 12.5859375 C7.27056307 24.87591361 8.21161852 40.83290963 2.0703125 51.99609375 C-1.98029367 56.01355257 -7.02950973 59.77392265 -12.92260742 60.10961914 C-13.66099854 60.10438232 -14.39938965 60.09914551 -15.16015625 60.09375 C-15.96259766 60.09052734 -16.76503906 60.08730469 -17.59179688 60.08398438 C-18.42517578 60.07560547 -19.25855469 60.06722656 -20.1171875 60.05859375 C-20.96216797 60.05408203 -21.80714844 60.04957031 -22.67773438 60.04492188 C-24.76174905 60.03314778 -26.84572727 60.01521265 -28.9296875 59.99609375 C-28.97597375 51.68608583 -29.0115377 43.37613154 -29.03331184 35.06602669 C-29.04376093 31.20754578 -29.0579405 27.3491529 -29.08056641 23.49072266 C-29.1022549 19.76897183 -29.11424764 16.04730581 -29.11944199 12.32549667 C-29.12314495 10.90368184 -29.13037569 9.48187178 -29.14114761 8.06009293 C-29.15560869 6.07282261 -29.15650396 4.08546744 -29.15673828 2.09814453 C-29.1611795 0.96563263 -29.16562073 -0.16687927 -29.17019653 -1.33370972 C-28.9296875 -4.00390625 -28.9296875 -4.00390625 -26.9296875 -6.00390625 C-17.02073427 -8.65198858 -8.01238072 -6.04068202 0 0 Z " fill="#6CA965" transform="translate(940.9296875,423.00390625)"/>
<path d="M0 0 C0.99 0.33 1.98 0.66 3 1 C6.046621 1.09654342 9.07023611 1.13463115 12.11695862 1.12698364 C13.06141136 1.12854363 14.00586409 1.13010362 14.97893661 1.13171089 C18.15727875 1.13571327 21.33557349 1.13253417 24.51391602 1.12939453 C26.7869469 1.1307489 29.05997757 1.13252903 31.33300781 1.13470459 C37.51665699 1.13927443 43.70028954 1.13749126 49.88393903 1.1343255 C56.34392674 1.1317999 62.80391299 1.13413997 69.26390076 1.13571167 C80.80827126 1.1376494 92.35263323 1.13453525 103.89700239 1.12945233 C114.37136147 1.12498339 124.84570948 1.12576133 135.32006836 1.13037109 C147.47578846 1.1357183 159.63149987 1.137717 171.78722137 1.13475883 C178.22480945 1.13319646 184.6623899 1.13300124 191.09997749 1.13629532 C197.14996987 1.13917466 203.19994124 1.13719716 209.24993134 1.13140106 C211.47603508 1.13007386 213.70214058 1.1304669 215.92824364 1.13266373 C218.95552834 1.13537675 221.98274473 1.1319922 225.01002502 1.12698364 C226.34643055 1.13032973 226.34643055 1.13032973 227.70983416 1.13374341 C231.99021862 1.24637618 231.99021862 1.24637618 236 0 C237.72880015 3.4576003 237.13622249 7.45688031 237.12698364 11.26245117 C237.12854363 12.23463435 237.13010362 13.20681753 237.13171089 14.20846081 C237.13571961 17.48664526 237.13253172 20.76478391 237.12939453 24.04296875 C237.13074863 26.38481677 237.13252861 28.72666457 237.13470459 31.06851196 C237.13927792 37.44436283 237.13748977 43.82019758 237.1343255 50.19604874 C237.13205693 56.18077389 237.1337848 62.16549755 237.1352527 68.15022266 C237.1381067 80.72596344 237.13482171 93.30169693 237.12945233 105.87743652 C237.12498437 116.67643268 237.12576032 127.47541809 237.13037109 138.27441406 C237.13571825 150.80405129 237.13783202 163.33368214 237.13475883 175.86332035 C237.13317538 182.49989593 237.13300166 189.13646551 237.13629532 195.77304077 C237.13917464 202.01097733 237.13719719 208.2488935 237.13140106 214.48682785 C237.1300738 216.78227072 237.13046701 219.0777153 237.13266373 221.3731575 C237.13537653 224.49464479 237.13199246 227.61606582 237.12698364 230.73754883 C237.12921436 231.6564046 237.13144509 232.57526037 237.13374341 233.52196026 C237.11414999 239.77170002 237.11414999 239.77170002 236 242 C234.35 241.34 232.7 240.68 231 240 C231 240.66 231 241.32 231 242 C220.11 242 209.22 242 198 242 C198 241.34 198 240.68 198 240 C201.69540402 238.76819866 205.10303378 238.87587888 208.94921875 238.90234375 C209.72183548 238.9037587 210.49445221 238.90517365 211.29048157 238.90663147 C213.75619389 238.91222534 216.22181515 238.92477667 218.6875 238.9375 C220.36002473 238.94251579 222.03255088 238.94707856 223.70507812 238.95117188 C227.80342046 238.96219276 231.90169479 238.97945316 236 239 C235.67 238.34 235.34 237.68 235 237 C234.90381872 233.95109691 234.86992564 230.92506451 234.87974548 227.87594604 C234.87846146 226.44353073 234.87846146 226.44353073 234.87715149 224.98217773 C234.87548811 221.75226004 234.88103318 218.52239348 234.88647461 215.29248047 C234.88678074 212.94935673 234.8866478 210.6062329 234.88610935 208.26310921 C234.88588291 201.96888082 234.89169312 195.67467131 234.89871979 189.38044739 C234.90440031 183.48157693 234.90468212 177.58271114 234.90539551 171.68383789 C234.91064998 154.41422274 234.92461104 137.14461114 234.9375 119.875 C234.958125 81.30625 234.97875 42.7375 235 3 C119.17 3.495 119.17 3.495 1 4 C0.67 81.55 0.34 159.1 0 239 C28.38 239 56.76 239 86 239 C85.67 239.99 85.34 240.98 85 242 C56.66666667 242 28.33333333 242 0 242 C0 241.34 0 240.68 0 240 C-0.99 239.67 -1.98 239.34 -3 239 C-3.06843682 209.41932727 -3.12152853 179.83865828 -3.15319599 150.257923 C-3.15694811 146.76569854 -3.16083108 143.27347423 -3.16479492 139.78125 C-3.16558185 139.08601062 -3.16636878 138.39077124 -3.16717956 137.674464 C-3.18023371 126.41703717 -3.2038876 115.15965629 -3.23145839 103.90225671 C-3.25951235 92.35124134 -3.27595168 80.8002583 -3.28226548 69.24920952 C-3.28618039 62.76110393 -3.29539744 56.27310258 -3.31719017 49.78503036 C-3.33753031 43.68004216 -3.34383875 37.57520129 -3.33932304 31.47018242 C-3.34014935 29.22801475 -3.34612959 26.98584224 -3.35761642 24.74370384 C-3.37252158 21.68465692 -3.36896056 18.62616774 -3.36076355 15.56710815 C-3.36950207 14.67799425 -3.3782406 13.78888035 -3.38724393 12.8728236 C-3.35055362 7.81396303 -2.72494996 4.43024914 0 0 Z " fill="#9B9E9F" transform="translate(553,329)"/>
<path d="M0 0 C77.55 0 155.1 0 235 0 C235 18.15 235 36.3 235 55 C234.67 55 234.34 55 234 55 C233.1062543 43.31178109 232.87464307 31.71747985 232.9375 20 C232.94253373 18.33854304 232.94709327 16.67708458 232.95117188 15.015625 C232.96200913 11.01037829 232.97916626 7.00520666 233 3 C227.53592754 2.07968917 222.27869555 1.85835305 216.74369812 1.87301636 C215.83257965 1.87145637 214.92146119 1.86989638 213.98273307 1.86828911 C210.94119018 1.86431235 207.89969753 1.86745582 204.8581543 1.87060547 C202.67320222 1.86925 200.48825037 1.86746925 198.30329895 1.86529541 C192.37814261 1.86073974 186.45300369 1.86250263 180.52784705 1.8656745 C174.33080482 1.86820611 168.13376409 1.86585847 161.9367218 1.86428833 C151.53552991 1.86246966 141.13434511 1.86486573 130.7331543 1.86962891 C120.02709489 1.87447496 109.32104959 1.87454 98.61499023 1.86962891 C86.95292499 1.86430052 75.29086697 1.86228262 63.62880069 1.86524117 C57.45619702 1.86680297 51.28360132 1.86700019 45.11099815 1.86370468 C39.31375138 1.8608256 33.51652654 1.86280234 27.71928215 1.86859894 C25.58670335 1.86992603 23.45412272 1.86953328 21.32154465 1.86733627 C18.42146569 1.86462298 15.52145802 1.86800806 12.62138367 1.87301636 C11.76819367 1.87078564 10.91500367 1.86855491 10.03595942 1.86625659 C5.88510273 1.77066362 5.88510273 1.77066362 2 3 C2 79.23 2 155.46 2 234 C32.69 234.020625 63.38 234.04125 95 234.0625 C104.60738281 234.071604 114.21476562 234.08070801 124.11328125 234.09008789 C132.9010008 234.09343707 132.9010008 234.09343707 141.6887207 234.09544373 C145.53280238 234.09635674 149.37686954 234.10002686 153.22094727 234.10557556 C179.83038318 234.14232332 206.40248601 233.81454671 233 233 C232.9902101 231.41763273 232.98035581 229.83526587 232.97047424 228.25289917 C232.96499352 227.37171858 232.95951281 226.49053799 232.953866 225.58265495 C232.94164839 223.74795658 232.92652671 221.91327711 232.90991211 220.07861328 C232.89154606 213.99174802 233.27156193 208.04266887 234 202 C234.33 202 234.66 202 235 202 C235 213.22 235 224.44 235 236 C157.45 236 79.9 236 0 236 C0 158.12 0 80.24 0 0 Z " fill="#C1AF62" transform="translate(1070,332)"/>
<path d="M0 0 C2.70279026 2.70279026 2.2425252 4.80640994 2.26282471 8.47803974 C2.25510937 9.8563234 2.25510937 9.8563234 2.24723816 11.26245117 C2.24965257 12.23463435 2.25206699 13.20681753 2.25455457 14.20846081 C2.26021876 17.48669715 2.25150795 20.76474097 2.24291992 24.04296875 C2.24399213 26.38481703 2.24592989 28.72666505 2.24867249 31.06851196 C2.25353377 37.44438357 2.24584916 43.82018555 2.23571944 50.19604874 C2.22784663 56.1807732 2.22855654 62.16549444 2.22899476 68.15022266 C2.22949573 80.00868931 2.22032467 91.86712901 2.20581055 103.72558594 C2.19172245 115.24186697 2.18463975 126.75812429 2.18530273 138.27441406 C2.18534269 138.98366276 2.18538265 139.69291145 2.18542381 140.42365253 C2.18546417 141.13165473 2.18550452 141.83965692 2.1855461 142.56911373 C2.1862005 155.00234828 2.1810839 167.43557331 2.17275429 179.86880493 C2.16921532 185.17021765 2.16739016 190.47162693 2.16686058 195.77304077 C2.16585898 202.01098092 2.15977742 208.24889597 2.14969444 214.48682785 C2.14676361 216.78226951 2.14554525 219.07771405 2.14612198 221.3731575 C2.14660963 224.49464831 2.14098701 227.6160679 2.13371277 230.73754883 C2.13526137 231.6564046 2.13680997 232.57526037 2.1384055 233.52196026 C2.11417872 239.77164257 2.11417872 239.77164257 1 242 C-76.88 242 -154.76 242 -235 242 C-234.67 241.01 -234.34 240.02 -234 239 C-156.78 239 -79.56 239 0 239 C0 221.99855469 0 204.99710938 0 187.48046875 C0 124.98697917 0 62.49348958 0 0 Z " fill="#CDD4CD" transform="translate(1563,329)"/>
<path d="M0 0 C78.21 0 156.42 0 237 0 C236.67 0.99 236.34 1.98 236 3 C158.45 3 80.9 3 1 3 C0.67 80.22 0.34 157.44 0 237 C-0.99 236.67 -1.98 236.34 -3 236 C-3.02279452 206.47861683 -3.04050033 176.95723407 -3.05106533 147.43584395 C-3.05231609 143.9534858 -3.05361041 140.47112766 -3.05493164 136.98876953 C-3.05519395 136.29547153 -3.05545626 135.60217352 -3.05572652 134.88786648 C-3.06008219 123.65039193 -3.06796918 112.41292247 -3.0771528 101.17545094 C-3.08649218 89.65157486 -3.09198132 78.12770238 -3.09408849 66.60382259 C-3.09539552 60.12818137 -3.09848088 53.65255173 -3.10573006 47.17691422 C-3.112491 41.08838856 -3.11461681 34.9998793 -3.11310768 28.91135025 C-3.11338398 26.67073477 -3.11538866 24.43011877 -3.11920547 22.18950653 C-3.12414385 19.14235926 -3.12299772 16.09527479 -3.12025452 13.04812622 C-3.12316736 12.1512519 -3.1260802 11.25437758 -3.12908131 10.33032525 C-3.11412121 4.22824242 -3.11412121 4.22824242 -2 2 C-1.34 2 -0.68 2 0 2 C0 1.34 0 0.68 0 0 Z " fill="#F9FAF8" transform="translate(35,329)"/>
<path d="M0 0 C78.21 0 156.42 0 237 0 C237.33 0.99 237.66 1.98 238 3 C159.46 3 80.92 3 0 3 C0 81.21 0 159.42 0 240 C-2.69624607 237.30375393 -2.23169915 235.23660682 -2.2366516 231.57430649 C-2.22761709 230.66323261 -2.21858258 229.75215874 -2.20927429 228.81347656 C-2.20760516 227.84946049 -2.20593602 226.88544441 -2.2042163 225.89221573 C-2.19610062 222.64157663 -2.17355053 219.39119462 -2.15112305 216.140625 C-2.14233942 213.8184845 -2.13442519 211.49634057 -2.12731934 209.17419434 C-2.10535777 202.85200047 -2.07079999 196.52993086 -2.03379035 190.20780945 C-2.00069631 184.27349105 -1.97622883 178.3391419 -1.95149157 172.40478373 C-1.90210772 160.64611045 -1.84302052 148.8875057 -1.77856445 137.12890625 C-1.715976 125.70966117 -1.66038655 114.29041029 -1.61254883 102.87109375 C-1.60960179 102.16781905 -1.60665475 101.46454434 -1.60361841 100.73995829 C-1.60067708 100.03791946 -1.59773575 99.33588063 -1.59470528 98.6125679 C-1.53748713 84.96948042 -1.47262456 71.32643767 -1.40554833 57.68339539 C-1.38667626 53.74112338 -1.36921514 49.79884719 -1.3520565 45.85656738 C-1.32475526 39.67113703 -1.29241152 33.48575305 -1.25609589 27.30036926 C-1.24350475 25.02428562 -1.23261121 22.7481919 -1.22349739 20.47209167 C-1.21080895 17.37685594 -1.1920619 14.28171662 -1.17167664 11.18652344 C-1.16816312 9.81991262 -1.16816312 9.81991262 -1.16457862 8.42569351 C-1.11417946 2.22835892 -1.11417946 2.22835892 0 0 Z " fill="#ECE7D1" transform="translate(294,329)"/>
<path d="M0 0 C0.74765625 -0.020625 1.4953125 -0.04125 2.265625 -0.0625 C8.88201366 -0.10860724 13.28853174 1.48900034 18.8125 5.25 C21.88081055 9.71299717 21.44539139 13.98610235 20.875 19.25 C19.46552636 23.47842092 16.72962138 25.31565533 12.875 27.25 C7.5377789 28.52909264 2.00027143 28.27300194 -3.45703125 28.26171875 C-5.05575073 28.25918091 -5.05575073 28.25918091 -6.68676758 28.2565918 C-7.49138428 28.2544165 -8.29600098 28.25224121 -9.125 28.25 C-9.15386338 23.77084672 -9.17175187 19.29171709 -9.1875 14.8125 C-9.19587891 13.53310547 -9.20425781 12.25371094 -9.21289062 10.93554688 C-9.21611328 9.72060547 -9.21933594 8.50566406 -9.22265625 7.25390625 C-9.22789307 6.12799072 -9.23312988 5.0020752 -9.23852539 3.84204102 C-9.00113898 -1.57802687 -4.32276875 0.02891484 0 0 Z " fill="#7D8282" transform="translate(662.125,416.75)"/>
<path d="M0 0 C2.6936764 2.6936764 2.22977126 4.7499743 2.2319895 8.40884459 C2.22227287 9.31739176 2.21255624 10.22593892 2.20254517 11.16201782 C2.20017046 12.12336148 2.19779576 13.08470513 2.1953491 14.07518041 C2.18488028 17.31667474 2.15999541 20.55790184 2.13525391 23.79931641 C2.1248344 26.11484919 2.11529795 28.43038608 2.10658264 30.7459259 C2.08033766 37.04939505 2.04167315 43.3527352 2.00085878 49.65612459 C1.96033245 56.23713591 1.93111695 62.81819695 1.90072632 69.39926147 C1.84849183 80.45078705 1.7885684 91.5022531 1.72363281 102.55371094 C1.65675998 113.93812962 1.59409474 125.3225586 1.53710938 136.70703125 C1.53359693 137.40844976 1.53008449 138.10986828 1.52646561 138.8325419 C1.50887122 142.35125703 1.49135978 145.86997257 1.47388959 149.38868833 C1.32878703 178.592535 1.16748369 207.79627209 1 237 C29.38 237 57.76 237 87 237 C86.67 237.99 86.34 238.98 86 240 C57.66666667 240 29.33333333 240 1 240 C1 239.34 1 238.68 1 238 C0.01 237.67 -0.98 237.34 -2 237 C-2.04560673 207.3852728 -2.08100982 177.77054727 -2.10213066 148.15579234 C-2.10463213 144.66099041 -2.10722077 141.16618855 -2.10986328 137.67138672 C-2.1103879 136.97562272 -2.11091252 136.27985872 -2.11145304 135.56301096 C-2.12016011 124.29131353 -2.13593174 113.01963646 -2.15430559 101.74795112 C-2.17299625 90.18564508 -2.18396521 78.62335338 -2.18817699 67.06103253 C-2.19078899 60.56519144 -2.19694676 54.06939656 -2.21146011 47.57357025 C-2.22500101 41.46368525 -2.22922972 35.35386564 -2.22621536 29.24396706 C-2.22676709 26.99773872 -2.23076525 24.75150828 -2.23841095 22.50529289 C-2.24831748 19.44564709 -2.24598454 16.38625032 -2.24050903 13.32659912 C-2.24633472 12.43165953 -2.2521604 11.53671995 -2.25816262 10.61466098 C-2.25418052 9.79506562 -2.25019842 8.97547025 -2.24609566 8.13103867 C-2.2468551 7.42475885 -2.24761454 6.71847904 -2.24839699 5.9907968 C-1.95777809 3.66160922 -1.14825907 2.03129249 0 0 Z " fill="#A1AAA3" transform="translate(552,331)"/>
<path d="M0 0 C0.86625 0.45375 1.7325 0.9075 2.625 1.375 C11.56856147 7.4942789 16.89608134 18.64840619 19 29 C19.436164 34.52169555 19.40090235 39.96891905 19.1875 45.5 C19.15038406 46.52805252 19.15038406 46.52805252 19.11251831 47.57687378 C18.53352832 61.40499158 16.12044163 74.15734732 7 85 C6.34 85 5.68 85 5 85 C5 85.66 5 86.32 5 87 C-3.67367989 94.84441334 -16.49722535 98.18114606 -28 98 C-30.78095572 97.61244685 -33.32691203 96.83997219 -36 96 C-36.93457031 95.78085937 -37.86914062 95.56171875 -38.83203125 95.3359375 C-39.81558594 95.10132813 -40.79914063 94.86671875 -41.8125 94.625 C-42.72644531 94.41101563 -43.64039063 94.19703125 -44.58203125 93.9765625 C-47.45839027 92.81486661 -48.30424517 91.53864474 -50 89 C-50.804375 88.525625 -51.60875 88.05125 -52.4375 87.5625 C-55.39576407 85.75868044 -57.03693146 83.83554344 -59 81 C-59 80.34 -59 79.68 -59 79 C-59.66 79 -60.32 79 -61 79 C-64.4887612 74.70614007 -64.26854022 71.28129105 -64 66 C-64.66 66 -65.32 66 -66 66 C-68.33742712 58.94241967 -68.20151078 52.10905783 -67.94335938 44.75610352 C-67.87549762 42.70255837 -67.83911921 40.65004671 -67.8046875 38.59570312 C-67.59153008 30.39412318 -66.38124203 23.50110896 -63 16 C-62.525625 14.88625 -62.05125 13.7725 -61.5625 12.625 C-59.73218829 9.55007632 -57.61887713 7.43181448 -55 5 C-54.154375 4.13375 -53.30875 3.2675 -52.4375 2.375 C-48.71904021 -1.24811467 -45.78572495 -3.29604968 -40.75 -4.6875 C-39.85796875 -4.93886719 -38.9659375 -5.19023437 -38.046875 -5.44921875 C-37.37140625 -5.63097656 -36.6959375 -5.81273437 -36 -6 C-36 -6.33 -36 -6.66 -36 -7 C-22.88785519 -8.84030103 -10.99874218 -7.94645966 0 0 Z M-48 2 C-49.05767578 2.81597656 -49.05767578 2.81597656 -50.13671875 3.6484375 C-58.67810587 10.56625517 -63.52150671 19.12770059 -65 30 C-65.27666124 34.98242733 -65.27944783 39.94854696 -65.25 44.9375 C-65.25773437 46.24396484 -65.26546875 47.55042969 -65.2734375 48.89648438 C-65.24489563 63.07466038 -63.39072388 72.77970507 -53.703125 83.5546875 C-45.27678519 91.73950801 -35.69987113 95.12665625 -24 95 C-13.50164614 94.28910784 -3.73962653 91.48163898 4 84 C4 83.34 4 82.68 4 82 C4.66 82 5.32 82 6 82 C15.97322319 70.49884569 16.17298186 55.96015589 16.25 41.5 C16.270625 40.53191406 16.29125 39.56382812 16.3125 38.56640625 C16.38154671 25.70645632 11.9020608 14.32596846 3 5 C-9.65904298 -6.39313868 -34.5258184 -9.59406323 -48 2 Z " fill="#C5B46C" transform="translate(437,405)"/>
<path d="M0 0 C77.55 0 155.1 0 235 0 C235.33 0.66 235.66 1.32 236 2 C214.39957812 3.34156984 192.77868908 3.14772369 171.14702106 3.1343255 C165.70308049 3.13176229 160.25914146 3.13415002 154.81520081 3.13571167 C145.68986707 3.13752055 136.56454148 3.13515947 127.43920898 3.13037109 C116.92292775 3.12491622 106.40666587 3.12670518 95.89038509 3.1321975 C86.8103705 3.13674777 77.7303617 3.13737026 68.65034634 3.13475883 C63.2488985 3.13320846 57.84745974 3.13296833 52.4460125 3.13629532 C47.37408104 3.13920249 42.30217439 3.13714647 37.23024559 3.13140106 C35.38005362 3.13008928 33.52985953 3.13044035 31.67966843 3.13266373 C29.13496462 3.13543782 26.59033806 3.13191939 24.04563904 3.12698364 C23.33169981 3.12921436 22.61776058 3.13144509 21.88218683 3.13374341 C14.85720717 3.10769948 8.06724861 2.50480347 1 2 C1 78.89 1 155.78 1 235 C0.67 235 0.34 235 0 235 C0 157.45 0 79.9 0 0 Z " fill="#87AE83" transform="translate(36,331)"/>
<path d="M0 0 C6.6 0 13.2 0 20 0 C20 26.73 20 53.46 20 81 C33.86 81 47.72 81 62 81 C62.84046417 84.36185666 63.13504864 86.78603588 63.125 90.1875 C63.12886719 91.50814453 63.12886719 91.50814453 63.1328125 92.85546875 C63 95 63 95 62 96 C59.13732433 96.07325168 56.299281 96.09238205 53.4375 96.0625 C52.63119141 96.05798828 51.82488281 96.05347656 50.99414062 96.04882812 C48.99606244 96.03700518 46.99802217 96.01906914 45 96 C45.33 95.34 45.66 94.68 46 94 C49.96 94 53.92 94 58 94 C59.2981424 91.7763932 59.2981424 91.7763932 59 88 C59 84 59 84 60 82 C46.14 82 32.28 82 18 82 C16.26204352 76.78613056 15.75751423 74.02913586 15.78881836 68.74121094 C15.7901326 68.04129028 15.79144684 67.34136963 15.7928009 66.62023926 C15.79925139 64.32480948 15.81965849 62.02972131 15.83984375 59.734375 C15.84611886 58.13348756 15.85135739 56.53259576 15.85560608 54.93170166 C15.86887104 50.73043615 15.89329376 46.52931769 15.92095947 42.328125 C15.96419022 35.58987165 15.9937647 28.85157672 16.0170002 22.11322784 C16.02723737 19.7588414 16.0442805 17.40457248 16.06199646 15.05023193 C16.06882162 13.61389267 16.07543042 12.17755235 16.08178711 10.74121094 C16.09004013 9.48467712 16.09829315 8.22814331 16.10679626 6.93353271 C16.20523898 4.06516366 16.20523898 4.06516366 15 2 C8.07 1.505 8.07 1.505 1 1 C1 32.02 1 63.04 1 95 C0.67 95 0.34 95 0 95 C0 63.65 0 32.3 0 0 Z " fill="#F1EECE" transform="translate(1156,402)"/>
<path d="M0 0 C5.0970541 1.9749036 9.18609032 5.31015053 12 10 C15.3397489 18.06222854 15.45445874 25.94122701 15.375 34.5625 C15.38660156 35.82513672 15.39820313 37.08777344 15.41015625 38.38867188 C15.38221697 47.30595952 14.91869571 55.5884782 8.625 62.4375 C8.06039062 63.07558594 7.49578125 63.71367187 6.9140625 64.37109375 C2.15915301 68.41761877 -2.98784894 68.48961533 -8.98828125 68.37890625 C-15.02617683 67.61927477 -18.58556952 64.71220532 -22.375 60.125 C-24.94516372 55.18237747 -26.33890626 50.59195335 -26 45 C-24.23537317 48.08809695 -24 49.23312136 -24 53 C-22.68 53.66 -21.36 54.32 -20 55 C-20 55.99 -20 56.98 -20 58 C-15.79208662 62.31054541 -13.12882235 63.55426747 -7 64 C-6.154375 64.226875 -5.30875 64.45375 -4.4375 64.6875 C-1.13513602 65.11088 0.97002757 64.31737932 4 63 C6.49605741 61.02036826 6.96415463 60.10753611 8 57 C8.66 57 9.32 57 10 57 C10.86797682 54.01504821 11.10706381 51.40024937 11.0625 48.296875 C11.05089844 46.94916016 11.05089844 46.94916016 11.0390625 45.57421875 C11.01323691 43.70702825 10.98719888 41.83984067 10.9609375 39.97265625 C10.92528639 35.80741793 10.95440669 31.78372575 11.55078125 27.65625 C11.96156877 24.31279681 11.91627133 22.0006347 11.1875 18.75 C11.01605469 17.94046875 10.84460938 17.1309375 10.66796875 16.296875 C9.99822758 13.99390537 9.22626545 12.06049065 8 10 C7.34 9.67 6.68 9.34 6 9 C6 8.34 6 7.68 6 7 C-0.07089838 3.62727868 -6.54214909 3.06904014 -13.25 4.875 C-16.45258699 6.18514922 -18.54788727 7.04258482 -20.0625 10.25 C-20.71512442 12.16436495 -21.36041327 14.08123982 -22 16 C-22.90511248 18.71533744 -23.91057413 21.35425145 -25 24 C-25.33 24 -25.66 24 -26 24 C-25.51383241 15.51721381 -24.47917688 10.04182678 -17.9375 4.1875 C-12.2187906 -0.63666268 -7.41019033 -0.8264498 0 0 Z " fill="#C5B56E" transform="translate(418,416)"/>
<path d="M0 0 C0.33 0 0.66 0 1 0 C1.02279437 30.03095956 1.04050025 60.06191883 1.05106533 90.09288513 C1.05231609 93.63532838 1.05361041 97.17777162 1.05493164 100.72021484 C1.05519395 101.42547531 1.05545626 102.13073577 1.05572652 102.85736777 C1.06008223 114.28883807 1.06796924 125.72030337 1.0771528 137.1517707 C1.08649208 148.87452868 1.09205619 160.59728404 1.09408849 172.32004559 C1.09539554 178.90746943 1.09848101 185.49488189 1.10573006 192.08230209 C1.11249083 198.27588698 1.11461684 204.46945575 1.11310768 210.66304398 C1.11338398 212.94236081 1.11538876 215.22167816 1.11920547 217.50099182 C1.1241436 220.60068747 1.12299782 223.70032138 1.12025452 226.80001831 C1.12316736 227.71245643 1.1260802 228.62489454 1.12908131 229.5649823 C1.11412121 235.77175758 1.11412121 235.77175758 0 238 C-1.65 237.34 -3.3 236.68 -5 236 C-5 236.66 -5 237.32 -5 238 C-15.89 238 -26.78 238 -38 238 C-38 237.34 -38 236.68 -38 236 C-25.97918472 231.99306157 -12.67105187 235 0 235 C0 157.45 0 79.9 0 0 Z " fill="#FDFDFC" transform="translate(789,333)"/>
<path d="M0 0 C34.65 0 69.3 0 105 0 C105 0.99 105 1.98 105 3 C70.35 3 35.7 3 0 3 C0 2.01 0 1.02 0 0 Z " fill="#B9C5B9" transform="translate(645,568)"/>
<path d="M0 0 C-0.33 0.99 -0.66 1.98 -1 3 C-1.97839844 2.97679687 -2.95679688 2.95359375 -3.96484375 2.9296875 C-15.44891367 2.77159804 -23.40468416 3.44250249 -33 10 C-33.94875 10.495 -34.8975 10.99 -35.875 11.5 C-38.54701527 13.38612843 -39.02408033 14.92209949 -40 18 C-41.19069301 20.53022264 -42.43682141 22.65523212 -44 25 C-48.57424962 38.81244003 -47.82548382 55.73507021 -45.3359375 69.9453125 C-45.22507812 70.95335937 -45.11421875 71.96140625 -45 73 C-45.99 73.99 -45.99 73.99 -47 75 C-49.80319361 66.96417832 -50.21567439 59.89309572 -50.24023438 51.40966797 C-50.24987091 49.40189685 -50.2810399 47.39426651 -50.3125 45.38671875 C-50.36590505 31.96870079 -48.04476534 20.49814132 -38.6328125 10.48046875 C-28.43561452 0.88766397 -13.90221933 -3.88764523 0 0 Z " fill="#F2F1D4" transform="translate(422,401)"/>
<path d="M0 0 C0.86316232 0.24321005 0.86316232 0.24321005 1.74376225 0.49133343 C3.9484406 0.98837598 5.84524513 1.13010668 8.09980392 1.1386652 C8.9124325 1.14413964 9.72506107 1.14961409 10.56231475 1.15525442 C11.44947244 1.15623253 12.33663013 1.15721064 13.25067139 1.15821838 C14.67074883 1.16562535 14.67074883 1.16562535 16.1195147 1.17318195 C19.29940125 1.18856938 22.47926758 1.19692098 25.65917969 1.20532227 C27.93560464 1.21489981 30.21202781 1.22490981 32.4884491 1.23532104 C38.67602003 1.26238958 44.86359862 1.28338862 51.0511961 1.30332303 C57.5147968 1.32517054 63.9783739 1.35256527 70.44195557 1.37937927 C81.29316219 1.42364468 92.14437601 1.46447711 102.99560547 1.50268555 C114.1723729 1.54204963 125.34912954 1.58347804 136.52587891 1.62768555 C137.21482399 1.63040982 137.90376908 1.63313409 138.61359128 1.63594092 C142.06982934 1.64962055 145.52606723 1.66334079 148.98230505 1.67708123 C177.6548474 1.79101773 206.32741369 1.89776029 235 2 C235 2.33 235 2.66 235 3 C157.78 3 80.56 3 1 3 C0.67 2.01 0.34 1.02 0 0 Z " fill="#8F9293" transform="translate(1328,329)"/>
<path d="M0 0 C0.99 0.33 1.98 0.66 3 1 C6.06336009 1.10639822 9.10455297 1.15486617 12.16838074 1.15821838 C13.11832816 1.16315636 14.06827558 1.16809434 15.04700929 1.17318195 C18.24382144 1.1885927 21.44061346 1.19692726 24.63745117 1.20532227 C26.92358071 1.21489798 29.20970847 1.22490787 31.49583435 1.23532104 C37.71445527 1.26240943 43.93308381 1.28339769 50.15173125 1.30332303 C56.6460343 1.32515834 63.14031375 1.35255902 69.63459778 1.37937927 C80.53885893 1.42365797 91.44312803 1.46448761 102.34741211 1.50268555 C113.57951807 1.54204128 124.81161325 1.58346769 136.04370117 1.62768555 C136.73589598 1.63040982 137.42809078 1.63313409 138.14126118 1.63594092 C141.61375395 1.64962041 145.08624654 1.66334068 148.55873907 1.67708123 C177.37247001 1.79104352 206.1862251 1.89778012 235 2 C235 2.33 235 2.66 235 3 C157.45 3 79.9 3 0 3 C0 2.01 0 1.02 0 0 Z " fill="#8E9292" transform="translate(553,329)"/>
<path d="M0 0 C0.33 0 0.66 0 1 0 C1 74.58 1 149.16 1 226 C3.64 226 6.28 226 9 226 C9 226.33 9 226.66 9 227 C5.7 227.33 2.4 227.66 -1 228 C-0.67 152.76 -0.34 77.52 0 0 Z " fill="#6E7273" transform="translate(554,340)"/>
<path d="M0 0 C28.38 0 56.76 0 86 0 C85.67 0.99 85.34 1.98 85 3 C56.66666667 3 28.33333333 3 0 3 C0 2.01 0 1.02 0 0 Z " fill="#BCC8BC" transform="translate(553,568)"/>
<path d="M0 0 C0.99 0.33 1.98 0.66 3 1 C3 31.03 3 61.06 3 92 C5.88211302 92.96070434 7.69850044 93.10581883 10.6875 93.0625 C11.49574219 93.05347656 12.30398438 93.04445313 13.13671875 93.03515625 C13.75160156 93.02355469 14.36648438 93.01195312 15 93 C15 93.66 15 94.32 15 95 C10.05 95 5.1 95 0 95 C0 63.65 0 32.3 0 0 Z " fill="#F7F9E6" transform="translate(1157,403)"/>
<path d="M0 0 C1.92578125 0.8046875 1.92578125 0.8046875 4 2 C6.23969697 7.8939394 6.37051103 14.02984515 6.65893555 20.27587891 C6.79290107 23.12118265 6.96182032 25.82741752 7.578125 28.61328125 C8.10843519 31.61346203 7.71826194 34.00634992 7.1875 37 C7.01605469 38.010625 6.84460938 39.02125 6.66796875 40.0625 C6.02733553 42.87978762 5.14816157 45.35463575 4 48 C3.731875 48.66 3.46375 49.32 3.1875 50 C1.54807799 52.76113181 -0.73680492 54.73680492 -3 57 C-3.33 57.99 -3.66 58.98 -4 60 C-6.328125 61.203125 -6.328125 61.203125 -9.25 62.25 C-10.20390625 62.60578125 -11.1578125 62.9615625 -12.140625 63.328125 C-15.25332934 64.05952547 -16.95550644 63.86485613 -20 63 C-21.8871875 62.4740625 -21.8871875 62.4740625 -23.8125 61.9375 C-24.864375 61.628125 -25.91625 61.31875 -27 61 C-27 60.01 -27 59.02 -27 58 C-26.21625 58.165 -25.4325 58.33 -24.625 58.5 C-17.60913761 59.46770516 -11.06295302 60.22996722 -5 56 C1.35228729 49.79544032 3.12231041 42.97486401 3.3984375 34.19921875 C3.40634041 31.69531278 3.39817152 29.19131122 3.375 26.6875 C3.38660156 25.44548828 3.39820313 24.20347656 3.41015625 22.92382812 C3.38481278 14.8688272 2.34990799 7.70545002 0 0 Z " fill="#F3F3D9" transform="translate(429,424)"/>
<path d="M0 0 C4.17683955 0.37149775 6.71599997 1.04015339 10.25 3.2890625 C11 5.4140625 11 5.4140625 11.25 7.2890625 C12.24 7.6190625 13.23 7.9490625 14.25 8.2890625 C13.92 9.2790625 13.59 10.2690625 13.25 11.2890625 C11.81770833 10.05208333 10.38541667 8.81510417 8.953125 7.578125 C3.47886718 3.43476472 -2.08390987 3.55632873 -8.75 4.2890625 C-12.26662056 5.85346622 -12.26662056 5.85346622 -14.75 8.2890625 C-15.471875 8.8459375 -16.19375 9.4028125 -16.9375 9.9765625 C-22.65730904 17.2742499 -22.21996227 26.32655169 -22.14111328 35.14550781 C-22.12502938 37.28515367 -22.1410265 39.42291139 -22.16015625 41.5625 C-22.18584221 54.38756282 -22.18584221 54.38756282 -16.125 65.2265625 C-15.34125 65.9071875 -14.5575 66.5878125 -13.75 67.2890625 C-13.42 67.9490625 -13.09 68.6090625 -12.75 69.2890625 C-14.4 68.9590625 -16.05 68.6290625 -17.75 68.2890625 C-17.75 67.2990625 -17.75 66.3090625 -17.75 65.2890625 C-18.36875 65.0209375 -18.9875 64.7528125 -19.625 64.4765625 C-21.75 63.2890625 -21.75 63.2890625 -23.75 60.2890625 C-25.12722679 53.06111081 -25.04393275 45.74190092 -25.10009766 38.41162109 C-25.11662563 36.83692615 -25.14387448 35.26230526 -25.18212891 33.68798828 C-25.41173323 24.15042429 -25.52026192 15.43970477 -19.75 7.2890625 C-17.47208734 5.43582413 -15.47630953 4.50075563 -12.75 3.2890625 C-12.31429688 2.77085937 -11.87859375 2.25265625 -11.4296875 1.71875 C-8.23127581 -1.00361902 -3.99928496 -0.09819673 0 0 Z " fill="#F3F2D7" transform="translate(414.75,412.7109375)"/>
<path d="M0 0 C40 0 40 0 45 1 C45 1.33 45 1.66 45 2 C40.68380697 2.90338924 38.49202386 2.89840477 34 2 C23.11 1.67 12.22 1.34 1 1 C1.33 31.69 1.66 62.38 2 94 C1.01 94.495 1.01 94.495 0 95 C0 63.65 0 32.3 0 0 Z " fill="#F8FBE9" transform="translate(893,402)"/>
<path d="M0 0 C6.89868397 8.22628236 6.42955751 19.8213336 6.25 30 C6.24484375 31.20011719 6.2396875 32.40023437 6.234375 33.63671875 C6.14915386 43.14952855 6.14915386 43.14952855 5 47 C4.01 46.67 3.02 46.34 2 46 C2.00523682 45.04633545 2.01047363 44.0926709 2.01586914 43.11010742 C2.03397265 39.57105447 2.04545161 36.03200562 2.05493164 32.49291992 C2.0599596 30.9613374 2.06678284 29.42975967 2.07543945 27.89819336 C2.08757229 25.69643978 2.09324367 23.49474967 2.09765625 21.29296875 C2.10281754 20.60849167 2.10797882 19.92401459 2.11329651 19.21879578 C2.1136536 16.19093758 1.96616619 13.89849858 1 11 C1.33 10.01 1.66 9.02 2 8 C1.34 7.67 0.68 7.34 0 7 C-1.26229508 2.52459016 -1.26229508 2.52459016 0 0 Z " fill="#F4F4DA" transform="translate(447,421)"/>
<path d="M0 0 C17.03141177 -0.12884564 33.98989199 0.12012648 51 1 C51 1.66 51 2.32 51 3 C34.17 3 17.34 3 0 3 C0 2.01 0 1.02 0 0 Z " fill="#C7D1C7" transform="translate(645,568)"/>
<path d="M0 0 C3.08464583 2.97406419 4.27134691 5.84612684 5.0703125 9.99609375 C5.25207031 10.83914063 5.43382812 11.6821875 5.62109375 12.55078125 C6.25250266 17.39341307 6.21463143 22.18056381 6.1953125 27.05859375 C6.20111328 28.5290918 6.20111328 28.5290918 6.20703125 30.02929688 C6.20574219 30.97869141 6.20445312 31.92808594 6.203125 32.90625 C6.20199707 33.76355713 6.20086914 34.62086426 6.19970703 35.50415039 C6.06566508 38.08559595 5.6379229 40.47735784 5.0703125 42.99609375 C4.7403125 42.99609375 4.4103125 42.99609375 4.0703125 42.99609375 C4.0703125 32.43609375 4.0703125 21.87609375 4.0703125 10.99609375 C3.4103125 10.99609375 2.7503125 10.99609375 2.0703125 10.99609375 C1.8434375 10.10921875 1.6165625 9.22234375 1.3828125 8.30859375 C-0.88507807 2.58486992 -5.02782918 -0.63148151 -10.4609375 -3.22265625 C-15.46037327 -4.80475618 -20.72023059 -4.84508134 -25.9296875 -5.00390625 C-25.9296875 -5.33390625 -25.9296875 -5.66390625 -25.9296875 -6.00390625 C-15.8900581 -7.86309688 -8.23112804 -6.20559967 0 0 Z " fill="#8AB186" transform="translate(940.9296875,423.00390625)"/>
<path d="M0 0 C17.16 0 34.32 0 52 0 C51.67 0.66 51.34 1.32 51 2 C14.12295442 3.40027356 14.12295442 3.40027356 -1 2 C-0.67 1.34 -0.34 0.68 0 0 Z " fill="#727677" transform="translate(733,566)"/>
<path d="M0 0 C13.86 0 27.72 0 42 0 C42.84046417 3.36185666 43.13504864 5.78603588 43.125 9.1875 C43.12886719 10.50814453 43.12886719 10.50814453 43.1328125 11.85546875 C43 14 43 14 42 15 C39.13732433 15.07325168 36.299281 15.09238205 33.4375 15.0625 C32.63119141 15.05798828 31.82488281 15.05347656 30.99414062 15.04882812 C28.99606244 15.03700518 26.99802217 15.01906914 25 15 C25.33 14.34 25.66 13.68 26 13 C29.96 13 33.92 13 38 13 C39.2981424 10.7763932 39.2981424 10.7763932 39 7 C39 3 39 3 40 1 C26.8 1 13.6 1 0 1 C0 0.67 0 0.34 0 0 Z " fill="#F0ECCB" transform="translate(1176,483)"/>
<path d="M0 0 C0.99 0.33 1.98 0.66 3 1 C2.34 1.66 1.68 2.32 1 3 C0.66745753 5.79171088 0.66745753 5.79171088 0.68115234 9.10205078 C0.66128265 10.38322784 0.64141296 11.66440491 0.62094116 12.98440552 C0.60906383 14.38803942 0.59740102 15.79167516 0.5859375 17.1953125 C0.56723308 18.62736131 0.54766022 20.05939902 0.5272522 21.49142456 C0.47584794 25.26264917 0.43626689 29.03390955 0.39910889 32.80529785 C0.359121 36.65284126 0.30800496 40.50023483 0.2578125 44.34765625 C0.16095513 51.89833483 0.07658205 59.44908568 0 67 C2.87638518 66.91256271 5.74984562 66.8056265 8.625 66.6875 C9.43324219 66.66494141 10.24148438 66.64238281 11.07421875 66.61914062 C16.15233089 66.39207057 19.47066131 65.48765217 24 63 C24.66 63.33 25.32 63.66 26 64 C17.16517575 69.37018729 9.1475025 70.12886146 -1 68 C-1.02312611 59.28155997 -1.04091646 50.56313044 -1.05181217 41.84466648 C-1.05704041 37.79674258 -1.06413699 33.74883959 -1.07543945 29.70092773 C-1.08627043 25.79764029 -1.09227728 21.89437301 -1.09487724 17.9910717 C-1.09673111 16.49866353 -1.100351 15.00625652 -1.10573006 13.51385689 C-1.11294331 11.43051861 -1.11399083 9.34726469 -1.11352539 7.26391602 C-1.115746 6.07588882 -1.11796661 4.88786163 -1.12025452 3.66383362 C-1 1 -1 1 0 0 Z " fill="#C0D4BE" transform="translate(912,416)"/>
<path d="M0 0 C0.77261673 0.00141495 1.54523346 0.0028299 2.34126282 0.00428772 C4.80697514 0.00988159 7.2725964 0.02243292 9.73828125 0.03515625 C11.41080598 0.04017204 13.08333213 0.04473481 14.75585938 0.04882812 C18.85420171 0.05984901 22.95247604 0.07710941 27.05078125 0.09765625 C27.05078125 1.08765625 27.05078125 2.07765625 27.05078125 3.09765625 C24.57578125 2.10765625 24.57578125 2.10765625 22.05078125 1.09765625 C22.05078125 1.75765625 22.05078125 2.41765625 22.05078125 3.09765625 C11.16078125 3.09765625 0.27078125 3.09765625 -10.94921875 3.09765625 C-10.94921875 2.43765625 -10.94921875 1.77765625 -10.94921875 1.09765625 C-7.25381473 -0.13414509 -3.84618497 -0.02646487 0 0 Z " fill="#C0CCBF" transform="translate(761.94921875,567.90234375)"/>
<path d="M0 0 C0.33 0.99 0.66 1.98 1 3 C-0.14453125 5.26171875 -0.14453125 5.26171875 -1.8125 7.6875 C-2.35519531 8.49574219 -2.89789063 9.30398438 -3.45703125 10.13671875 C-3.96621094 10.75160156 -4.47539062 11.36648438 -5 12 C-5.66 12 -6.32 12 -7 12 C-7.23203125 12.59425781 -7.4640625 13.18851562 -7.703125 13.80078125 C-10.15875041 17.9649894 -14.76662689 19.90920563 -19 22 C-22.625 22.875 -22.625 22.875 -25 23 C-25 22.34 -25 21.68 -25 21 C-23.84371094 20.51080078 -23.84371094 20.51080078 -22.6640625 20.01171875 C-21.15972656 19.35623047 -21.15972656 19.35623047 -19.625 18.6875 C-18.62726563 18.25824219 -17.62953125 17.82898438 -16.6015625 17.38671875 C-13.74225492 16.1261594 -13.74225492 16.1261594 -12 13 C-11.01 13 -10.02 13 -9 13 C-8.87625 12.360625 -8.7525 11.72125 -8.625 11.0625 C-8.41875 10.381875 -8.2125 9.70125 -8 9 C-7.34 8.67 -6.68 8.34 -6 8 C-4.9935725 6.33720673 -3.99414593 4.67016516 -3 3 C-1.3125 1.1875 -1.3125 1.1875 0 0 Z " fill="#F3F3D9" transform="translate(448,475)"/>
<path d="M0 0 C2.53688412 1.26844206 2.65565521 2.05661207 3.609375 4.68359375 C5.61505589 11.06817619 5.36172939 17.43205883 5.25 24.0625 C5.24484375 25.29033203 5.2396875 26.51816406 5.234375 27.78320312 C5.07675374 46.07712064 5.07675374 46.07712064 0 52 C-2.75 53.375 -2.75 53.375 -5 54 C-4.38640625 53.46117187 -3.7728125 52.92234375 -3.140625 52.3671875 C3.43821483 45.0920471 3.35947224 33.9152602 3.375 24.625 C3.37661133 23.6983252 3.37822266 22.77165039 3.37988281 21.81689453 C3.28930848 16.22040689 2.53664385 11.37825348 1 6 C0.6435691 4.00398694 0.30077325 2.005155 0 0 Z " fill="#DEE8D9" transform="translate(943,425)"/>
<path d="M0 0 C1.17851312 3.53553937 1.06376055 6.24765424 0.9921875 9.9765625 C0.97465194 11.38410713 0.95774554 12.79165972 0.94140625 14.19921875 C0.91063681 16.40436176 0.87533696 18.60909915 0.82861328 20.81396484 C0.30561157 34.87372224 0.30561157 34.87372224 6.625 46.9375 C7.800625 47.9584375 7.800625 47.9584375 9 49 C9.33 49.66 9.66 50.32 10 51 C8.35 50.67 6.7 50.34 5 50 C5 49.01 5 48.02 5 47 C4.38125 46.731875 3.7625 46.46375 3.125 46.1875 C1 45 1 45 -1 42 C-1.98024438 37.02702514 -2.09147667 32.21193648 -1.9140625 27.16796875 C-1.89282318 26.45014725 -1.87158386 25.73232574 -1.84970093 24.99275208 C-1.80377407 23.48929764 -1.75487808 21.98593118 -1.703125 20.48266602 C-1.6246349 18.17677397 -1.55776693 15.87074475 -1.4921875 13.56445312 C-1.44599847 12.09893655 -1.39914726 10.63344067 -1.3515625 9.16796875 C-1.33171295 8.47841599 -1.3118634 7.78886322 -1.29141235 7.07841492 C-1.11531878 2.23063755 -1.11531878 2.23063755 0 0 Z " fill="#EFEBC9" transform="translate(392,431)"/>
<path d="M0 0 C0.33 0 0.66 0 1 0 C1 4.62 1 9.24 1 14 C11.56 14 22.12 14 33 14 C31 16 31 16 27.83544922 16.22705078 C26.49182037 16.22673389 25.1481659 16.21542181 23.8046875 16.1953125 C23.09724396 16.1924826 22.38980042 16.18965271 21.66091919 16.18673706 C19.3987749 16.17553137 17.13702485 16.15042679 14.875 16.125 C13.34245363 16.11497067 11.80990106 16.10584474 10.27734375 16.09765625 C6.51795465 16.0772912 2.75941922 16.03814518 -1 16 C-0.67 10.72 -0.34 5.44 0 0 Z " fill="#6F7374" transform="translate(1436,424)"/>
<path d="M0 0 C0.99 0.33 1.98 0.66 3 1 C3 1.66 3 2.32 3 3 C3.99 3 4.98 3 6 3 C5.67 3.66 5.34 4.32 5 5 C5.33 5.33 5.66 5.66 6 6 C6.66 6 7.32 6 8 6 C8.33 7.65 8.66 9.3 9 11 C9.66 11 10.32 11 11 11 C11 11.66 11 12.32 11 13 C11.66 13 12.32 13 13 13 C13.33 13.66 13.66 14.32 14 15 C14.99 15 15.98 15 17 15 C17 15.99 17 16.98 17 18 C17.99 17.67 18.98 17.34 20 17 C20.66 18.32 21.32 19.64 22 21 C14.50095756 19.80015321 8.72108417 14.60920891 4 9 C0 3.16470588 0 3.16470588 0 0 Z " fill="#F3F2D6" transform="translate(376,476)"/>
<path d="M0 0 C0.66 0 1.32 0 2 0 C2.02505615 0.66008057 2.0501123 1.32016113 2.07592773 2.00024414 C2.19271752 5.02115369 2.31506446 8.04181422 2.4375 11.0625 C2.47681641 12.10083984 2.51613281 13.13917969 2.55664062 14.20898438 C2.82008816 20.69391211 2.82008816 20.69391211 3.66015625 27.12109375 C3.77230469 28.07113281 3.88445312 29.02117187 4 30 C3.34 30.66 2.68 31.32 2 32 C0.38890635 27.74648979 -0.24026702 24.26696904 -0.1953125 19.7265625 C-0.18886719 18.57285156 -0.18242187 17.41914063 -0.17578125 16.23046875 C-0.15902344 15.04066406 -0.14226562 13.85085938 -0.125 12.625 C-0.11597656 11.41199219 -0.10695313 10.19898438 -0.09765625 8.94921875 C-0.07416588 5.96594227 -0.04131682 2.98307406 0 0 Z " fill="#F6F9E4" transform="translate(373,444)"/>
<path d="M0 0 C1.5625 1.6875 1.5625 1.6875 3 4 C2.625 6.5 2.625 6.5 2 9 C2.36856864 11.23167185 2.36856864 11.23167185 3 13 C2.34 13 1.68 13 1 13 C1.33 18.61 1.66 24.22 2 30 C-0.32685869 25.34628262 -1.12599815 22.20096934 -1.1328125 17.05078125 C-1.13474609 15.65569336 -1.13474609 15.65569336 -1.13671875 14.23242188 C-1.13285156 13.26884766 -1.12898438 12.30527344 -1.125 11.3125 C-1.12886719 10.33732422 -1.13273437 9.36214844 -1.13671875 8.35742188 C-1.13542969 7.43123047 -1.13414062 6.50503906 -1.1328125 5.55078125 C-1.13168457 4.70169189 -1.13055664 3.85260254 -1.12939453 2.9777832 C-1 1 -1 1 0 0 Z " fill="#C1AF61" transform="translate(393,439)"/>
<path d="M0 0 C3.9539453 5.93091795 5.56597684 11.6874906 6.6875 18.625 C6.88182617 19.73101562 6.88182617 19.73101562 7.08007812 20.859375 C7.71466872 24.60648137 8.15777691 28.19832777 8 32 C5.86850758 28.30795062 4.97741919 24.35821502 4 20.25 C3.835 19.57195312 3.67 18.89390625 3.5 18.1953125 C3.16636279 16.8242721 2.83563745 15.45251988 2.5078125 14.08007812 C2.16208293 12.66391661 1.80211952 11.25117148 1.4296875 9.84179688 C0.52550461 6.40653863 0 3.58050481 0 0 Z " fill="#D3E1CD" transform="translate(107,450)"/>
<path d="M0 0 C2.59875 -0.04125 5.1975 -0.0825 7.875 -0.125 C8.69210449 -0.14320801 9.50920898 -0.16141602 10.35107422 -0.18017578 C12.23495049 -0.19477217 14.11869312 -0.09943482 16 0 C16.66 0.66 17.32 1.32 18 2 C10.08 2.495 10.08 2.495 2 3 C2 10.26 2 17.52 2 25 C1.34 25 0.68 25 0 25 C0 16.75 0 8.5 0 0 Z " fill="#707475" transform="translate(655,418)"/>
<path d="M0 0 C0.66 0 1.32 0 2 0 C2.07466101 4.69560343 2.12884101 9.39085443 2.16479492 14.08691406 C2.17979745 15.68137641 2.20020621 17.27579808 2.22631836 18.87011719 C2.26308134 21.17393077 2.27981155 23.4771946 2.29296875 25.78125 C2.30845261 26.48366821 2.32393646 27.18608643 2.33988953 27.90979004 C2.34165035 33.19476225 1.06695859 37.13656803 -1 42 C-1.33 42 -1.66 42 -2 42 C-2 40.02 -2 38.04 -2 36 C-1.34 36 -0.68 36 0 36 C0 24.12 0 12.24 0 0 Z " fill="#75A570" transform="translate(943,434)"/>
<path d="M0 0 C8.91 0 17.82 0 27 0 C27 0.33 27 0.66 27 1 C23.7 1 20.4 1 17 1 C16.67 1.66 16.34 2.32 16 3 C10.72 3 5.44 3 0 3 C0 2.01 0 1.02 0 0 Z " fill="#B7C3B7" transform="translate(645,568)"/>
<path d="M0 0 C13.2 0 26.4 0 40 0 C40 0.33 40 0.66 40 1 C38.86820313 1.04898438 37.73640625 1.09796875 36.5703125 1.1484375 C35.08851661 1.22346514 33.606747 1.29901297 32.125 1.375 C31.37863281 1.4059375 30.63226562 1.436875 29.86328125 1.46875 C25.46526812 1.55643831 25.46526812 1.55643831 22 4 C21.01 4 20.02 4 19 4 C18.67 3.34 18.34 2.68 18 2 C12.06 1.67 6.12 1.34 0 1 C0 0.67 0 0.34 0 0 Z " fill="#7F8383" transform="translate(621,567)"/>
<path d="M0 0 C0.33 0 0.66 0 1 0 C1.054138 2.24973447 1.09285491 4.49984383 1.125 6.75 C1.14820313 8.00296875 1.17140625 9.2559375 1.1953125 10.546875 C1.01537302 13.72820492 0.68998582 15.36521896 -1 18 C-3.45029331 12.28264895 -4.33266291 8.20970773 -4 2 C-2 5 -2 5 -2 7 C-1.34 7 -0.68 7 0 7 C0 4.69 0 2.38 0 0 Z " fill="#76A771" transform="translate(180,447)"/>
<path d="M0 0 C5.60505859 -0.02475901 11.21008518 -0.04288802 16.81518555 -0.05493164 C18.72111567 -0.05995364 20.62704195 -0.06677248 22.53295898 -0.07543945 C25.27588856 -0.08759846 28.0187671 -0.09324971 30.76171875 -0.09765625 C32.03543587 -0.10539818 32.03543587 -0.10539818 33.33488464 -0.11329651 C37.35943048 -0.11367627 41.07253392 -0.0089224 45 1 C45 1.33 45 1.66 45 2 C39.61780205 3.12650655 39.61780205 3.12650655 36.78833008 2.54711914 C33.22134804 1.84721486 29.69596643 1.76790669 26.07421875 1.68359375 C25.32662796 1.66281265 24.57903717 1.64203156 23.80879211 1.62062073 C21.43511604 1.55555811 19.06133513 1.4964429 16.6875 1.4375 C15.07225505 1.39427354 13.45702047 1.35065796 11.84179688 1.30664062 C7.89463701 1.19992149 3.94737233 1.09853381 0 1 C0 0.67 0 0.34 0 0 Z " fill="#DAE6D8" transform="translate(893,402)"/>
<path d="M0 0 C0.99 0 1.98 0 3 0 C5.23891142 5.45126259 6.47606294 10.13190493 7 16 C6.34 15.67 5.68 15.34 5 15 C4.690625 13.845 4.38125 12.69 4.0625 11.5 C3.711875 10.345 3.36125 9.19 3 8 C2.01 7.67 1.02 7.34 0 7 C-0.33 7.99 -0.66 8.98 -1 10 C-2.27351308 7.45297384 -1.80191925 6.5717055 -1.0625 3.875 C-0.86785156 3.15054687 -0.67320312 2.42609375 -0.47265625 1.6796875 C-0.31667969 1.12539063 -0.16070312 0.57109375 0 0 Z " fill="#93B790" transform="translate(152,437)"/>
<path d="M0 0 C0.66 0 1.32 0 2 0 C2 0.99 2 1.98 2 3 C2.99 2.67 3.98 2.34 5 2 C4.14285714 10.57142857 4.14285714 10.57142857 2 14 C1.67 14 1.34 14 1 14 C0.63659714 12.23103898 0.28459117 10.45973374 -0.0625 8.6875 C-0.25972656 7.70136719 -0.45695312 6.71523438 -0.66015625 5.69921875 C-1 3 -1 3 0 0 Z " fill="#7DAA78" transform="translate(127,451)"/>
<path d="M0 0 C2.30010876 2.30010876 2.45884754 3.37521077 3.0625 6.5 C3.71952131 9.85459814 3.71952131 9.85459814 5 13 C5.04578072 14.35339258 5.03819761 15.70887217 5 17.0625 C4.93863256 21.78779311 5.40496282 26.31408219 6 31 C3.28096288 28.28096288 3.46146577 26.29061171 3 22.5 C2.33155282 17.32749209 1.51325437 12.27036747 0.3671875 7.18359375 C-0.04098826 4.75625069 -0.06045238 2.4569576 0 0 Z " fill="#93B78F" transform="translate(120,420)"/>
<path d="M0 0 C1.49609375 1.53515625 1.49609375 1.53515625 2.49609375 4.53515625 C1.50609375 4.53515625 0.51609375 4.53515625 -0.50390625 4.53515625 C-1.08140625 3.77203125 -1.65890625 3.00890625 -2.25390625 2.22265625 C-5.89413498 -2.12539473 -9.39067716 -3.21056502 -14.84765625 -3.8671875 C-18.0663313 -4.12258237 -21.27834854 -4.32418033 -24.50390625 -4.46484375 C-24.50390625 -4.79484375 -24.50390625 -5.12484375 -24.50390625 -5.46484375 C-15.01913826 -7.22128227 -7.67253517 -6.03613934 0 0 Z " fill="#83AE7E" transform="translate(939.50390625,422.46484375)"/>
<path d="M0 0 C3.00883315 1.50441658 3.25315322 3.8779219 4.33984375 6.94140625 C5.08950866 9.27911871 5.60710226 11.57713061 6 14 C6.2784375 15.1446875 6.2784375 15.1446875 6.5625 16.3125 C7.14883391 19.91426542 7.06183621 23.35166351 7 27 C6.67 27 6.34 27 6 27 C5.87625 25.948125 5.7525 24.89625 5.625 23.8125 C5.18193209 20.19346893 5.18193209 20.19346893 4.0625 17.75 C2.7311195 14.304074 2.05334167 10.80416857 1.375 7.1875 C1.2409375 6.49462891 1.106875 5.80175781 0.96875 5.08789062 C0.64141712 3.39277391 0.32009406 1.69649854 0 0 Z " fill="#DEE8D7" transform="translate(99,416)"/>
<path d="M0 0 C4.21817196 3.47854728 4.12468186 7.81542335 5 13 C10.28 13 15.56 13 21 13 C21.33 11.68 21.66 10.36 22 9 C22.33 9.66 22.66 10.32 23 11 C22.67 11.99 22.34 12.98 22 14 C16.06 14 10.12 14 4 14 C0 4.5 0 4.5 0 0 Z " fill="#D4E1D4" transform="translate(168,484)"/>
<path d="M0 0 C2.34498152 3.51747228 3.11486323 6.95002383 4.0625 11 C5.37173476 16.54369807 5.37173476 16.54369807 7 22 C7.66 21.01 8.32 20.02 9 19 C9 20.65 9 22.3 9 24 C8.01 24.33 7.02 24.66 6 25 C2.86592577 20.91207709 2.6035013 17.38997658 2.25 12.43359375 C1.94237478 9.43905453 1.00912791 6.82555814 0 4 C0 2.68 0 1.36 0 0 Z " fill="#CBDCC9" transform="translate(172,442)"/>
<path d="M0 0 C1.11991797 3.36315792 0.85748516 5.57005937 0.00390625 8.984375 C-0.22490234 9.91894531 -0.45371094 10.85351562 -0.68945312 11.81640625 C-0.93630859 12.78449219 -1.18316406 13.75257813 -1.4375 14.75 C-1.68048828 15.73355469 -1.92347656 16.71710938 -2.17382812 17.73046875 C-2.77428331 20.15583673 -3.38326726 22.57872945 -4 25 C-4.33 25 -4.66 25 -5 25 C-5.05410687 23.22950311 -5.09284119 21.45853151 -5.125 19.6875 C-5.14820313 18.70136719 -5.17140625 17.71523438 -5.1953125 16.69921875 C-5 14 -5 14 -3 11 C-2.92094936 8.66800612 -2.91201231 6.33167378 -3 4 C-2.34 4 -1.68 4 -1 4 C-1.33 3.01 -1.66 2.02 -2 1 C-1.34 0.67 -0.68 0.34 0 0 Z " fill="#D9E5D4" transform="translate(196,466)"/>
<path d="M0 0 C2.30211105 3.45316658 2.54039259 5.66088988 3.0625 9.75 C3.21847656 10.94109375 3.37445313 12.1321875 3.53515625 13.359375 C3.68855469 14.56078125 3.84195313 15.7621875 4 17 C4.32978145 19.33383799 4.66206179 21.66732914 5 24 C1.11453383 18.17180075 -1.90675646 8.71513359 -0.55078125 1.6640625 C-0.36902344 1.11492187 -0.18726562 0.56578125 0 0 Z " fill="#E0EAD9" transform="translate(118,416)"/>
<path d="M0 0 C4.35300554 4.35300554 4 6.39802514 4 13 C9.94 12.67 15.88 12.34 22 12 C22 12.66 22 13.32 22 14 C15.73 14 9.46 14 3 14 C1.60995008 9.13482528 0.60543875 4.94441643 0 0 Z " fill="#D5E2D2" transform="translate(115,484)"/>
<path d="M0 0 C6.16529701 0.31616908 10.17268433 3.49215061 15 7 C11.40383184 8.19872272 10.71078361 7.72500287 7.375 6.1875 C6.57835937 5.83042969 5.78171875 5.47335937 4.9609375 5.10546875 C3 4 3 4 2 2 C1.34 2 0.68 2 0 2 C0 1.34 0 0.68 0 0 Z " fill="#F3F2D7" transform="translate(423,402)"/>
<path d="M0 0 C1.32008896 3.30022241 0.67461384 5.42645297 -0.38671875 8.71875 C-1.72797237 13.70787175 -2.2778085 18.8908793 -3 24 C-3.33 24 -3.66 24 -4 24 C-4.33 21.36 -4.66 18.72 -5 16 C-4.34 16 -3.68 16 -3 16 C-3.03480469 15.26394531 -3.06960937 14.52789062 -3.10546875 13.76953125 C-3.37434095 4.07732865 -3.37434095 4.07732865 0 0 Z " fill="#7CA977" transform="translate(187,421)"/>
<path d="M0 0 C0.78761719 0.00257813 1.57523437 0.00515625 2.38671875 0.0078125 C3.16660156 0.00523437 3.94648438 0.00265625 4.75 0 C6.98673414 0.12781338 8.92688854 0.51367381 11.07421875 1.1328125 C10.74421875 2.1228125 10.41421875 3.1128125 10.07421875 4.1328125 C8.28328684 4.21367397 6.49132247 4.27193952 4.69921875 4.3203125 C3.20261719 4.37251953 3.20261719 4.37251953 1.67578125 4.42578125 C0.81726563 4.32910156 -0.04125 4.23242188 -0.92578125 4.1328125 C-1.58578125 3.1428125 -2.24578125 2.1528125 -2.92578125 1.1328125 C-1.92578125 0.1328125 -1.92578125 0.1328125 0 0 Z " fill="#F2F0D3" transform="translate(410.92578125,399.8671875)"/>
<path d="M0 0 C-7.76595776 5.33909596 -15.06507771 3.99758841 -24 3 C-23.67 2.34 -23.34 1.68 -23 1 C-20.54159395 0.97308315 -18.08348118 0.95320198 -15.625 0.9375 C-14.92632813 0.92912109 -14.22765625 0.92074219 -13.5078125 0.91210938 C-8.2265625 0.88671875 -8.2265625 0.88671875 -6 2 C-6 1.34 -6 0.68 -6 0 C-3 -1 -3 -1 0 0 Z " fill="#74A56E" transform="translate(938,479)"/>
<path d="M0 0 C1.38900827 3.91720319 0.81290055 7.43274433 0.3125 11.5 C0.16425781 12.8096875 0.01601562 14.119375 -0.13671875 15.46875 C-1.06043649 19.24721534 -2.00716483 20.61060817 -5 23 C-4.35731979 19.72853891 -3.71031325 16.45794819 -3.0625 13.1875 C-2.78889648 11.7943457 -2.78889648 11.7943457 -2.50976562 10.37304688 C-2.33251953 9.48037109 -2.15527344 8.58769531 -1.97265625 7.66796875 C-1.81031494 6.84578857 -1.64797363 6.0236084 -1.48071289 5.17651367 C-1 3 -1 3 0 0 Z " fill="#84AE7F" transform="translate(202,444)"/>
<path d="M0 0 C1.29065057 3.8719517 0.22324098 6.44232601 -0.9375 10.1875 C-1.23043945 11.16879883 -1.23043945 11.16879883 -1.52929688 12.16992188 C-2.01182563 13.78227407 -2.50490205 15.39146289 -3 17 C-3.33 17 -3.66 17 -4 17 C-3.67 14.03 -3.34 11.06 -3 8 C-3.66 7.67 -4.32 7.34 -5 7 C-2.25 1.125 -2.25 1.125 0 0 Z " fill="#80AC7B" transform="translate(136,436)"/>
<path d="M0 0 C0 3.78713193 -1.26892594 5.83354401 -3 9.1875 C-3.556875 10.27417969 -4.11375 11.36085938 -4.6875 12.48046875 C-5.120625 13.31191406 -5.55375 14.14335937 -6 15 C-6.66 14.34 -7.32 13.68 -8 13 C-7.24002685 11.20369983 -6.46662359 9.41307715 -5.6875 7.625 C-5.25824219 6.62726563 -4.82898438 5.62953125 -4.38671875 4.6015625 C-3 2 -3 2 0 0 Z " fill="#F5F7E1" transform="translate(398,418)"/>
<path d="M0 0 C3.96996957 1.32332319 5.76036395 4.0089399 8.14453125 7.24609375 C9 9 9 9 8 12 C7.34 11.67 6.68 11.34 6 11 C6 10.34 6 9.68 6 9 C5.34 8.67 4.68 8.34 4 8 C1.06285959 5.65028767 0.49766046 3.68268739 0 0 Z " fill="#F3F3D8" transform="translate(438,410)"/>
<path d="M0 0 C1.1700097 3.91736581 0.69584017 6.97959015 0 11 C-0.66 11 -1.32 11 -2 11 C-1.67 12.98 -1.34 14.96 -1 17 C-1.99 17.66 -2.98 18.32 -4 19 C-3.59060025 12.23784552 -2.43046191 6.32837252 0 0 Z " fill="#D0DFCC" transform="translate(143,412)"/>
<path d="M0 0 C4 2 4 2 5 4 C5.1875 7 5.1875 7 5 10 C4.34 10.66 3.68 11.32 3 12 C2.01 8.04 1.02 4.08 0 0 Z " fill="#F3F2D6" transform="translate(429,424)"/>
<path d="M0 0 C2.8125 1 2.8125 1 5 2 C5 2.33 5 2.66 5 3 C-0.94 3.495 -0.94 3.495 -7 4 C-7 3.01 -7 2.02 -7 1 C-4.44744228 -0.27627886 -2.84227731 -0.19829842 0 0 Z " fill="#F1EFD1" transform="translate(417,496)"/>
<path d="M0 0 C1.91760517 2.25110172 2.94004922 3.6852584 3.5 6.625 C3.78722409 9.36365337 3.78722409 9.36365337 7 11 C2.25 10.125 2.25 10.125 0 9 C-1.2757381 5.75266665 -0.83241855 3.32967418 0 0 Z " fill="#84AE7F" transform="translate(168,488)"/>
<path d="M0 0 C0.33 0 0.66 0 1 0 C0.51679152 6.2054142 -0.33318124 11.99945246 -2 18 C-2.33 18 -2.66 18 -3 18 C-4.125 11.25 -4.125 11.25 -3 9 C-2.34 9 -1.68 9 -1 9 C-0.67 6.03 -0.34 3.06 0 0 Z " fill="#D7E4D3" transform="translate(200,447)"/>
<path d="M0 0 C1.42242743 4.44508573 1.78796719 9.07932998 0 13.4375 C-0.33 13.953125 -0.66 14.46875 -1 15 C-1.66 15 -2.32 15 -3 15 C-2.66666667 12.66666667 -2.33333333 10.33333333 -2 8 C-1.835 6.72125 -1.67 5.4425 -1.5 4.125 C-1 1 -1 1 0 0 Z " fill="#D9E5D3" transform="translate(138,431)"/>
<path d="M0 0 C4.56454251 0.54339792 7.9728176 1.79463821 12 4 C12 4.66 12 5.32 12 6 C12.66 6.33 13.32 6.66 14 7 C9.25 6.125 9.25 6.125 7 5 C7 4.34 7 3.68 7 3 C5.02 3 3.04 3 1 3 C0.67 2.01 0.34 1.02 0 0 Z " fill="#DBE7D5" transform="translate(938,404)"/>
<path d="M0 0 C2 1 2 1 2.6328125 2.890625 C3.48563453 6.97875601 4.27121668 10.79614144 4 15 C3.67 14.34 3.34 13.68 3 13 C2.34 13 1.68 13 1 13 C0.67 8.71 0.34 4.42 0 0 Z " fill="#94B890" transform="translate(103,435)"/>
<path d="M0 0 C4.62 0.66 9.24 1.32 14 2 C14 2.33 14 2.66 14 3 C11.36 3 8.72 3 6 3 C5.67 3.66 5.34 4.32 5 5 C2.525 4.01 2.525 4.01 0 3 C0 2.01 0 1.02 0 0 Z " fill="#F0EECD" transform="translate(402,482)"/>
<path d="M0 0 C0 0.99 0 1.98 0 3 C-3.3 2.34 -6.6 1.68 -10 1 C-10 0.67 -10 0.34 -10 0 C-6.30458414 -0.95024979 -3.69541586 -0.95024979 0 0 Z " fill="#F1EFD0" transform="translate(408,497)"/>
<path d="M0 0 C0.33 0 0.66 0 1 0 C1.4375 2.625 1.4375 2.625 1 6 C-1.0949488 8.33122122 -3.46073827 10.17328621 -6 12 C-4 8 -2 4 0 0 Z " fill="#C8B875" transform="translate(449,475)"/>
<path d="M0 0 C1.38277746 3.84104849 0.84362303 7.06309254 0 11 C-1.5625 13.4375 -1.5625 13.4375 -3 15 C-2.44854729 9.76119922 -1.57077907 5.02649303 0 0 Z " fill="#83AD7E" transform="translate(206,428)"/>
<path d="M0 0 C0.33 0 0.66 0 1 0 C3.28571429 8.42857143 3.28571429 8.42857143 3 13 C1 12 1 12 -0.1875 9.875 C-1.20156877 6.28675666 -0.71075869 3.62486934 0 0 Z " fill="#E8EFDF" transform="translate(123,443)"/>
<path d="M0 0 C0.33 0 0.66 0 1 0 C1.52938657 1.95603851 2.04826801 3.91492289 2.5625 5.875 C2.99755859 7.51082031 2.99755859 7.51082031 3.44140625 9.1796875 C4 12 4 12 3 14 C2 13 2 13 1.9375 10.4375 C1.958125 9.633125 1.97875 8.82875 2 8 C1.01 7.67 0.02 7.34 -1 7 C-0.67 4.69 -0.34 2.38 0 0 Z " fill="#D2E0CD" transform="translate(165,415)"/>
<path d="M0 0 C3.72940389 1.24313463 4.84656811 2.76985216 7 6 C6.67 6.99 6.34 7.98 6 9 C0.42857143 3.85714286 0.42857143 3.85714286 0 0 Z " fill="#B6CEB1" transform="translate(955,414)"/>
<path d="M0 0 C1.9375 0.6875 1.9375 0.6875 2.9375 2.6875 C-0.6925 2.6875 -4.3225 2.6875 -8.0625 2.6875 C-2.0625 -0.3125 -2.0625 -0.3125 0 0 Z " fill="#7EAC79" transform="translate(205.0625,399.3125)"/>
<path d="M0 0 C2.7710688 2.34591852 3.52059284 4.14776201 4.1875 7.6875 C4.34605469 8.49574219 4.50460938 9.30398438 4.66796875 10.13671875 C4.77753906 10.75160156 4.88710937 11.36648438 5 12 C4.34 12 3.68 12 3 12 C2.49166409 10.75336669 1.99368855 9.50250613 1.5 8.25 C1.2215625 7.55390625 0.943125 6.8578125 0.65625 6.140625 C0 4 0 4 0 0 Z " fill="#DDE8D6" transform="translate(168,484)"/>
<path d="M0 0 C0.66 0 1.32 0 2 0 C2.625 3.375 2.625 3.375 3 7 C2.34 7.66 1.68 8.32 1 9 C0 8 0 8 -0.09765625 6.15234375 C-0.06510417 4.1015625 -0.03255208 2.05078125 0 0 Z " fill="#F3F2D6" transform="translate(374,467)"/>
<path d="M0 0 C0.99 0.99 1.98 1.98 3 3 C2.01 4.485 2.01 4.485 1 6 C-0.32 5.34 -1.64 4.68 -3 4 C-2.67 3.01 -2.34 2.02 -2 1 C-1.34 0.67 -0.68 0.34 0 0 Z " fill="#7F8484" transform="translate(692,449)"/>
<path d="M0 0 C-0.33 0.66 -0.66 1.32 -1 2 C-3.64 2 -6.28 2 -9 2 C-9 1.34 -9 0.68 -9 0 C-5.67465243 -1.10844919 -3.37817425 -0.84454356 0 0 Z " fill="#6F7374" transform="translate(1440,499)"/>
<path d="M0 0 C4 2 4 2 4.875 3.9375 C5 6 5 6 3 9 C2.01 6.03 1.02 3.06 0 0 Z " fill="#77A771" transform="translate(962,423)"/>
<path d="M0 0 C1.65 1.65 3.3 3.3 5 5 C4.67 5.66 4.34 6.32 4 7 C1.69 5.35 -0.62 3.7 -3 2 C-2.01 1.34 -1.02 0.68 0 0 Z " fill="#D0DFCB" transform="translate(936,417)"/>
</svg>
