<svg xmlns="http://www.w3.org/2000/svg" width="512" height="512" viewBox="0 0 512 512" version="1.1"><path d="M 232.500 18.033 C 183.807 28.270, 147.923 64.309, 138.016 112.923 C 136.230 121.684, 136 126.665, 136 156.513 L 136 190.212 128.858 197.856 C 105.216 223.159, 90.340 251.684, 82.826 286.120 C 80.832 295.260, 80.561 299.307, 80.561 320 C 80.561 345.856, 81.638 353.480, 88.165 373.857 C 110.195 442.629, 171.583 490.878, 243.415 495.879 C 323.939 501.486, 397.618 452.433, 422.946 376.353 C 430.309 354.238, 431.451 346.647, 431.429 320 C 431.411 299.407, 431.129 295.201, 429.148 286 C 421.890 252.294, 407.529 224.605, 383.937 198.828 L 376 190.157 376 157.209 C 376 120.920, 375.249 113.509, 369.980 97.782 C 356.181 56.594, 322.241 26.812, 279.077 18.016 C 265.942 15.339, 245.278 15.347, 232.500 18.033 M 240.500 33.100 C 231.803 34.342, 218.678 38.591, 209.610 43.100 C 184.330 55.673, 165.212 78.225, 156.677 105.541 C 152.889 117.665, 152 126.787, 152 153.536 L 152 177.927 160 172.756 L 168 167.585 168 148.424 C 168 119.063, 171.335 104.934, 182.193 88.302 C 212.902 41.260, 278.421 34.344, 318.038 73.962 C 326.593 82.516, 333.894 93.600, 338.088 104.401 C 342.549 115.889, 344 126.696, 344 148.424 L 344 167.585 352 172.756 L 360 177.927 359.996 153.214 C 359.993 136.289, 359.530 125.663, 358.527 119.500 C 349.389 63.357, 297.033 25.031, 240.500 33.100 M 247 64.933 C 218.212 68.933, 194.968 89.110, 187 117.016 C 185.350 122.794, 184.731 128.450, 184.284 141.825 L 183.706 159.150 187.603 157.475 C 200.136 152.088, 215.173 147.966, 231.449 145.456 C 246.665 143.110, 275.131 143.836, 290 146.950 C 300.335 149.114, 316.763 154.130, 324.390 157.450 L 328.281 159.144 327.731 142.322 C 327.327 129.934, 326.638 123.444, 325.119 117.700 C 318.622 93.131, 298.764 73.201, 274.644 67.039 C 265.864 64.796, 254.319 63.916, 247 64.933 M 241 160.595 C 197.651 165.746, 160.171 185.423, 133.937 216.805 C 115.774 238.532, 104.379 262.408, 98.768 290.497 C 95.602 306.344, 95.622 333.751, 98.811 349.728 C 107.402 392.770, 131.509 428.999, 167.666 453.208 C 230.204 495.080, 315.269 486.645, 368.633 433.281 C 400.615 401.299, 417.865 357.074, 415.701 312.608 C 412.106 238.720, 358.897 177.205, 286.265 162.968 C 275.882 160.933, 249.708 159.561, 241 160.595 M 246.618 281.048 C 240.290 282.638, 231.284 287.968, 226.912 292.711 C 224.667 295.147, 221.405 300.147, 219.665 303.820 C 216.803 309.861, 216.500 311.409, 216.500 320 C 216.500 328.604, 216.800 330.134, 219.685 336.223 C 221.437 339.921, 224.924 345.143, 227.435 347.827 L 232 352.707 232 373.988 C 232 399.294, 232.489 401.557, 239.466 408.534 C 246.795 415.863, 254.617 417.713, 264.310 414.410 C 269.967 412.482, 277.069 405.051, 278.811 399.236 C 279.568 396.710, 280 387.536, 280 373.988 L 280 352.707 284.565 347.827 C 287.076 345.143, 290.558 339.921, 292.302 336.223 C 295.128 330.236, 295.476 328.515, 295.487 320.500 C 295.496 314.460, 294.923 309.856, 293.746 306.500 C 290.263 296.571, 280.290 286.431, 270.286 282.649 C 264.640 280.514, 252.115 279.667, 246.618 281.048 M 249.713 297.400 C 239.499 300.194, 232.634 309.339, 232.734 320.017 C 232.821 329.238, 236.448 335.458, 245.041 341.120 L 247.500 342.740 248 368.845 C 248.483 394.052, 248.575 395.024, 250.694 397.141 C 253.569 400.013, 258.431 400.013, 261.306 397.141 C 263.429 395.020, 263.508 394.160, 263.755 370.724 C 263.895 357.401, 264.225 345.552, 264.488 344.394 C 264.751 343.236, 266.770 341.095, 268.974 339.636 C 276.950 334.358, 280.936 324.465, 278.905 314.991 C 276.127 302.040, 262.585 293.879, 249.713 297.400" stroke="none" fill="#1c84cc" fill-rule="evenodd"/><path d="M 240.500 33.100 C 231.803 34.342, 218.678 38.591, 209.610 43.100 C 184.330 55.673, 165.212 78.225, 156.677 105.541 C 152.889 117.665, 152 126.787, 152 153.536 L 152 177.927 160 172.756 L 168 167.585 168 148.424 C 168 119.063, 171.335 104.934, 182.193 88.302 C 212.902 41.260, 278.421 34.344, 318.038 73.962 C 326.593 82.516, 333.894 93.600, 338.088 104.401 C 342.549 115.889, 344 126.696, 344 148.424 L 344 167.585 352 172.756 L 360 177.927 359.996 153.214 C 359.993 136.289, 359.530 125.663, 358.527 119.500 C 349.389 63.357, 297.033 25.031, 240.500 33.100 M 241 160.595 C 197.651 165.746, 160.171 185.423, 133.937 216.805 C 115.774 238.532, 104.379 262.408, 98.768 290.497 C 95.602 306.344, 95.622 333.751, 98.811 349.728 C 107.402 392.770, 131.509 428.999, 167.666 453.208 C 230.204 495.080, 315.269 486.645, 368.633 433.281 C 400.615 401.299, 417.865 357.074, 415.701 312.608 C 412.106 238.720, 358.897 177.205, 286.265 162.968 C 275.882 160.933, 249.708 159.561, 241 160.595 M 246.618 281.048 C 240.290 282.638, 231.284 287.968, 226.912 292.711 C 224.667 295.147, 221.405 300.147, 219.665 303.820 C 216.803 309.861, 216.500 311.409, 216.500 320 C 216.500 328.604, 216.800 330.134, 219.685 336.223 C 221.437 339.921, 224.924 345.143, 227.435 347.827 L 232 352.707 232 373.988 C 232 399.294, 232.489 401.557, 239.466 408.534 C 246.795 415.863, 254.617 417.713, 264.310 414.410 C 269.967 412.482, 277.069 405.051, 278.811 399.236 C 279.568 396.710, 280 387.536, 280 373.988 L 280 352.707 284.565 347.827 C 287.076 345.143, 290.558 339.921, 292.302 336.223 C 295.128 330.236, 295.476 328.515, 295.487 320.500 C 295.496 314.460, 294.923 309.856, 293.746 306.500 C 290.263 296.571, 280.290 286.431, 270.286 282.649 C 264.640 280.514, 252.115 279.667, 246.618 281.048" stroke="none" fill="#9bcbfb" fill-rule="evenodd"/></svg>