<?xml version="1.0" encoding="UTF-8"?>
<svg version="1.1" xmlns="http://www.w3.org/2000/svg" width="1024" height="282">
<path d="M0 0 C1.90570015 -0.00422974 1.90570015 -0.00422974 3.84989929 -0.00854492 C5.27090468 -0.00660032 6.69190993 -0.00455214 8.11291504 -0.00241089 C9.59910627 -0.00376488 11.08529717 -0.00554479 12.57148743 -0.00772095 C16.61889525 -0.01229558 20.6662777 -0.0105056 24.71368599 -0.00734186 C28.93998409 -0.00481841 33.16627995 -0.00715576 37.39257812 -0.00872803 C44.49125562 -0.01054977 51.58992272 -0.0081433 58.68859863 -0.00338745 C66.90753878 0.00205518 75.12645412 0.00029252 83.34539366 -0.00521386 C90.38911003 -0.00974486 97.43281892 -0.0103956 104.47653627 -0.00777519 C108.68908883 -0.00621234 112.90162971 -0.00601885 117.11418152 -0.00931168 C121.07363235 -0.01219021 125.03305106 -0.01021504 128.9924984 -0.00441742 C130.44983046 -0.00308972 131.90716521 -0.0034841 133.36449623 -0.00568008 C135.34561698 -0.00839118 137.3267436 -0.00439713 139.30786133 0 C140.9748193 0.00056554 140.9748193 0.00056554 142.67545319 0.0011425 C145.15393066 0.12698364 145.15393066 0.12698364 146.15393066 1.12698364 C146.25058034 3.07593323 146.27580187 5.0284382 146.27418518 6.9797821 C146.27625143 8.88366243 146.27625143 8.88366243 146.27835941 10.82600498 C146.27481214 12.25128259 146.27117424 13.67655998 146.26745605 15.10183716 C146.26714995 16.61381751 146.26728282 18.125798 146.26782131 19.63777828 C146.26804783 23.70066703 146.26223613 27.76352656 146.25521088 31.82640839 C146.24953185 35.63359168 146.24924863 39.44076772 146.24853516 43.24795532 C146.24327993 54.39513533 146.22931889 65.54230985 146.21643066 76.68948364 C146.19580566 101.58385864 146.17518066 126.47823364 146.15393066 152.12698364 C95.66393066 152.12698364 45.17393066 152.12698364 -6.84606934 152.12698364 C-6.86669434 127.23260864 -6.88731934 102.33823364 -6.90856934 76.68948364 C-6.92222534 64.87824707 -6.92222534 64.87824707 -6.93615723 52.82839966 C-6.94067383 43.24795532 -6.94067383 43.24795532 -6.94151306 38.76966858 C-6.94244855 35.62720541 -6.94621117 32.48475897 -6.9516449 29.34230042 C-6.95847183 25.34150686 -6.96056649 21.34073784 -6.95914161 17.339939 C-6.95943984 15.86689583 -6.96144168 14.39385186 -6.96528447 12.92081368 C-6.97021319 10.94047592 -6.96847308 8.96012483 -6.96632385 6.9797821 C-6.96724565 5.86717797 -6.96816744 4.75457384 -6.96911716 3.60825443 C-6.73608263 -1.0909084 -4.11342929 0.00139554 0 0 Z " fill="#6AAA64" transform="translate(191.8460693359375,33.873016357421875)"/>
<path d="M0 0 C50.16 0 100.32 0 152 0 C152 50.16 152 100.32 152 152 C101.84 152 51.68 152 0 152 C0 101.84 0 51.68 0 0 Z " fill="#6EAC69" transform="translate(520,34)"/>
<path d="M0 0 C50.16 0 100.32 0 152 0 C152 50.16 152 100.32 152 152 C101.84 152 51.68 152 0 152 C0 101.84 0 51.68 0 0 Z " fill="#6EAC68" transform="translate(353,34)"/>
<path d="M0 0 C50.16 0 100.32 0 152 0 C152 50.16 152 100.32 152 152 C101.84 152 51.68 152 0 152 C0 101.84 0 51.68 0 0 Z " fill="#6FAC69" transform="translate(18,34)"/>
<path d="M0 0 C37.3415625 -0.0309375 37.3415625 -0.0309375 75.4375 -0.0625 C83.31165771 -0.071604 91.18581543 -0.08070801 99.29858398 -0.09008789 C108.87902832 -0.09460449 108.87902832 -0.09460449 113.35731506 -0.09544373 C116.49977823 -0.09637921 119.64222468 -0.10014184 122.78468323 -0.10557556 C126.78547678 -0.11240249 130.7862458 -0.11449715 134.78704464 -0.11307228 C136.26008781 -0.1133705 137.73313178 -0.11537235 139.20616996 -0.11921513 C141.18650772 -0.12414385 143.16685882 -0.12240374 145.14720154 -0.12025452 C146.25980567 -0.12117631 147.3724098 -0.1220981 148.51872921 -0.12304783 C151 0 151 0 152 1 C152.09664967 2.94894959 152.12187121 4.90145455 152.12025452 6.85279846 C152.12232076 8.75667879 152.12232076 8.75667879 152.12442875 10.69902134 C152.12088148 12.12429895 152.11724358 13.54957634 152.11352539 14.97485352 C152.11321928 16.48683386 152.11335216 17.99881436 152.11389065 19.51079464 C152.11411716 23.57368339 152.10830547 27.63654291 152.10128021 31.69942474 C152.09560119 35.50660803 152.09531796 39.31378408 152.09460449 43.12097168 C152.08934927 54.26815168 152.07538822 65.41532621 152.0625 76.5625 C152.041875 101.456875 152.02125 126.35125 152 152 C101.84 152 51.68 152 0 152 C0 101.84 0 51.68 0 0 Z " fill="#6EAC68" transform="translate(855,34)"/>
<path d="M0 0 C1.6689062 0.00138269 1.6689062 0.00138269 3.37152767 0.00279331 C4.64078122 0.00141582 5.91003477 0.00003832 7.21775055 -0.00138092 C8.64302816 0.00216635 10.06830555 0.00580425 11.49358273 0.00952244 C13.00556307 0.00982855 14.51754357 0.00969567 16.02952385 0.00915718 C20.0924126 0.00893066 24.15527212 0.01474236 28.21815395 0.02176762 C32.02533724 0.02744664 35.83251329 0.02772987 39.63970089 0.02844334 C50.78688089 0.03369856 61.93405542 0.0476596 73.08122921 0.06054783 C97.97560421 0.08117283 122.86997921 0.10179783 148.51872921 0.12304783 C148.51872921 50.28304783 148.51872921 100.44304783 148.51872921 152.12304783 C98.35872921 152.12304783 48.19872921 152.12304783 -3.48127079 152.12304783 C-3.50189579 127.22867283 -3.52252079 102.33429783 -3.54377079 76.68554783 C-3.5574268 64.87431126 -3.5574268 64.87431126 -3.57135868 52.82446384 C-3.57587528 43.24401951 -3.57587528 43.24401951 -3.57671452 38.76573277 C-3.57765 35.6232696 -3.58141263 32.48082315 -3.58684635 29.3383646 C-3.59367328 25.33757105 -3.59576794 21.33680202 -3.59434307 17.33600318 C-3.59464129 15.86296002 -3.59664314 14.38991605 -3.60048592 12.91687787 C-3.60541464 10.93654011 -3.60367453 8.95618901 -3.60152531 6.97584629 C-3.6024471 5.86324216 -3.60336889 4.75063803 -3.60431862 3.60431862 C-3.43852004 0.26097494 -3.34334368 0.16579858 0 0 Z " fill="#6DAC68" transform="translate(690.4812707901001,33.876952171325684)"/>
<path d="M0 0 C1.22371069 1.00234839 2.43387873 2.02163485 3.625 3.0625 C4.49125 3.805 5.3575 4.5475 6.25 5.3125 C14.53544102 14.90616855 18.16452169 25.00401114 18 37.5625 C18.01160156 38.44808594 18.02320313 39.33367187 18.03515625 40.24609375 C18.00821433 46.3619091 16.91169523 51.40355599 14.625 57.0625 C14.345354 57.75633789 14.06570801 58.45017578 13.77758789 59.16503906 C10.12094396 67.79402989 3.1113291 75.19154287 -5.375 79.0625 C-6.03113281 79.43117188 -6.68726563 79.79984375 -7.36328125 80.1796875 C-17.24608879 85.12962565 -30.58291747 84.58505906 -41 81.5 C-52.62183009 76.83831885 -60.45629764 67.7987629 -65.5703125 56.51171875 C-67.90242566 50.42939981 -68.00164551 44.63978344 -67.9375 38.1875 C-67.96134766 37.09308594 -67.98519531 35.99867187 -68.00976562 34.87109375 C-67.98854605 22.91739858 -63.67837189 12.67951815 -55.375 4.0625 C-40.26074857 -9.28714339 -16.90375873 -12.11436042 0 0 Z " fill="#FBFCFB" transform="translate(285.375,71.9375)"/>
<path d="M0 0 C55.43427621 0 55.43427621 0 66 10 C68.69352096 13.15639294 70.98660076 16.37259866 73 20 C73.54785156 20.98613281 74.09570312 21.97226563 74.66015625 22.98828125 C76.90582753 28.43061934 76.48741569 34.33596842 76.4375 40.125 C76.42992676 41.33389893 76.42235352 42.54279785 76.41455078 43.78833008 C76.19164882 55.83073081 74.58091328 65.96117255 66 75 C65.12021484 75.93972656 65.12021484 75.93972656 64.22265625 76.8984375 C57.02817595 83.87222822 48.43892945 86.45765371 38.54919434 86.45263672 C37.59065552 86.43217285 36.6321167 86.41170898 35.64453125 86.390625 C34.73167358 86.38659668 33.81881592 86.38256836 32.8782959 86.37841797 C29.52282118 86.35775429 26.16763676 86.30191257 22.8125 86.25 C15.284375 86.1675 7.75625 86.085 0 86 C0 57.62 0 29.24 0 0 Z " fill="#FCFDFC" transform="translate(559,67)"/>
<path d="M0 0 C6.27 0 12.54 0 19 0 C20.76523861 3.53047722 21.35327619 5.42761752 21.87109375 9.1953125 C23.11604693 17.21023103 25.10197954 25.01197802 27.0625 32.875 C27.61116205 35.08609114 28.15847266 37.29749595 28.70323181 39.509552 C29.19387643 41.50040947 29.68872659 43.49022913 30.18383789 45.47998047 C31 49 31 49 31.48608398 52.39892578 C31.65567627 53.25728027 31.82526855 54.11563477 32 55 C32.99 55.495 32.99 55.495 34 56 C34.11472656 54.86433594 34.22945312 53.72867188 34.34765625 52.55859375 C34.92940499 47.91176068 36.11724201 43.54675819 37.4375 39.0625 C39.010511 33.65264911 40.43157361 28.27102968 41.55493164 22.74780273 C42 21 42 21 43 20 C43.3261241 18.33973186 43.61039698 16.67117697 43.875 15 C44.77871006 9.7625894 46.198524 4.99500164 48 0 C53.94 0 59.88 0 66 0 C67.41492228 4.24476683 68.63200264 8.31408363 69.69140625 12.640625 C69.99626953 13.87554687 70.30113281 15.11046875 70.61523438 16.3828125 C71.09149234 18.32712337 71.56774696 20.27143507 72.04370117 22.21582031 C72.50770814 24.10788754 72.97451455 25.99926755 73.44140625 27.890625 C73.85434937 29.57720215 73.85434937 29.57720215 74.27563477 31.29785156 C74.88797937 33.94293362 74.88797937 33.94293362 76 36 C76.15425357 37.35114699 76.27454015 38.70629199 76.375 40.0625 C76.79290445 44.31005341 77.86435467 47.97861585 79.37890625 51.95703125 C80 54 80 54 80 58 C80.66 58 81.32 58 82 58 C82.93965215 53.50072439 83.84206514 49.00655666 84.5546875 44.46484375 C86.52447023 31.9515814 89.86011475 19.86816058 93.29150391 7.68457031 C93.96110587 5.14737416 94.48537799 2.57311004 95 0 C101.27 0 107.54 0 114 0 C113.443125 2.206875 112.88625 4.41375 112.3125 6.6875 C111.11752811 11.42481607 109.9526674 16.1659493 108.8671875 20.9296875 C106.51366609 31.2057096 103.76467485 41.24703479 100.59765625 51.30249023 C98.18401205 59.08927163 96.28755855 66.93478169 94.59765625 74.90795898 C94.41460937 75.76591064 94.2315625 76.6238623 94.04296875 77.5078125 C93.88852295 78.25691895 93.73407715 79.00602539 93.57495117 79.77783203 C93 82 93 82 91 87 C84.4 87 77.8 87 71 87 C67.85233777 75.28020428 64.8092914 63.58445438 62.40820312 51.68701172 C60.9152342 44.36862925 59.02045172 37.18979895 57 30 C56.77449463 30.95531616 56.77449463 30.95531616 56.54443359 31.92993164 C53.50911762 44.75832866 50.39677532 57.55767055 47.00537109 70.29711914 C46.65466553 71.61957642 46.65466553 71.61957642 46.296875 72.96875 C46.09416992 73.72607422 45.89146484 74.48339844 45.68261719 75.26367188 C44.7112826 79.15734787 43.87054286 83.08255711 43 87 C36.07 87 29.14 87 22 87 C21.608125 85.02 21.21625 83.04 20.8125 81 C19.65727331 75.56331705 18.23017183 70.34091364 16.5 65.0625 C14.86088551 60.04439868 13.5605223 55.14639576 12.625 49.9375 C11.19975928 42.19341748 8.90942213 34.78929559 6.51220703 27.29467773 C4.82076831 21.95297522 3.44246912 16.71365313 2.51196289 11.18481445 C2.09160275 8.96659011 2.09160275 8.96659011 0.94311523 7.02807617 C0 5 0 5 0 0 Z " fill="#FBFCFB" transform="translate(37,66)"/>
<path d="M0 0 C8.53875 -0.103125 17.0775 -0.20625 25.875 -0.3125 C28.55093262 -0.35802002 31.22686523 -0.40354004 33.98388672 -0.45043945 C36.13247427 -0.46505838 38.2810758 -0.47779572 40.4296875 -0.48828125 C42.06949585 -0.526651 42.06949585 -0.526651 43.74243164 -0.5657959 C54.01879225 -0.57157303 61.5959961 2.9661963 69 10 C72.37461466 15.061922 72.19729048 20.53335944 72.3125 26.5 C72.36857422 28.40265625 72.36857422 28.40265625 72.42578125 30.34375 C71.79317425 35.77604501 69.09890523 39.49145288 64.875 42.875 C62 45 62 45 60 45 C60 45.66 60 46.32 60 47 C60.7425 47.226875 61.485 47.45375 62.25 47.6875 C67.10076881 50.00263966 69.32879765 54.01862361 71.36230469 58.87524414 C72.60897092 63.0290482 72.49915998 67.31787849 72.5625 71.625 C72.59712243 73.47152953 72.63983088 75.3179287 72.69140625 77.1640625 C72.70989624 78.37763428 72.70989624 78.37763428 72.72875977 79.61572266 C72.9529152 82.52043796 72.9529152 82.52043796 75 87 C68.73 87 62.46 87 56 87 C54.18811102 83.37622203 53.6683863 81.59507154 53.2890625 77.71875 C53.17820312 76.71199219 53.06734375 75.70523438 52.953125 74.66796875 C52.73445646 72.55677603 52.52351047 70.4447691 52.3203125 68.33203125 C52.206875 67.32527344 52.0934375 66.31851563 51.9765625 65.28125 C51.88455566 64.36408203 51.79254883 63.44691406 51.69775391 62.50195312 C50.82459385 59.37104191 49.46370876 58.06795332 47 56 C44.37276604 54.68638302 42.27389439 54.78746091 39.3359375 54.68359375 C38.3257959 54.64548584 37.3156543 54.60737793 36.27490234 54.56811523 C34.98793457 54.52501221 33.7009668 54.48190918 32.375 54.4375 C26.249375 54.2209375 26.249375 54.2209375 20 54 C20 64.89 20 75.78 20 87 C13.4 87 6.8 87 0 87 C0 58.29 0 29.58 0 0 Z " fill="#FAFCFA" transform="translate(392,66)"/>
<path d="M0 0 C21.45 0 42.9 0 65 0 C65 5.28 65 10.56 65 16 C49.82 16 34.64 16 19 16 C19 21.94 19 27.88 19 34 C32.86 34 46.72 34 61 34 C61 38.95 61 43.9 61 49 C47.14 49 33.28 49 19 49 C19 55.93 19 62.86 19 70 C34.51 70 50.02 70 66 70 C66 75.28 66 80.56 66 86 C44.22 86 22.44 86 0 86 C0 57.62 0 29.24 0 0 Z " fill="#FDFEFD" transform="translate(899,67)"/>
<path d="M0 0 C6.27 0 12.54 0 19 0 C19 23.1 19 46.2 19 70 C33.19 70 47.38 70 62 70 C62 75.28 62 80.56 62 86 C41.54 86 21.08 86 0 86 C0 57.62 0 29.24 0 0 Z " fill="#FDFDFD" transform="translate(734,67)"/>
<path d="M0 0 C5.38140337 3.96348173 9.58201727 8.99564066 11.4609375 15.46875 C12.45945494 22.37516226 12.08543863 29.42988826 11.8828125 36.38671875 C11.2228125 36.38671875 10.5628125 36.38671875 9.8828125 36.38671875 C9.934375 37.11890625 9.9859375 37.85109375 10.0390625 38.60546875 C9.72977162 44.11084634 5.96151951 48.21261214 2.265625 52.078125 C-2.16308771 55.53252091 -6.76901993 55.85893328 -12.2421875 55.94921875 C-12.9232959 55.96412354 -13.6044043 55.97902832 -14.30615234 55.99438477 C-20.70314128 55.86283316 -24.20454032 53.16274827 -28.7421875 48.94921875 C-34.658219 41.36750848 -36.06768389 30.69307147 -35.1171875 21.38671875 C-34.10099211 14.41852179 -32.46239095 7.78646182 -27.4296875 2.63671875 C-19.39544181 -3.34455016 -8.92270049 -5.14771182 0 0 Z " fill="#6CAB66" transform="translate(272.1171875,83.61328125)"/>
<path d="M0 0 C25.49602122 0 25.49602122 0 31.9375 5.9375 C32.48277344 6.42089844 33.02804687 6.90429688 33.58984375 7.40234375 C39.3395811 13.91658912 38.35440768 24.16327818 38.2734375 32.30078125 C37.75528229 39.31068102 35.8128878 44.71962508 30.5625 49.5 C21.30058625 56.89233952 12.64208617 54 0 54 C0 36.18 0 18.36 0 0 Z " fill="#6BAA65" transform="translate(578,83)"/>
<path d="M0 0 C1.90570015 -0.00422974 1.90570015 -0.00422974 3.84989929 -0.00854492 C5.27090468 -0.00660032 6.69190993 -0.00455214 8.11291504 -0.00241089 C9.59910627 -0.00376488 11.08529717 -0.00554479 12.57148743 -0.00772095 C16.61889525 -0.01229558 20.6662777 -0.0105056 24.71368599 -0.00734186 C28.93998409 -0.00481841 33.16627995 -0.00715576 37.39257812 -0.00872803 C44.49125562 -0.01054977 51.58992272 -0.0081433 58.68859863 -0.00338745 C66.90753878 0.00205518 75.12645412 0.00029252 83.34539366 -0.00521386 C90.38911003 -0.00974486 97.43281892 -0.0103956 104.47653627 -0.00777519 C108.68908883 -0.00621234 112.90162971 -0.00601885 117.11418152 -0.00931168 C121.07363235 -0.01219021 125.03305106 -0.01021504 128.9924984 -0.00441742 C130.44983046 -0.00308972 131.90716521 -0.0034841 133.36449623 -0.00568008 C135.34561698 -0.00839118 137.3267436 -0.00439713 139.30786133 0 C140.9748193 0.00056554 140.9748193 0.00056554 142.67545319 0.0011425 C145.15393066 0.12698364 145.15393066 0.12698364 146.15393066 1.12698364 C146.25058034 3.07593323 146.27580187 5.0284382 146.27418518 6.9797821 C146.27625143 8.88366243 146.27625143 8.88366243 146.27835941 10.82600498 C146.27481214 12.25128259 146.27117424 13.67655998 146.26745605 15.10183716 C146.26714995 16.61381751 146.26728282 18.125798 146.26782131 19.63777828 C146.26804783 23.70066703 146.26223613 27.76352656 146.25521088 31.82640839 C146.24953185 35.63359168 146.24924863 39.44076772 146.24853516 43.24795532 C146.24327993 54.39513533 146.22931889 65.54230985 146.21643066 76.68948364 C146.19580566 101.58385864 146.17518066 126.47823364 146.15393066 152.12698364 C95.66393066 152.12698364 45.17393066 152.12698364 -6.84606934 152.12698364 C-6.86669434 127.23260864 -6.88731934 102.33823364 -6.90856934 76.68948364 C-6.92222534 64.87824707 -6.92222534 64.87824707 -6.93615723 52.82839966 C-6.94067383 43.24795532 -6.94067383 43.24795532 -6.94151306 38.76966858 C-6.94244855 35.62720541 -6.94621117 32.48475897 -6.9516449 29.34230042 C-6.95847183 25.34150686 -6.96056649 21.34073784 -6.95914161 17.339939 C-6.95943984 15.86689583 -6.96144168 14.39385186 -6.96528447 12.92081368 C-6.97021319 10.94047592 -6.96847308 8.96012483 -6.96632385 6.9797821 C-6.96724565 5.86717797 -6.96816744 4.75457384 -6.96911716 3.60825443 C-6.73608263 -1.0909084 -4.11342929 0.00139554 0 0 Z M-4.84606934 2.12698364 C-4.84606934 51.29698364 -4.84606934 100.46698364 -4.84606934 151.12698364 C44.32393066 151.12698364 93.49393066 151.12698364 144.15393066 151.12698364 C144.15393066 101.95698364 144.15393066 52.78698364 144.15393066 2.12698364 C94.98393066 2.12698364 45.81393066 2.12698364 -4.84606934 2.12698364 Z " fill="#BFD6BB" transform="translate(191.8460693359375,33.873016357421875)"/>
<path d="M0 0 C4.18819732 -0.10823769 8.37357885 -0.18744544 12.5625 -0.25 C14.33463867 -0.30027344 14.33463867 -0.30027344 16.14257812 -0.3515625 C22.91808457 -0.42747854 27.64952989 -0.39091665 33 4 C33.91015625 5.91015625 33.91015625 5.91015625 34 8 C34.15275391 9.29744141 34.15275391 9.29744141 34.30859375 10.62109375 C34.65007295 18.08189697 34.65007295 18.08189697 32.73046875 20.79296875 C28.44306471 24.35015799 25.52885929 25.1239265 20.1171875 25.09765625 C18.95058594 25.09443359 17.78398437 25.09121094 16.58203125 25.08789062 C15.35871094 25.07951172 14.13539063 25.07113281 12.875 25.0625 C11.64394531 25.05798828 10.41289062 25.05347656 9.14453125 25.04882812 C6.09633361 25.03701341 3.04816084 25.0190775 0 25 C0 16.75 0 8.5 0 0 Z " fill="#6FAC69" transform="translate(411,81)"/>
<path d="M0 0 C3.3 0 6.6 0 10 0 C12.31 6.27 14.62 12.54 17 19 C19.50997937 12.31620763 19.50997937 12.31620763 21.625 5.5625 C22.8891258 1.1108742 22.8891258 1.1108742 24 0 C27.3 0 30.6 0 34 0 C34 10.56 34 21.12 34 32 C31.69 32 29.38 32 27 32 C26.67 26.72 26.34 21.44 26 16 C24.02 21.28 22.04 26.56 20 32 C18.02 32 16.04 32 14 32 C13.18457569 29.91780951 12.37276811 27.83420239 11.5625 25.75 C10.88380859 24.00976562 10.88380859 24.00976562 10.19140625 22.234375 C9 19 9 19 8 15 C7.67 20.61 7.34 26.22 7 32 C4.69 32 2.38 32 0 32 C0 21.44 0 10.88 0 0 Z " fill="#FFFFFF" transform="translate(695,225)"/>
<path d="M0 0 C2.31 0 4.62 0 7 0 C8.65 5.94 10.3 11.88 12 18 C13.65 12.06 15.3 6.12 17 0 C19.31 0 21.62 0 24 0 C26.475 8.91 26.475 8.91 29 18 C30.65 12.06 32.3 6.12 34 0 C36.31 0 38.62 0 41 0 C39.69783005 11.04599338 36.33414737 21.42984325 33 32 C30.69 32 28.38 32 26 32 C23.69321685 26.0682719 21.7822571 20.11059576 20 14 C18.68 19.94 17.36 25.88 16 32 C13.36 32 10.72 32 8 32 C6.84379872 28.16971731 5.70194056 24.33529894 4.5625 20.5 C4.23701172 19.42234375 3.91152344 18.3446875 3.57617188 17.234375 C1.87064165 11.46722125 0.51664358 5.99597624 0 0 Z " fill="#FFFFFF" transform="translate(462,225)"/>
<path d="M0 0 C0.69996094 -0.020625 1.39992188 -0.04125 2.12109375 -0.0625 C8.28057574 -0.10821044 12.98455947 1.17409112 17.75 5.3125 C20.70966233 10.66265883 20.90799738 16.59938022 19.8125 22.5625 C18.01019108 27.18581418 16.44176855 28.51115587 12.375 31.25 C8.48936275 32.54521242 4.79699731 32.39503464 0.75 32.375 C-0.03890625 32.37886719 -0.8278125 32.38273437 -1.640625 32.38671875 C-7.49834606 32.37665394 -7.49834606 32.37665394 -8.625 31.25 C-8.72512401 29.04349344 -8.7558118 26.83377614 -8.7578125 24.625 C-8.75876923 23.96290527 -8.75972595 23.30081055 -8.76071167 22.61865234 C-8.76139326 21.21647039 -8.75954042 19.8142853 -8.75537109 18.41210938 C-8.75002246 16.25904287 -8.7553167 14.10618498 -8.76171875 11.953125 C-8.76105796 10.59374954 -8.75977679 9.2343742 -8.7578125 7.875 C-8.75668457 6.62976563 -8.75555664 5.38453125 -8.75439453 4.1015625 C-8.50328203 -1.43238851 -4.52476915 0.03226217 0 0 Z M-0.625 6.25 C-0.625 12.85 -0.625 19.45 -0.625 26.25 C7.69365809 27.13576499 7.69365809 27.13576499 10.9375 24.375 C12.98416726 19.92572335 13.26629059 16.06139167 12.375 11.25 C10.58153576 7.95611088 10.58153576 7.95611088 7.375 6.25 C4.735 6.25 2.095 6.25 -0.625 6.25 Z " fill="#FFFFFF" transform="translate(321.625,224.75)"/>
<path d="M0 0 C3.196875 -0.061875 6.39375 -0.12375 9.6875 -0.1875 C11.18543091 -0.22846802 11.18543091 -0.22846802 12.71362305 -0.27026367 C17.62423689 -0.31627748 21.0387051 -0.25989862 25 3 C27.14773076 5.73347551 26.99822079 7.02535374 26.75 10.5625 C26 14 26 14 24 17 C24.66 17.99 25.32 18.98 26 20 C26.4140625 22.91796875 26.4140625 22.91796875 26.625 26.1875 C26.69976563 27.27417969 26.77453125 28.36085937 26.8515625 29.48046875 C26.92503906 30.72763672 26.92503906 30.72763672 27 32 C24.69 32 22.38 32 20 32 C19.01 28.04 18.02 24.08 17 20 C14.03 19.67 11.06 19.34 8 19 C8.01160156 19.85464844 8.02320313 20.70929688 8.03515625 21.58984375 C8.04417969 22.69457031 8.05320312 23.79929688 8.0625 24.9375 C8.07410156 26.03964844 8.08570313 27.14179688 8.09765625 28.27734375 C8 31 8 31 7 32 C4.69 32 2.38 32 0 32 C0 21.44 0 10.88 0 0 Z M8 6 C8 8.64 8 11.28 8 14 C9.8871875 14.061875 9.8871875 14.061875 11.8125 14.125 C12.52019531 14.14820313 13.22789062 14.17140625 13.95703125 14.1953125 C16.31359719 14.13254462 16.31359719 14.13254462 19 12 C18.65555119 9.52733235 18.65555119 9.52733235 18 7 C15.71294169 5.85647084 14.40735238 5.89665561 11.875 5.9375 C9.956875 5.9684375 9.956875 5.9684375 8 6 Z " fill="#FFFFFF" transform="translate(545,225)"/>
<path d="M0 0 C4.021875 -0.0928125 4.021875 -0.0928125 8.125 -0.1875 C8.95789551 -0.21481201 9.79079102 -0.24212402 10.64892578 -0.27026367 C15.5165823 -0.32427131 18.78185795 0.3151494 23 3 C27.88203652 8.40982426 28.34514601 11.85579764 28.28515625 19.01171875 C27.80981716 23.99301195 25.58239469 26.60941073 21.9375 29.8125 C18.92420017 31.65936119 16.44477382 32.12364492 12.98828125 32.09765625 C11.96408081 32.09390991 11.96408081 32.09390991 10.91918945 32.09008789 C9.62887817 32.07643188 9.62887817 32.07643188 8.3125 32.0625 C4.1978125 32.0315625 4.1978125 32.0315625 0 32 C0 21.44 0 10.88 0 0 Z M7 6 C7 12.6 7 19.2 7 26 C15.35284977 26.83205029 15.35284977 26.83205029 19 24 C20.45270483 19.64188552 20.62308841 15.54999445 20 11 C18.20653576 7.70611088 18.20653576 7.70611088 15 6 C12.36 6 9.72 6 7 6 Z " fill="#FFFFFF" transform="translate(579,225)"/>
<path d="M0 0 C2.91604293 3.09277281 4.0625 4.91361905 4.0625 9.1875 C1.7525 9.1875 -0.5575 9.1875 -2.9375 9.1875 C-3.5975 7.8675 -4.2575 6.5475 -4.9375 5.1875 C-7.9075 5.1875 -10.8775 5.1875 -13.9375 5.1875 C-16.8501011 9.73115771 -17.33678711 12.93483719 -16.50390625 18.125 C-15.65283951 21.22405683 -14.7276361 22.57215805 -11.9375 24.1875 C-8.34278996 24.43588381 -8.34278996 24.43588381 -4.9375 23.1875 C-2.94666823 20.7623212 -2.94666823 20.7623212 -1.9375 18.1875 C-4.2475 18.1875 -6.5575 18.1875 -8.9375 18.1875 C-8.9375 16.2075 -8.9375 14.2275 -8.9375 12.1875 C-4.6475 12.1875 -0.3575 12.1875 4.0625 12.1875 C4.0625 18.1275 4.0625 24.0675 4.0625 30.1875 C2.0825 29.8575 0.1025 29.5275 -1.9375 29.1875 C-3.0821875 29.6825 -3.0821875 29.6825 -4.25 30.1875 C-9.12163421 32.0002011 -13.98139943 30.92647133 -18.75 29.125 C-22.50787626 25.79659531 -24.52184858 21.87999752 -25.2890625 16.91015625 C-25.50331107 11.213092 -24.5541878 6.01674788 -20.54296875 1.6796875 C-14.46246813 -3.70809786 -6.94077224 -4.28260415 0 0 Z " fill="#FFFFFF" transform="translate(650.9375,226.8125)"/>
<path d="M0 0 C4.05951547 3.36311324 6.6583729 6.17274234 7.23046875 11.57421875 C7.23626953 13.10755859 7.23626953 13.10755859 7.2421875 14.671875 C7.25894531 15.69152344 7.27570312 16.71117187 7.29296875 17.76171875 C6.66252641 22.92049963 3.81110271 26.42375614 -0.0703125 29.734375 C-4.09935092 31.91223361 -7.53256483 32.13242304 -12.0703125 31.734375 C-17.3294096 29.84110004 -19.86039844 27.13654285 -23.0703125 22.734375 C-24.92835668 17.16024247 -24.87662634 11.79161932 -22.3828125 6.421875 C-20.18060333 2.51548276 -17.57996173 -0.46544698 -13.18359375 -1.8671875 C-8.59434433 -2.7324434 -4.03680625 -2.46778344 0 0 Z M-15.0703125 6.171875 C-17.09577096 11.36211231 -17.74306634 15.88430194 -15.8203125 21.171875 C-14.16172905 23.94374275 -14.16172905 23.94374275 -11.0703125 25.734375 C-6.32180727 25.49499707 -6.32180727 25.49499707 -2.1953125 23.359375 C0.44889937 19.53995786 0.50161438 15.20045109 -0.0703125 10.734375 C-1.28311312 7.12282135 -1.28311312 7.12282135 -4.0703125 4.734375 C-8.07108415 3.79556577 -11.67157201 3.72903027 -15.0703125 6.171875 Z " fill="#FFFFFF" transform="translate(531.0703125,226.265625)"/>
<path d="M0 0 C7.92 0 15.84 0 24 0 C24 1.98 24 3.96 24 6 C18.72 6 13.44 6 8 6 C8 7.98 8 9.96 8 12 C12.62 12 17.24 12 22 12 C22 13.98 22 15.96 22 18 C17.38 18 12.76 18 8 18 C8 20.64 8 23.28 8 26 C13.28 26 18.56 26 24 26 C24 27.98 24 29.96 24 32 C16.08 32 8.16 32 0 32 C0 21.44 0 10.88 0 0 Z " fill="#FFFFFF" transform="translate(737,225)"/>
<path d="M0 0 C1.134375 0.020625 2.26875 0.04125 3.4375 0.0625 C3.67694336 0.66255859 3.91638672 1.26261719 4.16308594 1.88085938 C5.95745629 6.37286492 7.75915395 10.86164453 9.578125 15.34375 C10.28125 17.08333333 10.984375 18.82291667 11.6875 20.5625 C12.05101562 21.45453125 12.41453125 22.3465625 12.7890625 23.265625 C13.13195312 24.11640625 13.47484375 24.9671875 13.828125 25.84375 C14.13782227 26.60751953 14.44751953 27.37128906 14.76660156 28.15820312 C15.4375 30.0625 15.4375 30.0625 15.4375 32.0625 C12.7975 32.0625 10.1575 32.0625 7.4375 32.0625 C6.7775 30.4125 6.1175 28.7625 5.4375 27.0625 C1.4775 26.7325 -2.4825 26.4025 -6.5625 26.0625 C-7.2225 28.0425 -7.8825 30.0225 -8.5625 32.0625 C-10.8725 32.0625 -13.1825 32.0625 -15.5625 32.0625 C-13.91287091 24.57043453 -11.28544053 17.53967794 -8.4375 10.4375 C-7.89609375 9.08543457 -7.89609375 9.08543457 -7.34375 7.70605469 C-4.24331716 0.07444416 -4.24331716 0.07444416 0 0 Z M-1.5625 10.0625 C-2.2225 13.0325 -2.8825 16.0025 -3.5625 19.0625 C-1.5825 19.0625 0.3975 19.0625 2.4375 19.0625 C1.7775 16.0925 1.1175 13.1225 0.4375 10.0625 C-0.2225 10.0625 -0.8825 10.0625 -1.5625 10.0625 Z " fill="#FFFFFF" transform="translate(675.5625,224.9375)"/>
<path d="M0 0 C1.134375 0.020625 2.26875 0.04125 3.4375 0.0625 C6.26129148 5.48393515 8.58548545 10.84563207 10.5625 16.625 C10.81386719 17.34107422 11.06523437 18.05714844 11.32421875 18.79492188 C12.8487979 23.18108021 14.20230019 27.58637117 15.4375 32.0625 C12.7975 32.0625 10.1575 32.0625 7.4375 32.0625 C7.1075 30.0825 6.7775 28.1025 6.4375 26.0625 C2.1475 26.0625 -2.1425 26.0625 -6.5625 26.0625 C-7.2225 28.0425 -7.8825 30.0225 -8.5625 32.0625 C-10.8725 32.0625 -13.1825 32.0625 -15.5625 32.0625 C-13.30322837 25.18522032 -10.90764169 18.36669983 -8.4375 11.5625 C-8.07785156 10.5621875 -7.71820313 9.561875 -7.34765625 8.53125 C-6.83138672 7.108125 -6.83138672 7.108125 -6.3046875 5.65625 C-5.83844971 4.36750977 -5.83844971 4.36750977 -5.36279297 3.05273438 C-4.00925412 -0.31335735 -3.97395115 0.06971844 0 0 Z M-0.5625 10.0625 C-1.5525 13.0325 -2.5425 16.0025 -3.5625 19.0625 C-1.2525 19.0625 1.0575 19.0625 3.4375 19.0625 C2.4475 16.0925 1.4575 13.1225 0.4375 10.0625 C0.1075 10.0625 -0.2225 10.0625 -0.5625 10.0625 Z " fill="#FFFFFF" transform="translate(360.5625,224.9375)"/>
<path d="M0 0 C1.134375 0.020625 2.26875 0.04125 3.4375 0.0625 C6.48622126 7.22769743 9.40710287 14.4385111 12.25 21.6875 C12.56396729 22.48140137 12.87793457 23.27530273 13.20141602 24.09326172 C15.4375 29.82760518 15.4375 29.82760518 15.4375 32.0625 C12.7975 32.0625 10.1575 32.0625 7.4375 32.0625 C6.7775 30.4125 6.1175 28.7625 5.4375 27.0625 C1.4775 26.7325 -2.4825 26.4025 -6.5625 26.0625 C-7.2225 28.0425 -7.8825 30.0225 -8.5625 32.0625 C-10.8725 32.0625 -13.1825 32.0625 -15.5625 32.0625 C-13.91287091 24.57043453 -11.28544053 17.53967794 -8.4375 10.4375 C-7.89609375 9.08543457 -7.89609375 9.08543457 -7.34375 7.70605469 C-4.24331716 0.07444416 -4.24331716 0.07444416 0 0 Z M-0.5625 10.0625 C-2.72448167 14.40018102 -2.72448167 14.40018102 -3.5625 19.0625 C-1.2525 19.0625 1.0575 19.0625 3.4375 19.0625 C2.4475 16.0925 1.4575 13.1225 0.4375 10.0625 C0.1075 10.0625 -0.2225 10.0625 -0.5625 10.0625 Z " fill="#FFFFFF" transform="translate(279.5625,224.9375)"/>
<path d="M0 0 C5.101223 -0.87952121 5.101223 -0.87952121 8 0 C10.5601268 3.06232651 12.23901591 6.43537822 14 10 C14.33 10.33 14.66 10.66 15 11 C15.4125 10.2059375 15.825 9.411875 16.25 8.59375 C20.91072697 0.35425053 20.91072697 0.35425053 24.24609375 -0.73046875 C26.4375 -0.6875 26.4375 -0.6875 30 0 C28.48433234 4.22958567 26.3295359 7.90902469 23.9375 11.6875 C20.75580726 16.76131444 18.88838823 20.07021521 18.4375 26.125 C18.35371094 27.22070312 18.26992188 28.31640625 18.18359375 29.4453125 C18.09271484 30.70988281 18.09271484 30.70988281 18 32 C15.69 32 13.38 32 11 32 C11.04382813 31.2471875 11.08765625 30.494375 11.1328125 29.71875 C11.10896785 19.89475387 7.61395551 14.23784388 2.15234375 6.3359375 C0 3 0 3 0 0 Z " fill="#FFFFFF" transform="translate(416,225)"/>
<path d="M0 0 C2.31 0 4.62 0 7 0 C8 1 8 1 8.11352539 3.40844727 C8.10828857 4.45057373 8.10305176 5.4927002 8.09765625 6.56640625 C8.09443359 7.69111328 8.09121094 8.81582031 8.08789062 9.97460938 C8.07951172 11.15861328 8.07113281 12.34261719 8.0625 13.5625 C8.05798828 14.75037109 8.05347656 15.93824219 8.04882812 17.16210938 C8.03699686 20.10809412 8.01906076 23.05405316 8 26 C12.62 26 17.24 26 22 26 C22 27.98 22 29.96 22 32 C14.74 32 7.48 32 0 32 C0 21.44 0 10.88 0 0 Z " fill="#FFFFFF" transform="translate(395,225)"/>
<path d="M0 0 C2.31 0 4.62 0 7 0 C7 10.56 7 21.12 7 32 C4.69 32 2.38 32 0 32 C0 21.44 0 10.88 0 0 Z " fill="#FFFFFF" transform="translate(381,225)"/>
<path d="M0 0 C0 3 0 3 -2.5 5.6875 C-3.325 6.450625 -4.15 7.21375 -5 8 C-5.66 7.67 -6.32 7.34 -7 7 C-7 6.34 -7 5.68 -7 5 C-5.03277992 3.61876037 -3.03131672 2.28511874 -1 1 C-0.67 0.67 -0.34 0.34 0 0 Z " fill="#8BBC87" transform="translate(459,106)"/>
</svg>
