<svg xmlns="http://www.w3.org/2000/svg" width="512" height="512" viewBox="0 0 512 512" version="1.1"><path d="" stroke="none" fill="#080404" fill-rule="evenodd"/><path d="M 224 1.584 C 107.206 16.909, 16.368 108.084, 1.565 224.842 C -0.435 240.612, -0.459 269.586, 1.512 286.441 C 11.662 373.204, 66.602 449.441, 146.447 487.555 C 172.553 500.017, 200.113 507.807, 229.211 510.951 C 243.248 512.467, 271.469 512.239, 286.441 510.488 C 332.688 505.078, 379.569 485.290, 417 455.380 C 427.902 446.669, 446.669 427.902, 455.380 417 C 484.637 380.386, 505.621 331.251, 510.078 288.923 C 510.681 283.191, 511.586 277.719, 512.088 276.764 C 513.231 274.587, 513.277 232.014, 512.134 233.817 C 511.622 234.624, 511.045 232.095, 510.645 227.290 C 507.544 190.110, 490.535 144.598, 467.185 111 C 424.665 49.821, 358.911 9.990, 286.441 1.512 C 270.499 -0.352, 238.476 -0.316, 224 1.584 M 247 17.646 C 212.419 19.281, 181.346 27.194, 151.500 41.966 C 125.584 54.792, 105.775 69.022, 86.338 88.774 C 67.033 108.393, 54.138 126.697, 41.447 152.500 C 4.797 227.015, 10.710 317.480, 56.770 386.922 C 73.624 412.333, 95.054 434.319, 119.974 451.770 L 127.500 457.041 128.096 423.770 C 128.717 389.111, 129.091 385.732, 134.038 370 C 137.293 359.651, 146.394 342.236, 153.423 332.908 C 165.590 316.759, 188.242 298, 195.574 298 C 197.376 298, 201.881 299.736, 206.105 302.058 C 226.256 313.134, 250.864 317.397, 272.586 313.574 C 285.353 311.327, 291.744 309.183, 302.920 303.396 C 308.652 300.428, 314.594 298, 316.126 298 C 321.933 298, 337.867 309.628, 349.916 322.659 C 361.688 335.390, 371.794 351.954, 376.912 366.904 C 382.890 384.369, 383.244 387.227, 383.892 423.324 L 384.500 457.149 392.500 451.420 C 424.833 428.266, 449.543 400.200, 466.827 367 C 478.520 344.537, 485.697 324.444, 490.055 301.965 C 495.971 271.445, 495.536 234.413, 488.911 204.569 C 470.113 119.892, 405.834 51.157, 323 27.156 C 298.712 20.119, 270.186 16.549, 247 17.646 M 235.967 112.999 C 193.128 123.542, 164.908 165.285, 171.381 208.534 C 177.906 252.132, 216.424 283.919, 260 281.667 C 314.200 278.866, 352.294 227.543, 338.947 175.302 C 330.930 143.919, 304.929 119.024, 273.360 112.503 C 263.283 110.421, 245.480 110.657, 235.967 112.999 M 244.500 129.431 C 218.014 134.534, 197.254 153.524, 190.309 179 C 187.519 189.235, 187.977 206.255, 191.319 216.500 C 200.720 245.318, 226.416 264.056, 256.434 263.983 C 265.993 263.959, 276.011 261.696, 284.471 257.650 C 328.837 236.429, 337.407 179.367, 301.255 145.897 C 286.753 132.470, 263.596 125.752, 244.500 129.431 M 0.426 255.500 C 0.427 267.600, 0.571 272.413, 0.747 266.195 C 0.923 259.977, 0.922 250.077, 0.746 244.195 C 0.569 238.313, 0.425 243.400, 0.426 255.500 M 188.815 322.041 C 172.564 334.247, 158.243 354.173, 151.525 373.927 C 146.217 389.533, 145.672 394.894, 145.583 432.434 L 145.500 467.367 152.500 470.836 C 173.930 481.458, 199.571 489.061, 225.569 492.504 C 239.445 494.342, 269.035 494.618, 282.786 493.039 C 309.628 489.956, 337.631 481.765, 360.221 470.389 L 367.270 466.839 366.700 431.169 C 366.081 392.521, 365.432 387.109, 359.543 371.500 C 351.849 351.104, 336.821 331.229, 320.715 320.148 L 316.192 317.036 306.846 321.439 C 274.201 336.820, 234.963 336.422, 202.695 320.383 C 198.952 318.522, 195.802 317.004, 195.695 317.010 C 195.588 317.015, 192.492 319.279, 188.815 322.041" stroke="none" fill="#040404" fill-rule="evenodd"/></svg>