<svg xmlns="http://www.w3.org/2000/svg" width="512" height="512" viewBox="0 0 512 512" version="1.1"><path d="M 242.500 44.001 C 189.082 47.537, 139.620 70.480, 102.870 108.767 C 71.755 141.185, 52.281 181.111, 45.444 226.500 C 43.225 241.228, 43.231 270.641, 45.454 285.500 C 54.156 343.643, 84.706 394.187, 132 428.686 L 137.500 432.698 137.175 428.099 C 136.996 425.569, 137.793 418.887, 138.944 413.250 C 147.295 372.370, 174.067 340.612, 213.857 324.386 C 216.113 323.467, 215.962 323.258, 210.357 319.540 C 192.607 307.766, 179.929 289.451, 174.890 268.301 C 173.144 260.977, 172.874 257.402, 173.277 247 C 173.818 233.054, 175.424 225.976, 180.480 215.256 C 190.877 193.208, 208.916 177.515, 232.500 169.999 C 241.930 166.994, 262.357 166.143, 272.635 168.328 C 288.133 171.622, 301.384 178.572, 312.755 189.370 C 321.243 197.432, 326.606 204.834, 331.546 215.309 C 336.576 225.975, 338.183 233.071, 338.723 247 C 339.126 257.402, 338.856 260.977, 337.110 268.301 C 332.071 289.451, 319.393 307.766, 301.643 319.540 C 296.042 323.255, 295.889 323.467, 298.143 324.378 C 304.831 327.083, 317.042 333.535, 323.365 337.704 C 333.101 344.125, 348.387 359.659, 355.401 370.259 C 366.470 386.988, 374.014 408.636, 374.336 424.597 L 374.500 432.695 378 430.113 C 394.649 417.832, 411.751 401.712, 422.230 388.421 C 445.969 358.315, 460.803 323.578, 466.450 284.872 C 468.499 270.822, 468.502 241.210, 466.455 227.128 C 463.032 203.580, 457.127 184.232, 447.037 163.500 C 435.771 140.353, 424.104 123.955, 406.074 105.926 C 384.865 84.716, 362.050 69.635, 334.173 58.396 C 316.622 51.321, 292.698 45.670, 275.500 44.539 C 257.498 43.354, 253.305 43.286, 242.500 44.001" stroke="none" fill="#143cf4" fill-rule="evenodd"/><path d="M 240.075 168.087 C 214.365 173.131, 191.985 190.857, 180.454 215.309 C 175.424 225.975, 173.817 233.071, 173.277 247 C 172.874 257.402, 173.144 260.977, 174.890 268.301 C 179.929 289.451, 192.607 307.766, 210.357 319.540 C 215.962 323.258, 216.113 323.467, 213.857 324.386 C 174.207 340.555, 147.270 372.416, 139.019 412.907 C 137.909 418.356, 137 424.820, 137 427.271 C 137 431.310, 137.352 431.963, 140.750 434.230 C 165.612 450.815, 194.395 461.654, 226.500 466.522 C 241.226 468.755, 270.624 468.768, 285.500 466.549 C 315.289 462.105, 345.483 451.088, 368.393 436.304 L 375.285 431.856 374.684 424.178 C 373.324 406.823, 365.948 386.200, 355.401 370.259 C 348.387 359.659, 333.101 344.125, 323.365 337.704 C 317.042 333.535, 304.831 327.083, 298.143 324.378 C 295.889 323.467, 296.042 323.255, 301.643 319.540 C 319.393 307.766, 332.071 289.451, 337.110 268.301 C 338.856 260.977, 339.126 257.402, 338.723 247 C 338.183 233.071, 336.576 225.975, 331.546 215.309 C 326.606 204.834, 321.243 197.432, 312.755 189.370 C 301.513 178.695, 288.115 171.616, 273.143 168.443 C 265.896 166.907, 247.121 166.705, 240.075 168.087" stroke="none" fill="#fbfbfc" fill-rule="evenodd"/></svg>