<?xml version="1.0" standalone="no"?>
<!DOCTYPE svg PUBLIC "-//W3C//DTD SVG 20010904//EN"
 "http://www.w3.org/TR/2001/REC-SVG-20010904/DTD/svg10.dtd">
<svg version="1.0" xmlns="http://www.w3.org/2000/svg"
 width="320.000000pt" height="320.000000pt" viewBox="0 0 320.000000 320.000000"
 preserveAspectRatio="xMidYMid meet">

<g transform="translate(0.000000,320.000000) scale(0.100000,-0.100000)"
fill="#000000" stroke="none">
<path d="M665 2666 c-46 -20 -94 -64 -118 -110 l-22 -41 -3 -889 c-3 -1001 -6
-958 69 -1033 76 -77 24 -74 1030 -71 l894 3 41 22 c53 28 100 82 114 130 8
27 10 311 8 949 l-3 910 -28 42 c-15 23 -46 54 -69 69 l-42 28 -920 2 c-744 2
-927 0 -951 -11z m545 -381 l0 -285 -290 0 -290 0 0 234 c0 257 5 287 54 317
28 17 53 19 279 19 l247 0 0 -285z m687 83 c-4 -112 -7 -240 -7 -285 l0 -83
-285 0 -285 0 0 285 0 285 292 0 291 0 -6 -202z m632 176 c17 -14 35 -42 41
-62 5 -20 10 -137 10 -259 l0 -223 -290 0 -290 0 0 285 0 285 249 0 249 0 31
-26z m-1319 -939 l0 -285 -290 0 -290 0 0 285 0 285 290 0 290 0 0 -285z m680
0 l0 -285 -285 0 -285 0 0 285 0 285 285 0 285 0 0 -285z m681 281 c2 -2 3
-131 1 -285 l-3 -281 -284 0 -285 0 0 285 0 285 283 0 c156 0 286 -2 288 -4z
m-1361 -966 l0 -290 -237 0 c-355 0 -343 -12 -343 343 l0 237 290 0 290 0 0
-290z m680 0 l0 -290 -285 0 -285 0 0 290 0 290 285 0 285 0 0 -290z m680 41
c0 -346 16 -331 -335 -331 l-235 0 0 290 0 290 285 0 285 0 0 -249z"/>
</g>
</svg>
